Itim-Regular.ufo
<glyph name="exclam" format="1">
  <advance width="252"/>
  <unicode hex="0021"/>
  <outline>
    <contour>
      <point x="178" y="613"/>
      <point x="164" y="642"/>
      <point x="125" y="642" type="curve" smooth="yes"/>
      <point x="72" y="642"/>
      <point x="74" y="585"/>
      <point x="74" y="551" type="curve" smooth="yes"/>
      <point x="74" y="436"/>
      <point x="67" y="326"/>
      <point x="85" y="206" type="curve"/>
      <point x="89" y="188"/>
      <point x="110" y="177"/>
      <point x="130" y="177" type="curve" smooth="yes"/>
      <point x="148" y="177"/>
      <point x="167" y="187"/>
      <point x="168" y="211" type="curve"/>
      <point x="167" y="233"/>
      <point x="166" y="247"/>
      <point x="166" y="269" type="curve" smooth="yes"/>
      <point x="166" y="374"/>
      <point x="178" y="472"/>
      <point x="178" y="580" type="curve" smooth="yes"/>
    </contour>
    <contour>
      <point x="90" y="125"/>
      <point x="67" y="94"/>
      <point x="67" y="67" type="curve" smooth="yes"/>
      <point x="67" y="36"/>
      <point x="93" y="5"/>
      <point x="135" y="5" type="curve" smooth="yes"/>
      <point x="170" y="5"/>
      <point x="193" y="42"/>
      <point x="193" y="74" type="curve" smooth="yes"/>
      <point x="193" y="104"/>
      <point x="174" y="125"/>
      <point x="125" y="125" type="curve" smooth="yes"/>
    </contour>
  </outline>
</glyph>
<glyph name="dollar" format="1">
  <advance width="507"/>
  <unicode hex="0024"/>
  <outline>
    <contour>
      <point x="466" y="256"/>
      <point x="431" y="287"/>
      <point x="374" y="322" type="curve" smooth="yes"/>
      <point x="339" y="344"/>
      <point x="312" y="356"/>
      <point x="285" y="368" type="curve"/>
      <point x="285" y="383" type="line" smooth="yes"/>
      <point x="286" y="413"/>
      <point x="287" y="480"/>
      <point x="287" y="534" type="curve"/>
      <point x="300" y="531"/>
      <point x="309" y="527"/>
      <point x="318" y="524" type="curve"/>
      <point x="329" y="519"/>
      <point x="339" y="508"/>
      <point x="349" y="497" type="curve"/>
      <point x="361" y="482"/>
      <point x="373" y="469"/>
      <point x="385" y="469" type="curve" smooth="yes"/>
      <point x="432" y="469"/>
      <point x="445" y="489"/>
      <point x="445" y="508" type="curve" smooth="yes"/>
      <point x="445" y="553"/>
      <point x="406" y="576"/>
      <point x="359" y="603" type="curve" smooth="yes"/>
      <point x="335" y="616"/>
      <point x="312" y="625"/>
      <point x="288" y="627" type="curve"/>
      <point x="289" y="670"/>
      <point x="289" y="698"/>
      <point x="255" y="698" type="curve" smooth="yes"/>
      <point x="247" y="698"/>
      <point x="228" y="692"/>
      <point x="228" y="665" type="curve"/>
      <point x="229" y="652"/>
      <point x="229" y="638"/>
      <point x="229" y="624" type="curve"/>
      <point x="196" y="616"/>
      <point x="157" y="602"/>
      <point x="139" y="593" type="curve" smooth="yes"/>
      <point x="92" y="571"/>
      <point x="49" y="508"/>
      <point x="49" y="455" type="curve" smooth="yes"/>
      <point x="49" y="402"/>
      <point x="73" y="351"/>
      <point x="146" y="315" type="curve" smooth="yes"/>
      <point x="175" y="301"/>
      <point x="199" y="293"/>
      <point x="227" y="283" type="curve"/>
      <point x="226" y="202"/>
      <point x="222" y="98"/>
      <point x="222" y="93" type="curve"/>
      <point x="193" y="101"/>
      <point x="161" y="123"/>
      <point x="137" y="166" type="curve" smooth="yes"/>
      <point x="130" y="178"/>
      <point x="112" y="190"/>
      <point x="94" y="190" type="curve" smooth="yes"/>
      <point x="56" y="190"/>
      <point x="43" y="179"/>
      <point x="43" y="146" type="curve" smooth="yes"/>
      <point x="43" y="92"/>
      <point x="80" y="66"/>
      <point x="137" y="26" type="curve"/>
      <point x="154" y="18"/>
      <point x="187" y="-1"/>
      <point x="226" y="-3" type="curve"/>
      <point x="227" y="-14"/>
      <point x="228" y="-28"/>
      <point x="228" y="-42" type="curve" smooth="yes"/>
      <point x="228" y="-79"/>
      <point x="285" y="-86"/>
      <point x="285" y="-54" type="curve"/>
      <point x="284" y="-45"/>
      <point x="284" y="-24"/>
      <point x="284" y="0" type="curve"/>
      <point x="318" y="4"/>
      <point x="346" y="14"/>
      <point x="375" y="37" type="curve" smooth="yes"/>
      <point x="434" y="84"/>
      <point x="466" y="116"/>
      <point x="466" y="179" type="curve" smooth="yes"/>
    </contour>
    <contour>
      <point x="283" y="148"/>
      <point x="283" y="206"/>
      <point x="284" y="257" type="curve"/>
      <point x="326" y="238"/>
      <point x="363" y="211"/>
      <point x="363" y="177" type="curve" smooth="yes"/>
      <point x="363" y="145"/>
      <point x="332" y="108"/>
      <point x="283" y="94" type="curve"/>
    </contour>
    <contour>
      <point x="150" y="502"/>
      <point x="188" y="527"/>
      <point x="228" y="535" type="curve"/>
      <point x="228" y="391" type="line"/>
      <point x="213" y="396" type="line"/>
      <point x="184" y="407"/>
      <point x="150" y="431"/>
      <point x="150" y="460" type="curve" smooth="yes"/>
    </contour>
  </outline>
</glyph>
<glyph name="ampersand" format="1">
  <advance width="646"/>
  <unicode hex="0026"/>
  <outline>
    <contour>
      <point x="474" y="58"/>
      <point x="525" y="-14"/>
      <point x="583" y="-14" type="curve" smooth="yes"/>
      <point x="607" y="-14"/>
      <point x="630" y="5"/>
      <point x="630" y="40" type="curve" smooth="yes"/>
      <point x="630" y="53"/>
      <point x="628" y="65"/>
      <point x="616" y="72" type="curve"/>
      <point x="568" y="104"/>
      <point x="520" y="116"/>
      <point x="479" y="157" type="curve"/>
      <point x="514" y="207"/>
      <point x="554" y="241"/>
      <point x="576" y="287" type="curve"/>
      <point x="580" y="297"/>
      <point x="585" y="307"/>
      <point x="585" y="318" type="curve" smooth="yes"/>
      <point x="585" y="341"/>
      <point x="564" y="352"/>
      <point x="535" y="352" type="curve" smooth="yes"/>
      <point x="501" y="352"/>
      <point x="477" y="314"/>
      <point x="453" y="277" type="curve" smooth="yes"/>
      <point x="437" y="253"/>
      <point x="421" y="228"/>
      <point x="403" y="216" type="curve"/>
      <point x="371" y="234"/>
      <point x="314" y="283"/>
      <point x="284" y="337" type="curve"/>
      <point x="292" y="348"/>
      <point x="304" y="357"/>
      <point x="313" y="370" type="curve"/>
      <point x="345" y="411"/>
      <point x="377" y="454"/>
      <point x="377" y="494" type="curve" smooth="yes"/>
      <point x="377" y="526"/>
      <point x="367" y="553"/>
      <point x="346" y="575" type="curve" smooth="yes"/>
      <point x="316" y="607"/>
      <point x="277" y="641"/>
      <point x="216" y="641" type="curve" smooth="yes"/>
      <point x="168" y="641"/>
      <point x="141" y="622"/>
      <point x="127" y="580" type="curve" smooth="yes"/>
      <point x="101" y="507"/>
      <point x="118" y="428"/>
      <point x="154" y="357" type="curve"/>
      <point x="119" y="325"/>
      <point x="49" y="249"/>
      <point x="49" y="163" type="curve" smooth="yes"/>
      <point x="49" y="71"/>
      <point x="139" y="6"/>
      <point x="223" y="6" type="curve" smooth="yes"/>
      <point x="288" y="6"/>
      <point x="339" y="37"/>
      <point x="388" y="67" type="curve"/>
      <point x="401" y="76"/>
      <point x="414" y="85"/>
      <point x="426" y="88" type="curve"/>
    </contour>
    <contour>
      <point x="263" y="557"/>
      <point x="284" y="536"/>
      <point x="284" y="506" type="curve" smooth="yes"/>
      <point x="284" y="473"/>
      <point x="265" y="436"/>
      <point x="237" y="417" type="curve"/>
      <point x="223" y="436"/>
      <point x="211" y="467"/>
      <point x="211" y="500" type="curve" smooth="yes"/>
      <point x="211" y="523"/>
      <point x="216" y="544"/>
      <point x="230" y="558" type="curve"/>
    </contour>
    <contour>
      <point x="192" y="90"/>
      <point x="154" y="121"/>
      <point x="154" y="161" type="curve" smooth="yes"/>
      <point x="154" y="199"/>
      <point x="179" y="246"/>
      <point x="206" y="276" type="curve"/>
      <point x="221" y="261"/>
      <point x="236" y="247"/>
      <point x="249" y="231" type="curve"/>
      <point x="276" y="203"/>
      <point x="304" y="174"/>
      <point x="338" y="148" type="curve"/>
      <point x="313" y="124"/>
      <point x="270" y="90"/>
      <point x="233" y="90" type="curve" smooth="yes"/>
    </contour>
  </outline>
</glyph>
<glyph name="parenleft" format="1">
  <advance width="326"/>
  <unicode hex="0028"/>
  <outline>
    <contour>
      <point x="197" y="660"/>
      <point x="128" y="543"/>
      <point x="108" y="490" type="curve" smooth="yes"/>
      <point x="81" y="421"/>
      <point x="58" y="327"/>
      <point x="58" y="242" type="curve" smooth="yes"/>
      <point x="58" y="69"/>
      <point x="102" y="-69"/>
      <point x="169" y="-152" type="curve" smooth="yes"/>
      <point x="188" y="-176"/>
      <point x="246" y="-217"/>
      <point x="283" y="-217" type="curve" smooth="yes"/>
      <point x="297" y="-217"/>
      <point x="312" y="-200"/>
      <point x="312" y="-185" type="curve" smooth="yes"/>
      <point x="312" y="-158"/>
      <point x="267" y="-130"/>
      <point x="246" y="-104" type="curve"/>
      <point x="217" y="-71"/>
      <point x="191" y="0"/>
      <point x="179" y="33" type="curve" smooth="yes"/>
      <point x="161" y="84"/>
      <point x="154" y="153"/>
      <point x="154" y="216" type="curve" smooth="yes"/>
      <point x="154" y="351"/>
      <point x="199" y="503"/>
      <point x="255" y="566" type="curve" smooth="yes"/>
      <point x="273" y="586"/>
      <point x="303" y="608"/>
      <point x="303" y="624" type="curve" smooth="yes"/>
      <point x="303" y="646"/>
      <point x="280" y="660"/>
      <point x="250" y="660" type="curve" smooth="yes"/>
    </contour>
  </outline>
</glyph>
<glyph name="asterisk" format="1">
  <advance width="422"/>
  <unicode hex="002A"/>
  <outline>
    <contour>
      <point x="326" y="553"/>
      <point x="309" y="543"/>
      <point x="292" y="533" type="curve"/>
      <point x="282" y="526"/>
      <point x="265" y="508"/>
      <point x="252" y="507" type="curve"/>
      <point x="250" y="526"/>
      <point x="269" y="568"/>
      <point x="269" y="597" type="curve" smooth="yes"/>
      <point x="269" y="621"/>
      <point x="256" y="643"/>
      <point x="232" y="643" type="curve" smooth="yes"/>
      <point x="201" y="643"/>
      <point x="169" y="623"/>
      <point x="169" y="590" type="curve" smooth="yes"/>
      <point x="169" y="564"/>
      <point x="182" y="538"/>
      <point x="182" y="507" type="curve"/>
      <point x="169" y="510"/>
      <point x="153" y="526"/>
      <point x="141" y="535" type="curve" smooth="yes"/>
      <point x="124" y="547"/>
      <point x="107" y="560"/>
      <point x="86" y="560" type="curve" smooth="yes"/>
      <point x="73" y="560"/>
      <point x="57" y="553"/>
      <point x="47" y="539" type="curve"/>
      <point x="42" y="533"/>
      <point x="39" y="524"/>
      <point x="39" y="514" type="curve" smooth="yes"/>
      <point x="39" y="502"/>
      <point x="43" y="490"/>
      <point x="56" y="482" type="curve"/>
      <point x="83" y="463"/>
      <point x="114" y="458"/>
      <point x="141" y="445" type="curve"/>
      <point x="137" y="429"/>
      <point x="124" y="417"/>
      <point x="111" y="406" type="curve" smooth="yes"/>
      <point x="94" y="391"/>
      <point x="76" y="376"/>
      <point x="76" y="352" type="curve" smooth="yes"/>
      <point x="76" y="322"/>
      <point x="107" y="308"/>
      <point x="127" y="308" type="curve" smooth="yes"/>
      <point x="156" y="308"/>
      <point x="170" y="341"/>
      <point x="178" y="365" type="curve" smooth="yes"/>
      <point x="184" y="383"/>
      <point x="202" y="411"/>
      <point x="211" y="411" type="curve" smooth="yes"/>
      <point x="224" y="411"/>
      <point x="239" y="374"/>
      <point x="255" y="356" type="curve"/>
      <point x="272" y="334"/>
      <point x="287" y="319"/>
      <point x="308" y="319" type="curve" smooth="yes"/>
      <point x="337" y="319"/>
      <point x="358" y="341"/>
      <point x="358" y="369" type="curve" smooth="yes"/>
      <point x="358" y="391"/>
      <point x="336" y="405"/>
      <point x="319" y="416" type="curve"/>
      <point x="308" y="421"/>
      <point x="294" y="439"/>
      <point x="288" y="447" type="curve"/>
      <point x="298" y="454"/>
      <point x="315" y="457"/>
      <point x="328" y="462" type="curve" smooth="yes"/>
      <point x="352" y="471"/>
      <point x="386" y="482"/>
      <point x="386" y="509" type="curve" smooth="yes"/>
      <point x="386" y="536"/>
      <point x="375" y="553"/>
      <point x="349" y="553" type="curve" smooth="yes"/>
    </contour>
  </outline>
</glyph>
<glyph name="plus" format="1">
  <advance width="537"/>
  <unicode hex="002B"/>
  <outline>
    <contour>
      <point x="385" y="253"/>
      <point x="352" y="249"/>
      <point x="316" y="253" type="curve"/>
      <point x="312" y="300"/>
      <point x="318" y="346"/>
      <point x="317" y="395" type="curve"/>
      <point x="317" y="418"/>
      <point x="301" y="431"/>
      <point x="270" y="431" type="curve" smooth="yes"/>
      <point x="233" y="431"/>
      <point x="227" y="409"/>
      <point x="227" y="373" type="curve" smooth="yes"/>
      <point x="227" y="359"/>
      <point x="228" y="344"/>
      <point x="229" y="329" type="curve" smooth="yes"/>
      <point x="230" y="303"/>
      <point x="233" y="275"/>
      <point x="229" y="251" type="curve"/>
      <point x="220" y="251"/>
      <point x="209" y="254"/>
      <point x="197" y="254" type="curve" smooth="yes"/>
      <point x="173" y="254"/>
      <point x="150" y="250"/>
      <point x="113" y="250" type="curve" smooth="yes"/>
      <point x="93" y="250"/>
      <point x="67" y="248"/>
      <point x="54" y="234" type="curve"/>
      <point x="47" y="227"/>
      <point x="45" y="216"/>
      <point x="45" y="203" type="curve" smooth="yes"/>
      <point x="45" y="174"/>
      <point x="75" y="164"/>
      <point x="106" y="163" type="curve" smooth="yes"/>
      <point x="135" y="163"/>
      <point x="164" y="168"/>
      <point x="196" y="168" type="curve" smooth="yes"/>
      <point x="211" y="168"/>
      <point x="221" y="166"/>
      <point x="230" y="165" type="curve"/>
      <point x="234" y="118"/>
      <point x="234" y="50"/>
      <point x="234" y="39" type="curve" smooth="yes"/>
      <point x="234" y="19"/>
      <point x="259" y="2"/>
      <point x="278" y="2" type="curve" smooth="yes"/>
      <point x="291" y="2"/>
      <point x="305" y="5"/>
      <point x="314" y="16" type="curve"/>
      <point x="322" y="27"/>
      <point x="325" y="43"/>
      <point x="325" y="60" type="curve" smooth="yes"/>
      <point x="325" y="87"/>
      <point x="318" y="113"/>
      <point x="319" y="141" type="curve"/>
      <point x="319" y="148"/>
      <point x="319" y="157"/>
      <point x="321" y="164" type="curve"/>
      <point x="337" y="161"/>
      <point x="401" y="166"/>
      <point x="422" y="166" type="curve" smooth="yes"/>
      <point x="453" y="166"/>
      <point x="492" y="175"/>
      <point x="492" y="208" type="curve" smooth="yes"/>
      <point x="492" y="245"/>
      <point x="478" y="253"/>
      <point x="421" y="253" type="curve" smooth="yes"/>
    </contour>
  </outline>
</glyph>
<glyph name="comma" format="1">
  <advance width="237"/>
  <unicode hex="002C"/>
  <outline>
    <contour>
      <point x="80" y="-18"/>
      <point x="74" y="-28"/>
      <point x="64" y="-42" type="curve" smooth="yes"/>
      <point x="54" y="-57"/>
      <point x="22" y="-77"/>
      <point x="22" y="-88" type="curve" smooth="yes"/>
      <point x="22" y="-110"/>
      <point x="25" y="-122"/>
      <point x="59" y="-122" type="curve" smooth="yes"/>
      <point x="76" y="-122"/>
      <point x="101" y="-104"/>
      <point x="117" y="-85" type="curve" smooth="yes"/>
      <point x="136" y="-61"/>
      <point x="169" y="2"/>
      <point x="169" y="46" type="curve" smooth="yes"/>
      <point x="169" y="78"/>
      <point x="148" y="106"/>
      <point x="115" y="106" type="curve" smooth="yes"/>
      <point x="98" y="106"/>
      <point x="76" y="103"/>
      <point x="61" y="95" type="curve"/>
      <point x="46" y="88"/>
      <point x="38" y="71"/>
      <point x="37" y="52" type="curve"/>
      <point x="37" y="19"/>
      <point x="57" y="7"/>
      <point x="67" y="1" type="curve"/>
      <point x="74" y="-4"/>
      <point x="86" y="-3"/>
      <point x="86" y="-3" type="curve"/>
    </contour>
  </outline>
</glyph>
<glyph name="period" format="1">
  <advance width="246"/>
  <unicode hex="002E"/>
  <outline>
    <contour>
      <point x="192" y="93"/>
      <point x="156" y="116"/>
      <point x="112" y="116" type="curve" smooth="yes"/>
      <point x="74" y="116"/>
      <point x="54" y="94"/>
      <point x="54" y="42" type="curve" smooth="yes"/>
      <point x="54" y="9"/>
      <point x="93" y="-13"/>
      <point x="128" y="-13" type="curve" smooth="yes"/>
      <point x="160" y="-13"/>
      <point x="192" y="22"/>
      <point x="192" y="55" type="curve" smooth="yes"/>
    </contour>
  </outline>
</glyph>
<glyph name="zero" format="1">
  <advance width="616"/>
  <unicode hex="0030"/>
  <outline>
    <contour>
      <point x="429" y="602"/>
      <point x="369" y="625"/>
      <point x="310" y="625" type="curve" smooth="yes"/>
      <point x="261" y="625"/>
      <point x="216" y="611"/>
      <point x="177" y="582" type="curve" smooth="yes"/>
      <point x="94" y="518"/>
      <point x="47" y="404"/>
      <point x="47" y="297" type="curve" smooth="yes"/>
      <point x="47" y="236"/>
      <point x="62" y="171"/>
      <point x="94" y="120" type="curve" smooth="yes"/>
      <point x="131" y="61"/>
      <point x="215" y="-5"/>
      <point x="320" y="-5" type="curve" smooth="yes"/>
      <point x="483" y="-5"/>
      <point x="562" y="159"/>
      <point x="562" y="314" type="curve" smooth="yes"/>
      <point x="562" y="408"/>
      <point x="531" y="499"/>
      <point x="489" y="564" type="curve"/>
    </contour>
    <contour>
      <point x="255" y="517"/>
      <point x="280" y="533"/>
      <point x="323" y="533" type="curve" smooth="yes"/>
      <point x="423" y="533"/>
      <point x="462" y="437"/>
      <point x="462" y="325" type="curve" smooth="yes"/>
      <point x="462" y="204"/>
      <point x="416" y="94"/>
      <point x="310" y="94" type="curve" smooth="yes"/>
      <point x="293" y="94"/>
      <point x="275" y="96"/>
      <point x="256" y="103" type="curve" smooth="yes"/>
      <point x="188" y="127"/>
      <point x="149" y="202"/>
      <point x="149" y="295" type="curve" smooth="yes"/>
      <point x="149" y="311"/>
      <point x="150" y="328"/>
      <point x="153" y="344" type="curve" smooth="yes"/>
      <point x="166" y="423"/>
      <point x="183" y="436"/>
      <point x="221" y="495" type="curve"/>
    </contour>
  </outline>
</glyph>
<glyph name="one" format="1">
  <advance width="464"/>
  <unicode hex="0031"/>
  <outline>
    <contour>
      <point x="316" y="614"/>
      <point x="278" y="628"/>
      <point x="247" y="628" type="curve" smooth="yes"/>
      <point x="239" y="628"/>
      <point x="220" y="622"/>
      <point x="212" y="616" type="curve"/>
      <point x="161" y="582"/>
      <point x="73" y="548"/>
      <point x="73" y="512" type="curve" smooth="yes"/>
      <point x="73" y="488"/>
      <point x="89" y="470"/>
      <point x="105" y="470" type="curve" smooth="yes"/>
      <point x="138" y="470"/>
      <point x="185" y="502"/>
      <point x="208" y="507" type="curve"/>
      <point x="208" y="371"/>
      <point x="197" y="234"/>
      <point x="195" y="90" type="curve"/>
      <point x="158" y="87"/>
      <point x="138" y="94"/>
      <point x="112" y="94" type="curve" smooth="yes"/>
      <point x="83" y="94"/>
      <point x="54" y="85"/>
      <point x="54" y="49" type="curve" smooth="yes"/>
      <point x="54" y="22"/>
      <point x="61" y="2"/>
      <point x="85" y="2" type="curve" smooth="yes"/>
      <point x="139" y="2"/>
      <point x="153" y="8"/>
      <point x="228" y="9" type="curve" smooth="yes"/>
      <point x="254" y="9"/>
      <point x="314" y="0"/>
      <point x="367" y="0" type="curve" smooth="yes"/>
      <point x="432" y="0"/>
      <point x="441" y="25"/>
      <point x="441" y="51" type="curve" smooth="yes"/>
      <point x="442" y="90"/>
      <point x="417" y="97"/>
      <point x="386" y="97" type="curve" smooth="yes"/>
      <point x="365" y="97"/>
      <point x="355" y="94"/>
      <point x="337" y="94" type="curve" smooth="yes"/>
      <point x="325" y="94"/>
      <point x="313" y="95"/>
      <point x="306" y="100" type="curve"/>
      <point x="304" y="136"/>
      <point x="303" y="175"/>
      <point x="303" y="214" type="curve" smooth="yes"/>
      <point x="303" y="341"/>
      <point x="311" y="479"/>
      <point x="316" y="590" type="curve"/>
    </contour>
  </outline>
</glyph>
<glyph name="three" format="1">
  <advance width="545"/>
  <unicode hex="0033"/>
  <outline>
    <contour>
      <point x="376" y="444"/>
      <point x="441" y="514"/>
      <point x="441" y="567" type="curve" smooth="yes"/>
      <point x="441" y="607"/>
      <point x="391" y="616"/>
      <point x="339" y="616" type="curve" smooth="yes"/>
      <point x="311" y="616"/>
      <point x="283" y="615"/>
      <point x="256" y="615" type="curve" smooth="yes"/>
      <point x="215" y="615"/>
      <point x="183" y="620"/>
      <point x="133" y="620" type="curve" smooth="yes"/>
      <point x="115" y="620"/>
      <point x="98" y="622"/>
      <point x="85" y="617" type="curve"/>
      <point x="69" y="612"/>
      <point x="66" y="593"/>
      <point x="66" y="568" type="curve" smooth="yes"/>
      <point x="66" y="541"/>
      <point x="108" y="525"/>
      <point x="153" y="525" type="curve" smooth="yes"/>
      <point x="185" y="525"/>
      <point x="215" y="529"/>
      <point x="250" y="529" type="curve" smooth="yes"/>
      <point x="269" y="529"/>
      <point x="292" y="528"/>
      <point x="307" y="524" type="curve"/>
      <point x="307" y="474"/>
      <point x="187" y="424"/>
      <point x="187" y="374" type="curve" smooth="yes"/>
      <point x="187" y="321"/>
      <point x="287" y="319"/>
      <point x="329" y="300" type="curve" smooth="yes"/>
      <point x="351" y="290"/>
      <point x="401" y="254"/>
      <point x="401" y="220" type="curve" smooth="yes"/>
      <point x="401" y="139"/>
      <point x="347" y="94"/>
      <point x="258" y="94" type="curve" smooth="yes"/>
      <point x="134" y="94"/>
      <point x="148" y="200"/>
      <point x="77" y="200" type="curve" smooth="yes"/>
      <point x="49" y="200"/>
      <point x="31" y="180"/>
      <point x="31" y="151" type="curve" smooth="yes"/>
      <point x="31" y="130"/>
      <point x="48" y="87"/>
      <point x="69" y="68" type="curve"/>
      <point x="113" y="31"/>
      <point x="166" y="-4"/>
      <point x="243" y="-4" type="curve" smooth="yes"/>
      <point x="349" y="-4"/>
      <point x="441" y="35"/>
      <point x="485" y="124" type="curve" smooth="yes"/>
      <point x="499" y="152"/>
      <point x="505" y="180"/>
      <point x="505" y="206" type="curve" smooth="yes"/>
      <point x="505" y="301"/>
      <point x="422" y="376"/>
      <point x="315" y="400" type="curve"/>
    </contour>
  </outline>
</glyph>
<glyph name="five" format="1">
  <advance width="525"/>
  <unicode hex="0035"/>
  <outline>
    <contour>
      <point x="219" y="526"/>
      <point x="247" y="528"/>
      <point x="283" y="528" type="curve" smooth="yes"/>
      <point x="312" y="528"/>
      <point x="342" y="527"/>
      <point x="370" y="524" type="curve"/>
      <point x="384" y="522"/>
      <point x="398" y="520"/>
      <point x="410" y="520" type="curve" smooth="yes"/>
      <point x="425" y="520"/>
      <point x="443" y="534"/>
      <point x="443" y="579" type="curve" smooth="yes"/>
      <point x="443" y="608"/>
      <point x="408" y="617"/>
      <point x="373" y="617" type="curve" smooth="yes"/>
      <point x="344" y="617"/>
      <point x="309" y="613"/>
      <point x="277" y="616" type="curve" smooth="yes"/>
      <point x="228" y="620"/>
      <point x="182" y="626"/>
      <point x="151" y="626" type="curve" smooth="yes"/>
      <point x="129" y="626"/>
      <point x="91" y="616"/>
      <point x="91" y="589" type="curve" smooth="yes"/>
      <point x="91" y="566"/>
      <point x="94" y="554"/>
      <point x="94" y="534" type="curve" smooth="yes"/>
      <point x="94" y="469"/>
      <point x="86" y="400"/>
      <point x="76" y="333" type="curve"/>
      <point x="76" y="304"/>
      <point x="102" y="289"/>
      <point x="118" y="289" type="curve" smooth="yes"/>
      <point x="144" y="289"/>
      <point x="217" y="324"/>
      <point x="250" y="324" type="curve" smooth="yes"/>
      <point x="364" y="324"/>
      <point x="399" y="278"/>
      <point x="399" y="216" type="curve" smooth="yes"/>
      <point x="399" y="136"/>
      <point x="355" y="115"/>
      <point x="318" y="100" type="curve" smooth="yes"/>
      <point x="304" y="94"/>
      <point x="281" y="92"/>
      <point x="268" y="92" type="curve" smooth="yes"/>
      <point x="220" y="92"/>
      <point x="192" y="107"/>
      <point x="163" y="132" type="curve" smooth="yes"/>
      <point x="130" y="161"/>
      <point x="119" y="181"/>
      <point x="99" y="181" type="curve" smooth="yes"/>
      <point x="84" y="181"/>
      <point x="54" y="166"/>
      <point x="54" y="140" type="curve" smooth="yes"/>
      <point x="54" y="94"/>
      <point x="77" y="67"/>
      <point x="128" y="40" type="curve" smooth="yes"/>
      <point x="166" y="20"/>
      <point x="213" y="-3"/>
      <point x="274" y="-3" type="curve" smooth="yes"/>
      <point x="346" y="-3"/>
      <point x="409" y="31"/>
      <point x="455" y="92" type="curve" smooth="yes"/>
      <point x="475" y="117"/>
      <point x="498" y="175"/>
      <point x="498" y="203" type="curve" smooth="yes"/>
      <point x="498" y="309"/>
      <point x="426" y="409"/>
      <point x="296" y="409" type="curve" smooth="yes"/>
      <point x="249" y="409"/>
      <point x="217" y="407"/>
      <point x="175" y="390" type="curve"/>
      <point x="183" y="435"/>
      <point x="179" y="482"/>
      <point x="190" y="524" type="curve"/>
    </contour>
  </outline>
</glyph>
<glyph name="nine" format="1">
  <advance width="523"/>
  <unicode hex="0039"/>
  <outline>
    <contour>
      <point x="176" y="87"/>
      <point x="141" y="87"/>
      <point x="141" y="56" type="curve" smooth="yes"/>
      <point x="141" y="26"/>
      <point x="164" y="-3"/>
      <point x="191" y="-3" type="curve" smooth="yes"/>
      <point x="229" y="-3"/>
      <point x="279" y="17"/>
      <point x="293" y="27" type="curve" smooth="yes"/>
      <point x="391" y="92"/>
      <point x="473" y="222"/>
      <point x="473" y="383" type="curve" smooth="yes"/>
      <point x="473" y="512"/>
      <point x="408" y="626"/>
      <point x="259" y="626" type="curve" smooth="yes"/>
      <point x="230" y="626"/>
      <point x="184" y="614"/>
      <point x="154" y="601" type="curve" smooth="yes"/>
      <point x="105" y="580"/>
      <point x="38" y="507"/>
      <point x="38" y="446" type="curve" smooth="yes"/>
      <point x="38" y="375"/>
      <point x="67" y="315"/>
      <point x="76" y="306" type="curve"/>
      <point x="112" y="274"/>
      <point x="154" y="238"/>
      <point x="230" y="238" type="curve" smooth="yes"/>
      <point x="276" y="238"/>
      <point x="315" y="245"/>
      <point x="354" y="274" type="curve"/>
      <point x="346" y="206"/>
      <point x="279" y="121"/>
      <point x="210" y="98" type="curve" smooth="yes"/>
    </contour>
    <contour>
      <point x="328" y="541"/>
      <point x="366" y="498"/>
      <point x="366" y="409" type="curve" smooth="yes"/>
      <point x="366" y="357"/>
      <point x="287" y="325"/>
      <point x="241" y="326" type="curve" smooth="yes"/>
      <point x="193" y="326"/>
      <point x="137" y="348"/>
      <point x="137" y="457" type="curve" smooth="yes"/>
      <point x="137" y="471"/>
      <point x="162" y="505"/>
      <point x="185" y="519" type="curve" smooth="yes"/>
      <point x="205" y="532"/>
      <point x="238" y="541"/>
      <point x="259" y="541" type="curve" smooth="yes"/>
    </contour>
  </outline>
</glyph>
<glyph name="colon" format="1">
  <advance width="245"/>
  <unicode hex="003A"/>
  <outline>
    <contour>
      <point x="153" y="301"/>
      <point x="169" y="317"/>
      <point x="178" y="331" type="curve" smooth="yes"/>
      <point x="184" y="341"/>
      <point x="186" y="350"/>
      <point x="186" y="360" type="curve" smooth="yes"/>
      <point x="186" y="398"/>
      <point x="148" y="432"/>
      <point x="113" y="432" type="curve" smooth="yes"/>
      <point x="94" y="432"/>
      <point x="72" y="421"/>
      <point x="63" y="394" type="curve" smooth="yes"/>
      <point x="60" y="384"/>
      <point x="58" y="376"/>
      <point x="58" y="368" type="curve" smooth="yes"/>
      <point x="58" y="330"/>
      <point x="93" y="301"/>
      <point x="125" y="301" type="curve" smooth="yes"/>
    </contour>
    <contour>
      <point x="77" y="118"/>
      <point x="60" y="86"/>
      <point x="60" y="60" type="curve" smooth="yes"/>
      <point x="60" y="29"/>
      <point x="77" y="-2"/>
      <point x="128" y="-2" type="curve" smooth="yes"/>
      <point x="163" y="-2"/>
      <point x="186" y="35"/>
      <point x="186" y="67" type="curve" smooth="yes"/>
      <point x="186" y="97"/>
      <point x="166" y="118"/>
      <point x="118" y="118" type="curve" smooth="yes"/>
    </contour>
  </outline>
</glyph>
<glyph name="question" format="1">
  <advance width="441"/>
  <unicode hex="003F"/>
  <outline>
    <contour>
      <point x="343" y="615"/>
      <point x="294" y="639"/>
      <point x="241" y="639" type="curve" smooth="yes"/>
      <point x="97" y="639"/>
      <point x="20" y="554"/>
      <point x="20" y="475" type="curve" smooth="yes"/>
      <point x="20" y="424"/>
      <point x="38" y="376"/>
      <point x="91" y="376" type="curve" smooth="yes"/>
      <point x="114" y="376"/>
      <point x="125" y="388"/>
      <point x="132" y="404" type="curve" smooth="yes"/>
      <point x="140" y="423"/>
      <point x="131" y="434"/>
      <point x="124" y="442" type="curve"/>
      <point x="117" y="451"/>
      <point x="113" y="461"/>
      <point x="113" y="484" type="curve" smooth="yes"/>
      <point x="113" y="517"/>
      <point x="160" y="555"/>
      <point x="220" y="555" type="curve" smooth="yes"/>
      <point x="244" y="555"/>
      <point x="275" y="542"/>
      <point x="293" y="522" type="curve"/>
      <point x="302" y="511"/>
      <point x="311" y="501"/>
      <point x="311" y="477" type="curve" smooth="yes"/>
      <point x="311" y="457"/>
      <point x="292" y="429"/>
      <point x="273" y="409" type="curve"/>
      <point x="258" y="392"/>
      <point x="242" y="376"/>
      <point x="231" y="356" type="curve" smooth="yes"/>
      <point x="191" y="286"/>
      <point x="184" y="228"/>
      <point x="184" y="200" type="curve" smooth="yes"/>
      <point x="184" y="158"/>
      <point x="205" y="146"/>
      <point x="229" y="146" type="curve" smooth="yes"/>
      <point x="246" y="146"/>
      <point x="278" y="156"/>
      <point x="278" y="190" type="curve"/>
      <point x="284" y="256"/>
      <point x="284" y="297"/>
      <point x="343" y="359" type="curve" smooth="yes"/>
      <point x="379" y="398"/>
      <point x="405" y="431"/>
      <point x="405" y="481" type="curve" smooth="yes"/>
      <point x="405" y="513"/>
      <point x="394" y="544"/>
      <point x="374" y="571" type="curve" smooth="yes"/>
    </contour>
    <contour>
      <point x="199" y="108"/>
      <point x="169" y="85"/>
      <point x="169" y="58" type="curve" smooth="yes"/>
      <point x="169" y="38"/>
      <point x="173" y="17"/>
      <point x="190" y="5" type="curve"/>
      <point x="200" y="-1"/>
      <point x="211" y="-5"/>
      <point x="225" y="-5" type="curve" smooth="yes"/>
      <point x="256" y="-5"/>
      <point x="292" y="15"/>
      <point x="292" y="46" type="curve" smooth="yes"/>
      <point x="292" y="62"/>
      <point x="288" y="76"/>
      <point x="277" y="87" type="curve"/>
      <point x="265" y="101"/>
      <point x="247" y="108"/>
      <point x="229" y="108" type="curve" smooth="yes"/>
    </contour>
  </outline>
</glyph>
<glyph name="F" format="1">
  <advance width="513"/>
  <unicode hex="0046"/>
  <outline>
    <contour>
      <point x="191" y="58"/>
      <point x="191" y="75"/>
      <point x="191" y="102" type="curve" smooth="yes"/>
      <point x="191" y="163"/>
      <point x="185" y="216"/>
      <point x="185" y="269" type="curve"/>
      <point x="206" y="271"/>
      <point x="235" y="272"/>
      <point x="263" y="272" type="curve" smooth="yes"/>
      <point x="302" y="272"/>
      <point x="337" y="279"/>
      <point x="372" y="279" type="curve" smooth="yes"/>
      <point x="418" y="279"/>
      <point x="442" y="294"/>
      <point x="442" y="329" type="curve" smooth="yes"/>
      <point x="442" y="361"/>
      <point x="414" y="372"/>
      <point x="385" y="372" type="curve" smooth="yes"/>
      <point x="335" y="372"/>
      <point x="277" y="356"/>
      <point x="176" y="356" type="curve"/>
      <point x="175" y="417"/>
      <point x="173" y="472"/>
      <point x="173" y="527" type="curve"/>
      <point x="217" y="539"/>
      <point x="281" y="543"/>
      <point x="348" y="543" type="curve" smooth="yes"/>
      <point x="389" y="543"/>
      <point x="424" y="532"/>
      <point x="461" y="532" type="curve" smooth="yes"/>
      <point x="501" y="532"/>
      <point x="508" y="554"/>
      <point x="508" y="577" type="curve" smooth="yes"/>
      <point x="508" y="625"/>
      <point x="436" y="635"/>
      <point x="403" y="635" type="curve" smooth="yes"/>
      <point x="340" y="636"/>
      <point x="227" y="634"/>
      <point x="138" y="625" type="curve"/>
      <point x="95" y="619"/>
      <point x="76" y="591"/>
      <point x="76" y="575" type="curve"/>
      <point x="73" y="543"/>
      <point x="72" y="521"/>
      <point x="72" y="491" type="curve" smooth="yes"/>
      <point x="72" y="373"/>
      <point x="85" y="268"/>
      <point x="85" y="163" type="curve" smooth="yes"/>
      <point x="85" y="123"/>
      <point x="85" y="79"/>
      <point x="79" y="37" type="curve"/>
      <point x="80" y="23"/>
      <point x="94" y="0"/>
      <point x="127" y="0" type="curve" smooth="yes"/>
      <point x="164" y="0"/>
      <point x="181" y="18"/>
      <point x="185" y="36" type="curve"/>
    </contour>
  </outline>
</glyph>
<glyph name="P" format="1">
  <advance width="571"/>
  <unicode hex="0050"/>
  <outline>
    <contour>
      <point x="355" y="549"/>
      <point x="382" y="541"/>
      <point x="419" y="508" type="curve"/>
      <point x="428" y="499"/>
      <point x="444" y="463"/>
      <point x="444" y="442" type="curve" smooth="yes"/>
      <point x="444" y="387"/>
      <point x="418" y="314"/>
      <point x="309" y="314" type="curve" smooth="yes"/>
      <point x="273" y="314"/>
      <point x="247" y="315"/>
      <point x="185" y="328" type="curve"/>
      <point x="187" y="347"/>
      <point x="188" y="373"/>
      <point x="188" y="400" type="curve" smooth="yes"/>
      <point x="188" y="441"/>
      <point x="186" y="488"/>
      <point x="184" y="534" type="curve"/>
      <point x="218" y="542"/>
      <point x="248" y="549"/>
      <point x="296" y="549" type="curve" smooth="yes"/>
    </contour>
    <contour>
      <point x="467" y="226"/>
      <point x="549" y="322"/>
      <point x="549" y="455" type="curve" smooth="yes"/>
      <point x="549" y="484"/>
      <point x="515" y="540"/>
      <point x="499" y="565" type="curve"/>
      <point x="443" y="610"/>
      <point x="397" y="634"/>
      <point x="280" y="634" type="curve" smooth="yes"/>
      <point x="227" y="634"/>
      <point x="177" y="618"/>
      <point x="128" y="618" type="curve"/>
      <point x="96" y="615"/>
      <point x="80" y="580"/>
      <point x="79" y="566" type="curve"/>
      <point x="84" y="491"/>
      <point x="85" y="435"/>
      <point x="86" y="378" type="curve" smooth="yes"/>
      <point x="87" y="255"/>
      <point x="80" y="177"/>
      <point x="75" y="121" type="curve" smooth="yes"/>
      <point x="72" y="89"/>
      <point x="70" y="62"/>
      <point x="70" y="39" type="curve" smooth="yes"/>
      <point x="70" y="8"/>
      <point x="94" y="0"/>
      <point x="135" y="0" type="curve" smooth="yes"/>
      <point x="157" y="0"/>
      <point x="182" y="18"/>
      <point x="182" y="55" type="curve" smooth="yes"/>
      <point x="182" y="109"/>
      <point x="184" y="163"/>
      <point x="184" y="237" type="curve"/>
      <point x="238" y="229"/>
      <point x="265" y="226"/>
      <point x="319" y="226" type="curve" smooth="yes"/>
    </contour>
  </outline>
</glyph>
<glyph name="Q" format="1">
  <advance width="725"/>
  <unicode hex="0051"/>
  <outline>
    <contour>
      <point x="300" y="636"/>
      <point x="238" y="612"/>
      <point x="190" y="582" type="curve" smooth="yes"/>
      <point x="105" y="529"/>
      <point x="52" y="426"/>
      <point x="52" y="287" type="curve" smooth="yes"/>
      <point x="52" y="236"/>
      <point x="69" y="181"/>
      <point x="100" y="132" type="curve" smooth="yes"/>
      <point x="158" y="39"/>
      <point x="256" y="0"/>
      <point x="375" y="0" type="curve" smooth="yes"/>
      <point x="406" y="0"/>
      <point x="435" y="6"/>
      <point x="462" y="16" type="curve"/>
      <point x="497" y="-50"/>
      <point x="537" y="-114"/>
      <point x="595" y="-114" type="curve" smooth="yes"/>
      <point x="648" y="-114"/>
      <point x="656" y="-109"/>
      <point x="679" y="-95" type="curve" smooth="yes"/>
      <point x="689" y="-89"/>
      <point x="694" y="-77"/>
      <point x="694" y="-68" type="curve" smooth="yes"/>
      <point x="694" y="-50"/>
      <point x="680" y="-32"/>
      <point x="654" y="-37" type="curve" smooth="yes"/>
      <point x="611" y="-45"/>
      <point x="588" y="-13"/>
      <point x="544" y="57" type="curve"/>
      <point x="544" y="57" type="line"/>
      <point x="593" y="91"/>
      <point x="616" y="110"/>
      <point x="641" y="160" type="curve"/>
      <point x="653" y="190"/>
      <point x="673" y="242"/>
      <point x="673" y="274" type="curve" smooth="yes"/>
      <point x="673" y="412"/>
      <point x="645" y="494"/>
      <point x="559" y="571" type="curve" smooth="yes"/>
      <point x="511" y="615"/>
      <point x="434" y="636"/>
      <point x="347" y="636" type="curve" smooth="yes"/>
    </contour>
    <contour>
      <point x="154" y="407"/>
      <point x="226" y="541"/>
      <point x="355" y="541" type="curve" smooth="yes"/>
      <point x="406" y="541"/>
      <point x="457" y="528"/>
      <point x="490" y="501" type="curve" smooth="yes"/>
      <point x="550" y="452"/>
      <point x="568" y="403"/>
      <point x="568" y="300" type="curve" smooth="yes"/>
      <point x="568" y="229"/>
      <point x="542" y="175"/>
      <point x="497" y="139" type="curve"/>
      <point x="471" y="176"/>
      <point x="432" y="244"/>
      <point x="328" y="244" type="curve" smooth="yes"/>
      <point x="270" y="244"/>
      <point x="223" y="220"/>
      <point x="199" y="168" type="curve"/>
      <point x="171" y="200"/>
      <point x="154" y="236"/>
      <point x="154" y="287" type="curve" smooth="yes"/>
    </contour>
    <contour>
      <point x="373" y="168"/>
      <point x="396" y="139"/>
      <point x="418" y="100" type="curve"/>
      <point x="397" y="94"/>
      <point x="373" y="89"/>
      <point x="347" y="89" type="curve" smooth="yes"/>
      <point x="319" y="89"/>
      <point x="300" y="94"/>
      <point x="274" y="104" type="curve"/>
      <point x="261" y="114" type="line"/>
      <point x="274" y="160"/>
      <point x="317" y="168"/>
      <point x="346" y="168" type="curve" smooth="yes"/>
    </contour>
  </outline>
</glyph>
<glyph name="Z" format="1">
  <advance width="569"/>
  <unicode hex="005A"/>
  <outline>
    <contour>
      <point x="136" y="14"/>
      <point x="170" y="13"/>
      <point x="205" y="13" type="curve" smooth="yes"/>
      <point x="256" y="13"/>
      <point x="299" y="16"/>
      <point x="349" y="16" type="curve" smooth="yes"/>
      <point x="401" y="16"/>
      <point x="490" y="2"/>
      <point x="508" y="2" type="curve" smooth="yes"/>
      <point x="539" y="2"/>
      <point x="555" y="19"/>
      <point x="555" y="35" type="curve" smooth="yes"/>
      <point x="555" y="49"/>
      <point x="545" y="83"/>
      <point x="535" y="89" type="curve"/>
      <point x="499" y="113"/>
      <point x="405" y="114"/>
      <point x="384" y="114" type="curve" smooth="yes"/>
      <point x="310" y="114"/>
      <point x="231" y="106"/>
      <point x="157" y="103" type="curve"/>
      <point x="157" y="103"/>
      <point x="257" y="211"/>
      <point x="347" y="317" type="curve" smooth="yes"/>
      <point x="422" y="403"/>
      <point x="491" y="494"/>
      <point x="507" y="522" type="curve" smooth="yes"/>
      <point x="514" y="534"/>
      <point x="520" y="553"/>
      <point x="520" y="569" type="curve" smooth="yes"/>
      <point x="520" y="578"/>
      <point x="508" y="608"/>
      <point x="489" y="614" type="curve"/>
      <point x="441" y="626"/>
      <point x="357" y="627"/>
      <point x="310" y="627" type="curve" smooth="yes"/>
      <point x="249" y="627"/>
      <point x="138" y="618"/>
      <point x="94" y="613" type="curve" smooth="yes"/>
      <point x="73" y="610"/>
      <point x="58" y="587"/>
      <point x="58" y="571" type="curve" smooth="yes"/>
      <point x="58" y="545"/>
      <point x="56" y="518"/>
      <point x="139" y="518" type="curve" smooth="yes"/>
      <point x="180" y="518"/>
      <point x="220" y="528"/>
      <point x="265" y="528" type="curve" smooth="yes"/>
      <point x="309" y="528"/>
      <point x="332" y="526"/>
      <point x="393" y="523" type="curve"/>
      <point x="393" y="523"/>
      <point x="120" y="216"/>
      <point x="44" y="124" type="curve" smooth="yes"/>
      <point x="38" y="117"/>
      <point x="29" y="93"/>
      <point x="29" y="76" type="curve" smooth="yes"/>
      <point x="29" y="60"/>
      <point x="36" y="24"/>
      <point x="103" y="18" type="curve" smooth="yes"/>
    </contour>
  </outline>
</glyph>
<glyph name="bracketleft" format="1">
  <advance width="301"/>
  <unicode hex="005B"/>
  <outline>
    <contour>
      <point x="126" y="-221"/>
      <point x="142" y="-216"/>
      <point x="159" y="-216" type="curve" smooth="yes"/>
      <point x="179" y="-216"/>
      <point x="200" y="-218"/>
      <point x="218" y="-218" type="curve" smooth="yes"/>
      <point x="249" y="-218"/>
      <point x="275" y="-212"/>
      <point x="279" y="-185" type="curve"/>
      <point x="279" y="-121"/>
      <point x="218" y="-145"/>
      <point x="174" y="-139" type="curve"/>
      <point x="174" y="-87"/>
      <point x="179" y="102"/>
      <point x="179" y="215" type="curve" smooth="yes"/>
      <point x="179" y="326"/>
      <point x="174" y="449"/>
      <point x="166" y="567" type="curve"/>
      <point x="213" y="567"/>
      <point x="275" y="565"/>
      <point x="275" y="615" type="curve" smooth="yes"/>
      <point x="275" y="643"/>
      <point x="243" y="660"/>
      <point x="159" y="660" type="curve" smooth="yes"/>
      <point x="118" y="660"/>
      <point x="79" y="651"/>
      <point x="71" y="632" type="curve" smooth="yes"/>
      <point x="60" y="605"/>
      <point x="80" y="515"/>
      <point x="84" y="455" type="curve" smooth="yes"/>
      <point x="92" y="342"/>
      <point x="93" y="223"/>
      <point x="93" y="114" type="curve" smooth="yes"/>
      <point x="93" y="0"/>
      <point x="77" y="-89"/>
      <point x="77" y="-182" type="curve" smooth="yes"/>
      <point x="77" y="-199"/>
      <point x="81" y="-220"/>
      <point x="112" y="-221" type="curve" smooth="yes"/>
    </contour>
  </outline>
</glyph>
<glyph name="underscore" format="1">
  <advance width="414"/>
  <unicode hex="005F"/>
  <outline>
    <contour>
      <point x="83" y="-38" type="line" smooth="yes"/>
      <point x="30" y="-38"/>
      <point x="4" y="-42"/>
      <point x="4" y="-65" type="curve" smooth="yes"/>
      <point x="4" y="-115"/>
      <point x="36" y="-111"/>
      <point x="89" y="-111" type="curve" smooth="yes"/>
      <point x="143" y="-111"/>
      <point x="294" y="-114"/>
      <point x="319" y="-114" type="curve" smooth="yes"/>
      <point x="344" y="-114"/>
      <point x="409" y="-108"/>
      <point x="409" y="-83" type="curve" smooth="yes"/>
      <point x="409" y="-48"/>
      <point x="394" y="-38"/>
      <point x="354" y="-38" type="curve" smooth="yes"/>
    </contour>
  </outline>
</glyph>
<glyph name="grave" format="1">
  <advance width="517"/>
  <unicode hex="0060"/>
  <outline>
    <contour>
      <point x="190" y="693"/>
      <point x="171" y="680"/>
      <point x="171" y="661" type="curve" smooth="yes"/>
      <point x="171" y="619"/>
      <point x="227" y="581"/>
      <point x="250" y="567" type="curve" smooth="yes"/>
      <point x="273" y="553"/>
      <point x="312" y="546"/>
      <point x="325" y="546" type="curve" smooth="yes"/>
      <point x="339" y="546"/>
      <point x="346" y="555"/>
      <point x="346" y="566" type="curve" smooth="yes"/>
      <point x="346" y="575"/>
      <point x="339" y="580"/>
      <point x="325" y="592" type="curve"/>
      <point x="311" y="605"/>
      <point x="298" y="611"/>
      <point x="279" y="650" type="curve" smooth="yes"/>
      <point x="264" y="683"/>
      <point x="245" y="693"/>
      <point x="218" y="693" type="curve" smooth="yes"/>
    </contour>
  </outline>
</glyph>
<glyph name="h" format="1">
  <advance width="538"/>
  <unicode hex="0068"/>
  <outline>
    <contour>
      <point x="174" y="662"/>
      <point x="161" y="675"/>
      <point x="132" y="675" type="curve" smooth="yes"/>
      <point x="99" y="675"/>
      <point x="67" y="650"/>
      <point x="67" y="620" type="curve" smooth="yes"/>
      <point x="69" y="538"/>
      <point x="75" y="373"/>
      <point x="75" y="291" type="curve" smooth="yes"/>
      <point x="75" y="208"/>
      <point x="75" y="115"/>
      <point x="68" y="40" type="curve"/>
      <point x="68" y="18"/>
      <point x="96" y="-4"/>
      <point x="126" y="-4" type="curve" smooth="yes"/>
      <point x="140" y="-4"/>
      <point x="175" y="6"/>
      <point x="175" y="39" type="curve" smooth="yes"/>
      <point x="175" y="77"/>
      <point x="174" y="98"/>
      <point x="174" y="143" type="curve" smooth="yes"/>
      <point x="174" y="246"/>
      <point x="237" y="343"/>
      <point x="292" y="343" type="curve" smooth="yes"/>
      <point x="319" y="343"/>
      <point x="341" y="326"/>
      <point x="341" y="271" type="curve" smooth="yes"/>
      <point x="341" y="207"/>
      <point x="341" y="107"/>
      <point x="364" y="55" type="curve" smooth="yes"/>
      <point x="382" y="15"/>
      <point x="414" y="-5"/>
      <point x="463" y="-5" type="curve" smooth="yes"/>
      <point x="480" y="-5"/>
      <point x="531" y="6"/>
      <point x="531" y="43" type="curve" smooth="yes"/>
      <point x="531" y="60"/>
      <point x="525" y="70"/>
      <point x="506" y="70" type="curve" smooth="yes"/>
      <point x="498" y="70"/>
      <point x="493" y="68"/>
      <point x="481" y="68" type="curve" smooth="yes"/>
      <point x="454" y="68"/>
      <point x="444" y="105"/>
      <point x="442" y="128" type="curve" smooth="yes"/>
      <point x="440" y="157"/>
      <point x="438" y="189"/>
      <point x="438" y="222" type="curve" smooth="yes"/>
      <point x="438" y="254"/>
      <point x="437" y="291"/>
      <point x="435" y="317" type="curve"/>
      <point x="423" y="374"/>
      <point x="376" y="427"/>
      <point x="325" y="427" type="curve" smooth="yes"/>
      <point x="255" y="427"/>
      <point x="211" y="398"/>
      <point x="171" y="340" type="curve"/>
      <point x="169" y="367"/>
      <point x="168" y="396"/>
      <point x="168" y="419" type="curve" smooth="yes"/>
      <point x="168" y="489"/>
      <point x="174" y="557"/>
      <point x="174" y="634" type="curve" smooth="yes"/>
    </contour>
  </outline>
</glyph>
<glyph name="i" format="1">
  <advance width="256"/>
  <unicode hex="0069"/>
  <outline>
    <contour>
      <point x="184" y="414"/>
      <point x="173" y="433"/>
      <point x="132" y="433" type="curve" smooth="yes"/>
      <point x="108" y="433"/>
      <point x="76" y="415"/>
      <point x="76" y="389" type="curve" smooth="yes"/>
      <point x="76" y="347"/>
      <point x="78" y="308"/>
      <point x="80" y="263" type="curve" smooth="yes"/>
      <point x="83" y="202"/>
      <point x="85" y="131"/>
      <point x="85" y="79" type="curve" smooth="yes"/>
      <point x="85" y="58"/>
      <point x="88" y="38"/>
      <point x="91" y="22" type="curve"/>
      <point x="97" y="6"/>
      <point x="130" y="-4"/>
      <point x="153" y="-4" type="curve" smooth="yes"/>
      <point x="167" y="-4"/>
      <point x="192" y="13"/>
      <point x="193" y="27" type="curve"/>
      <point x="188" y="76"/>
      <point x="184" y="112"/>
      <point x="184" y="170" type="curve" smooth="yes"/>
      <point x="184" y="199" type="line" smooth="yes"/>
      <point x="184" y="209"/>
      <point x="184" y="317"/>
      <point x="184" y="379" type="curve" smooth="yes"/>
    </contour>
    <contour>
      <point x="67" y="643"/>
      <point x="67" y="597"/>
      <point x="67" y="573" type="curve" smooth="yes"/>
      <point x="67" y="559"/>
      <point x="74" y="527"/>
      <point x="118" y="527" type="curve" smooth="yes"/>
      <point x="157" y="527"/>
      <point x="191" y="546"/>
      <point x="191" y="577" type="curve" smooth="yes"/>
      <point x="191" y="623"/>
      <point x="143" y="639"/>
      <point x="104" y="642" type="curve"/>
    </contour>
  </outline>
</glyph>
<glyph name="o" format="1">
  <advance width="512"/>
  <unicode hex="006F"/>
  <outline>
    <contour>
      <point x="404" y="400"/>
      <point x="341" y="433"/>
      <point x="248" y="433" type="curve" smooth="yes"/>
      <point x="202" y="433"/>
      <point x="131" y="409"/>
      <point x="107" y="377" type="curve"/>
      <point x="73" y="335"/>
      <point x="45" y="269"/>
      <point x="45" y="214" type="curve" smooth="yes"/>
      <point x="45" y="192"/>
      <point x="66" y="124"/>
      <point x="72" y="105" type="curve"/>
      <point x="98" y="49"/>
      <point x="178" y="-4"/>
      <point x="246" y="-4" type="curve" smooth="yes"/>
      <point x="349" y="-4"/>
      <point x="411" y="51"/>
      <point x="450" y="122" type="curve"/>
      <point x="454" y="139"/>
      <point x="467" y="192"/>
      <point x="467" y="233" type="curve" smooth="yes"/>
      <point x="467" y="260"/>
      <point x="460" y="301"/>
      <point x="449" y="321" type="curve" smooth="yes"/>
    </contour>
    <contour>
      <point x="344" y="119"/>
      <point x="313" y="81"/>
      <point x="247" y="81" type="curve" smooth="yes"/>
      <point x="203" y="81"/>
      <point x="167" y="121"/>
      <point x="162" y="132" type="curve"/>
      <point x="157" y="142"/>
      <point x="147" y="192"/>
      <point x="147" y="205" type="curve" smooth="yes"/>
      <point x="147" y="267"/>
      <point x="172" y="352"/>
      <point x="255" y="352" type="curve" smooth="yes"/>
      <point x="299" y="352"/>
      <point x="326" y="332"/>
      <point x="326" y="332" type="curve"/>
      <point x="353" y="305"/>
      <point x="367" y="265"/>
      <point x="367" y="227" type="curve" smooth="yes"/>
      <point x="367" y="192"/>
      <point x="365" y="168"/>
      <point x="362" y="160" type="curve"/>
    </contour>
  </outline>
</glyph>
<glyph name="p" format="1">
  <advance width="529"/>
  <unicode hex="0070"/>
  <outline>
    <contour>
      <point x="100" y="348"/>
      <point x="106" y="306"/>
      <point x="106" y="290" type="curve" smooth="yes"/>
      <point x="106" y="169"/>
      <point x="105" y="87"/>
      <point x="100" y="12" type="curve" smooth="yes"/>
      <point x="96" y="-38"/>
      <point x="93" y="-85"/>
      <point x="90" y="-147" type="curve"/>
      <point x="90" y="-188"/>
      <point x="97" y="-222"/>
      <point x="149" y="-222" type="curve" smooth="yes"/>
      <point x="168" y="-222"/>
      <point x="197" y="-212"/>
      <point x="197" y="-179" type="curve" smooth="yes"/>
      <point x="197" y="-147"/>
      <point x="192" y="-115"/>
      <point x="192" y="-76" type="curve" smooth="yes"/>
      <point x="192" y="-42"/>
      <point x="195" y="3"/>
      <point x="199" y="42" type="curve"/>
      <point x="217" y="30"/>
      <point x="253" y="15"/>
      <point x="276" y="15" type="curve" smooth="yes"/>
      <point x="362" y="15"/>
      <point x="418" y="54"/>
      <point x="449" y="97" type="curve"/>
      <point x="480" y="144"/>
      <point x="490" y="185"/>
      <point x="490" y="241" type="curve" smooth="yes"/>
      <point x="490" y="329"/>
      <point x="415" y="432"/>
      <point x="319" y="432" type="curve" smooth="yes"/>
      <point x="270" y="432"/>
      <point x="213" y="417"/>
      <point x="176" y="373" type="curve"/>
      <point x="160" y="405"/>
      <point x="122" y="428"/>
      <point x="92" y="428" type="curve" smooth="yes"/>
      <point x="62" y="428"/>
      <point x="13" y="411"/>
      <point x="13" y="373" type="curve" smooth="yes"/>
      <point x="13" y="364"/>
      <point x="27" y="345"/>
      <point x="43" y="345" type="curve" smooth="yes"/>
      <point x="54" y="345"/>
      <point x="64" y="348"/>
      <point x="76" y="348" type="curve" smooth="yes"/>
    </contour>
    <contour>
      <point x="203" y="150"/>
      <point x="202" y="215"/>
      <point x="208" y="255" type="curve" smooth="yes"/>
      <point x="217" y="310"/>
      <point x="251" y="346"/>
      <point x="307" y="346" type="curve" smooth="yes"/>
      <point x="340" y="346"/>
      <point x="393" y="315"/>
      <point x="393" y="238" type="curve" smooth="yes"/>
      <point x="393" y="177"/>
      <point x="387" y="157"/>
      <point x="359" y="128" type="curve"/>
      <point x="342" y="109"/>
      <point x="314" y="97"/>
      <point x="274" y="97" type="curve" smooth="yes"/>
      <point x="253" y="97"/>
      <point x="211" y="113"/>
      <point x="203" y="141" type="curve"/>
    </contour>
  </outline>
</glyph>
<glyph name="r" format="1">
  <advance width="397"/>
  <unicode hex="0072"/>
  <outline>
    <contour>
      <point x="201" y="72"/>
      <point x="196" y="106"/>
      <point x="195" y="145" type="curve"/>
      <point x="195" y="188"/>
      <point x="197" y="208"/>
      <point x="197" y="229" type="curve" smooth="yes"/>
      <point x="197" y="263"/>
      <point x="210" y="288"/>
      <point x="228" y="317" type="curve"/>
      <point x="234" y="325"/>
      <point x="254" y="334"/>
      <point x="277" y="334" type="curve" smooth="yes"/>
      <point x="305" y="334"/>
      <point x="314" y="297"/>
      <point x="341" y="297" type="curve" smooth="yes"/>
      <point x="364" y="297"/>
      <point x="391" y="331"/>
      <point x="391" y="356" type="curve" smooth="yes"/>
      <point x="391" y="404"/>
      <point x="338" y="430"/>
      <point x="293" y="430" type="curve" smooth="yes"/>
      <point x="251" y="430"/>
      <point x="203" y="401"/>
      <point x="169" y="363" type="curve"/>
      <point x="157" y="400"/>
      <point x="135" y="427"/>
      <point x="94" y="427" type="curve" smooth="yes"/>
      <point x="62" y="427"/>
      <point x="31" y="413"/>
      <point x="31" y="380" type="curve" smooth="yes"/>
      <point x="31" y="370"/>
      <point x="39" y="354"/>
      <point x="52" y="354" type="curve" smooth="yes"/>
      <point x="78" y="354"/>
      <point x="94" y="334"/>
      <point x="98" y="310" type="curve"/>
      <point x="98" y="285"/>
      <point x="94" y="261"/>
      <point x="94" y="232" type="curve" smooth="yes"/>
      <point x="94" y="207"/>
      <point x="95" y="173"/>
      <point x="96" y="148" type="curve" smooth="yes"/>
      <point x="97" y="118"/>
      <point x="98" y="85"/>
      <point x="98" y="51" type="curve" smooth="yes"/>
      <point x="98" y="8"/>
      <point x="118" y="-3"/>
      <point x="156" y="-3" type="curve" smooth="yes"/>
      <point x="183" y="-3"/>
      <point x="201" y="19"/>
      <point x="201" y="40" type="curve" smooth="yes"/>
    </contour>
  </outline>
</glyph>
<glyph name="braceleft" format="1">
  <advance width="347"/>
  <unicode hex="007B"/>
  <outline>
    <contour>
      <point x="238" y="581"/>
      <point x="255" y="580"/>
      <point x="270" y="580" type="curve" smooth="yes"/>
      <point x="296" y="580"/>
      <point x="323" y="576"/>
      <point x="323" y="625" type="curve" smooth="yes"/>
      <point x="323" y="649"/>
      <point x="279" y="659"/>
      <point x="241" y="659" type="curve" smooth="yes"/>
      <point x="222" y="659"/>
      <point x="206" y="656"/>
      <point x="196" y="652" type="curve" smooth="yes"/>
      <point x="125" y="624"/>
      <point x="121" y="529"/>
      <point x="121" y="448" type="curve" smooth="yes"/>
      <point x="121" y="437"/>
      <point x="121" y="427"/>
      <point x="121" y="417" type="curve" smooth="yes"/>
      <point x="121" y="361"/>
      <point x="120" y="319"/>
      <point x="94" y="296" type="curve" smooth="yes"/>
      <point x="74" y="278"/>
      <point x="48" y="274"/>
      <point x="32" y="252" type="curve"/>
      <point x="7" y="192"/>
      <point x="78" y="191"/>
      <point x="95" y="155" type="curve" smooth="yes"/>
      <point x="105" y="134"/>
      <point x="107" y="89"/>
      <point x="107" y="60" type="curve" smooth="yes"/>
      <point x="107" y="28"/>
      <point x="104" y="-8"/>
      <point x="104" y="-40" type="curve" smooth="yes"/>
      <point x="104" y="-57"/>
      <point x="105" y="-72"/>
      <point x="108" y="-86" type="curve" smooth="yes"/>
      <point x="121" y="-154"/>
      <point x="184" y="-217"/>
      <point x="257" y="-217" type="curve" smooth="yes"/>
      <point x="297" y="-217"/>
      <point x="332" y="-203"/>
      <point x="332" y="-170" type="curve" smooth="yes"/>
      <point x="332" y="-128"/>
      <point x="272" y="-158"/>
      <point x="233" y="-128" type="curve" smooth="yes"/>
      <point x="194" y="-98"/>
      <point x="194" y="-23"/>
      <point x="193" y="50" type="curve" smooth="yes"/>
      <point x="192" y="117"/>
      <point x="189" y="201"/>
      <point x="157" y="229" type="curve"/>
      <point x="210" y="289"/>
      <point x="214" y="336"/>
      <point x="214" y="395" type="curve" smooth="yes"/>
      <point x="214" y="408"/>
      <point x="214" y="421"/>
      <point x="214" y="434" type="curve" smooth="yes"/>
      <point x="214" y="472"/>
      <point x="209" y="524"/>
      <point x="230" y="566" type="curve" smooth="yes"/>
    </contour>
  </outline>
</glyph>
<glyph name="sterling" format="1">
  <advance width="535"/>
  <unicode hex="00A3"/>
  <outline>
    <contour>
      <point x="450" y="125"/>
      <point x="439" y="116"/>
      <point x="433" y="110" type="curve"/>
      <point x="426" y="104"/>
      <point x="405" y="85"/>
      <point x="384" y="85" type="curve" smooth="yes"/>
      <point x="339" y="85"/>
      <point x="311" y="121"/>
      <point x="282" y="136" type="curve"/>
      <point x="296" y="168"/>
      <point x="303" y="200"/>
      <point x="303" y="235" type="curve" smooth="yes"/>
      <point x="303" y="249"/>
      <point x="300" y="264"/>
      <point x="294" y="278" type="curve"/>
      <point x="345" y="278" type="line" smooth="yes"/>
      <point x="369" y="278"/>
      <point x="434" y="283"/>
      <point x="434" y="310" type="curve" smooth="yes"/>
      <point x="434" y="344"/>
      <point x="418" y="353"/>
      <point x="379" y="353" type="curve" smooth="yes"/>
      <point x="253" y="353" type="line"/>
      <point x="227" y="391"/>
      <point x="201" y="425"/>
      <point x="201" y="453" type="curve" smooth="yes"/>
      <point x="201" y="490"/>
      <point x="204" y="507"/>
      <point x="227" y="523" type="curve" smooth="yes"/>
      <point x="251" y="540"/>
      <point x="274" y="542"/>
      <point x="294" y="542" type="curve" smooth="yes"/>
      <point x="341" y="542"/>
      <point x="348" y="528"/>
      <point x="373" y="486" type="curve" smooth="yes"/>
      <point x="381" y="473"/>
      <point x="394" y="461"/>
      <point x="418" y="461" type="curve" smooth="yes"/>
      <point x="442" y="461"/>
      <point x="463" y="479"/>
      <point x="463" y="503" type="curve" smooth="yes"/>
      <point x="463" y="556"/>
      <point x="390" y="629"/>
      <point x="295" y="629" type="curve" smooth="yes"/>
      <point x="193" y="629"/>
      <point x="102" y="555"/>
      <point x="102" y="468" type="curve" smooth="yes"/>
      <point x="102" y="432"/>
      <point x="121" y="391"/>
      <point x="145" y="353" type="curve"/>
      <point x="130" y="353" type="line" smooth="yes"/>
      <point x="78" y="353"/>
      <point x="53" y="349"/>
      <point x="53" y="326" type="curve" smooth="yes"/>
      <point x="53" y="277"/>
      <point x="84" y="281"/>
      <point x="137" y="281" type="curve" smooth="yes"/>
      <point x="150" y="281"/>
      <point x="170" y="281"/>
      <point x="192" y="280" type="curve"/>
      <point x="201" y="265"/>
      <point x="208" y="253"/>
      <point x="208" y="246" type="curve" smooth="yes"/>
      <point x="208" y="230"/>
      <point x="203" y="211"/>
      <point x="195" y="191" type="curve"/>
      <point x="181" y="197"/>
      <point x="166" y="200"/>
      <point x="153" y="200" type="curve"/>
      <point x="125" y="199"/>
      <point x="99" y="188"/>
      <point x="79" y="175" type="curve"/>
      <point x="57" y="157"/>
      <point x="27" y="138"/>
      <point x="27" y="79" type="curve" smooth="yes"/>
      <point x="27" y="37"/>
      <point x="77" y="-2"/>
      <point x="115" y="-2" type="curve" smooth="yes"/>
      <point x="181" y="-2"/>
      <point x="209" y="20"/>
      <point x="243" y="61" type="curve"/>
      <point x="274" y="29"/>
      <point x="321" y="0"/>
      <point x="367" y="0" type="curve" smooth="yes"/>
      <point x="446" y="0"/>
      <point x="499" y="33"/>
      <point x="499" y="80" type="curve" smooth="yes"/>
      <point x="499" y="101"/>
      <point x="473" y="125"/>
      <point x="462" y="125" type="curve" smooth="yes"/>
    </contour>
    <contour>
      <point x="179" y="94" type="line"/>
      <point x="162" y="76"/>
      <point x="145" y="65"/>
      <point x="128" y="65" type="curve" smooth="yes"/>
      <point x="111" y="65"/>
      <point x="103" y="79"/>
      <point x="103" y="94" type="curve" smooth="yes"/>
      <point x="103" y="107"/>
      <point x="118" y="130"/>
      <point x="141" y="130" type="curve" smooth="yes"/>
      <point x="164" y="130"/>
      <point x="188" y="107"/>
      <point x="188" y="107" type="curve"/>
    </contour>
  </outline>
</glyph>
<glyph name="currency" format="1">
  <advance width="567"/>
  <unicode hex="00A4"/>
  <outline>
    <contour>
      <point x="531" y="536"/>
      <point x="503" y="553"/>
      <point x="479" y="553" type="curve" smooth="yes"/>
      <point x="463" y="553"/>
      <point x="446" y="525"/>
      <point x="428" y="506" type="curve"/>
      <point x="415" y="490"/>
      <point x="409" y="470"/>
      <point x="391" y="461" type="curve"/>
      <point x="351" y="488"/>
      <point x="319" y="503"/>
      <point x="278" y="503" type="curve" smooth="yes"/>
      <point x="250" y="503"/>
      <point x="212" y="496"/>
      <point x="191" y="483" type="curve"/>
      <point x="182" y="488"/>
      <point x="152" y="529"/>
      <point x="128" y="544" type="curve" smooth="yes"/>
      <point x="118" y="550"/>
      <point x="109" y="556"/>
      <point x="98" y="556" type="curve" smooth="yes"/>
      <point x="68" y="556"/>
      <point x="45" y="547"/>
      <point x="45" y="520" type="curve" smooth="yes"/>
      <point x="45" y="496"/>
      <point x="63" y="490"/>
      <point x="77" y="472" type="curve" smooth="yes"/>
      <point x="90" y="456"/>
      <point x="109" y="443"/>
      <point x="121" y="428" type="curve"/>
      <point x="94" y="400"/>
      <point x="80" y="356"/>
      <point x="80" y="312" type="curve" smooth="yes"/>
      <point x="80" y="277"/>
      <point x="89" y="241"/>
      <point x="110" y="215" type="curve"/>
      <point x="103" y="199"/>
      <point x="85" y="181"/>
      <point x="74" y="169" type="curve" smooth="yes"/>
      <point x="56" y="150"/>
      <point x="36" y="124"/>
      <point x="36" y="111" type="curve" smooth="yes"/>
      <point x="36" y="89"/>
      <point x="64" y="74"/>
      <point x="76" y="74" type="curve" smooth="yes"/>
      <point x="103" y="74"/>
      <point x="121" y="97"/>
      <point x="140" y="119" type="curve" smooth="yes"/>
      <point x="149" y="130"/>
      <point x="159" y="141"/>
      <point x="169" y="149" type="curve"/>
      <point x="211" y="127"/>
      <point x="238" y="123"/>
      <point x="277" y="123" type="curve" smooth="yes"/>
      <point x="307" y="123"/>
      <point x="339" y="139"/>
      <point x="363" y="154" type="curve"/>
      <point x="367" y="151"/>
      <point x="378" y="139"/>
      <point x="383" y="136" type="curve"/>
      <point x="401" y="122"/>
      <point x="432" y="84"/>
      <point x="458" y="84" type="curve" smooth="yes"/>
      <point x="488" y="84"/>
      <point x="501" y="107"/>
      <point x="501" y="127" type="curve" smooth="yes"/>
      <point x="501" y="152"/>
      <point x="485" y="165"/>
      <point x="471" y="176" type="curve" smooth="yes"/>
      <point x="459" y="186"/>
      <point x="443" y="204"/>
      <point x="427" y="217" type="curve"/>
      <point x="450" y="241"/>
      <point x="466" y="284"/>
      <point x="466" y="326" type="curve" smooth="yes"/>
      <point x="466" y="353"/>
      <point x="462" y="379"/>
      <point x="450" y="398" type="curve"/>
      <point x="487" y="434"/>
      <point x="531" y="483"/>
      <point x="531" y="514" type="curve" smooth="yes"/>
    </contour>
    <contour>
      <point x="374" y="280"/>
      <point x="363" y="256"/>
      <point x="350" y="241" type="curve" smooth="yes"/>
      <point x="330" y="218"/>
      <point x="302" y="202"/>
      <point x="274" y="202" type="curve" smooth="yes"/>
      <point x="208" y="202"/>
      <point x="166" y="265"/>
      <point x="166" y="321" type="curve" smooth="yes"/>
      <point x="166" y="364"/>
      <point x="211" y="417"/>
      <point x="265" y="417" type="curve" smooth="yes"/>
      <point x="318" y="417"/>
      <point x="374" y="371"/>
      <point x="374" y="318" type="curve" smooth="yes"/>
    </contour>
  </outline>
</glyph>
<glyph name="yen" format="1">
  <advance width="560"/>
  <unicode hex="00A5"/>
  <outline>
    <contour>
      <point x="350" y="297" type="line"/>
      <point x="414" y="384"/>
      <point x="485" y="492"/>
      <point x="520" y="534" type="curve" smooth="yes"/>
      <point x="535" y="551"/>
      <point x="551" y="572"/>
      <point x="551" y="587" type="curve" smooth="yes"/>
      <point x="551" y="620"/>
      <point x="514" y="631"/>
      <point x="495" y="631" type="curve" smooth="yes"/>
      <point x="465" y="631"/>
      <point x="446" y="619"/>
      <point x="436" y="605" type="curve"/>
      <point x="419" y="579" type="line" smooth="yes"/>
      <point x="377" y="515"/>
      <point x="346" y="446"/>
      <point x="283" y="382" type="curve"/>
      <point x="274" y="394"/>
      <point x="253" y="425"/>
      <point x="234" y="449" type="curve" smooth="yes"/>
      <point x="194" y="499"/>
      <point x="149" y="565"/>
      <point x="129" y="595" type="curve" smooth="yes"/>
      <point x="116" y="614"/>
      <point x="94" y="622"/>
      <point x="78" y="622" type="curve" smooth="yes"/>
      <point x="50" y="622"/>
      <point x="16" y="606"/>
      <point x="16" y="576" type="curve" smooth="yes"/>
      <point x="16" y="557"/>
      <point x="49" y="507"/>
      <point x="110" y="446" type="curve" smooth="yes"/>
      <point x="143" y="412"/>
      <point x="193" y="337"/>
      <point x="216" y="297" type="curve"/>
      <point x="175" y="297" type="line" smooth="yes"/>
      <point x="123" y="297"/>
      <point x="98" y="293"/>
      <point x="98" y="274" type="curve" smooth="yes"/>
      <point x="98" y="234"/>
      <point x="129" y="238"/>
      <point x="182" y="238" type="curve" smooth="yes"/>
      <point x="195" y="238"/>
      <point x="214" y="238"/>
      <point x="235" y="237" type="curve"/>
      <point x="236" y="219"/>
      <point x="236" y="202"/>
      <point x="236" y="188" type="curve"/>
      <point x="175" y="188" type="line" smooth="yes"/>
      <point x="123" y="188"/>
      <point x="98" y="185"/>
      <point x="98" y="166" type="curve" smooth="yes"/>
      <point x="98" y="125"/>
      <point x="129" y="130"/>
      <point x="182" y="130" type="curve" smooth="yes"/>
      <point x="195" y="130"/>
      <point x="215" y="130"/>
      <point x="237" y="129" type="curve"/>
      <point x="236" y="84"/>
      <point x="235" y="60"/>
      <point x="235" y="43" type="curve" smooth="yes"/>
      <point x="235" y="18"/>
      <point x="267" y="0"/>
      <point x="293" y="0" type="curve" smooth="yes"/>
      <point x="329" y="0"/>
      <point x="345" y="11"/>
      <point x="345" y="56" type="curve" smooth="yes"/>
      <point x="345" y="66"/>
      <point x="344" y="79"/>
      <point x="341" y="99" type="curve"/>
      <point x="338" y="127" type="line"/>
      <point x="363" y="126"/>
      <point x="382" y="126"/>
      <point x="390" y="126" type="curve" smooth="yes"/>
      <point x="414" y="126"/>
      <point x="478" y="130"/>
      <point x="478" y="152" type="curve" smooth="yes"/>
      <point x="478" y="181"/>
      <point x="463" y="188"/>
      <point x="424" y="188" type="curve" smooth="yes"/>
      <point x="337" y="188" type="line"/>
      <point x="336" y="202"/>
      <point x="336" y="218"/>
      <point x="336" y="235" type="curve"/>
      <point x="361" y="234"/>
      <point x="382" y="234"/>
      <point x="390" y="234" type="curve" smooth="yes"/>
      <point x="414" y="234"/>
      <point x="478" y="239"/>
      <point x="478" y="260" type="curve" smooth="yes"/>
      <point x="478" y="289"/>
      <point x="463" y="297"/>
      <point x="424" y="297" type="curve" smooth="yes"/>
    </contour>
  </outline>
</glyph>
<glyph name="section" format="1">
  <advance width="520"/>
  <unicode hex="00A7"/>
  <outline>
    <contour>
      <point x="67" y="473"/>
      <point x="107" y="434"/>
      <point x="144" y="406" type="curve"/>
      <point x="99" y="377"/>
      <point x="58" y="323"/>
      <point x="58" y="268" type="curve" smooth="yes"/>
      <point x="58" y="193"/>
      <point x="104" y="152"/>
      <point x="151" y="128" type="curve" smooth="yes"/>
      <point x="188" y="108"/>
      <point x="234" y="88"/>
      <point x="255" y="82" type="curve" smooth="yes"/>
      <point x="302" y="67"/>
      <point x="358" y="27"/>
      <point x="358" y="-8" type="curve" smooth="yes"/>
      <point x="358" y="-43"/>
      <point x="303" y="-62"/>
      <point x="247" y="-62" type="curve" smooth="yes"/>
      <point x="212" y="-62"/>
      <point x="163" y="-43"/>
      <point x="147" y="8" type="curve"/>
      <point x="142" y="21"/>
      <point x="123" y="44"/>
      <point x="106" y="44" type="curve" smooth="yes"/>
      <point x="76" y="44"/>
      <point x="54" y="24"/>
      <point x="54" y="-9" type="curve" smooth="yes"/>
      <point x="54" y="-56"/>
      <point x="94" y="-93"/>
      <point x="123" y="-121" type="curve"/>
      <point x="139" y="-129"/>
      <point x="186" y="-159"/>
      <point x="239" y="-159" type="curve" smooth="yes"/>
      <point x="294" y="-159"/>
      <point x="333" y="-148"/>
      <point x="373" y="-128" type="curve" smooth="yes"/>
      <point x="419" y="-104"/>
      <point x="460" y="-74"/>
      <point x="460" y="-13" type="curve" smooth="yes"/>
      <point x="460" y="50"/>
      <point x="435" y="85"/>
      <point x="390" y="115" type="curve"/>
      <point x="430" y="143"/>
      <point x="466" y="190"/>
      <point x="466" y="246" type="curve" smooth="yes"/>
      <point x="466" y="327"/>
      <point x="440" y="356"/>
      <point x="384" y="393" type="curve"/>
      <point x="337" y="427"/>
      <point x="269" y="447"/>
      <point x="211" y="474" type="curve" smooth="yes"/>
      <point x="194" y="482"/>
      <point x="171" y="503"/>
      <point x="171" y="531" type="curve" smooth="yes"/>
      <point x="171" y="562"/>
      <point x="223" y="592"/>
      <point x="255" y="592" type="curve" smooth="yes"/>
      <point x="283" y="592"/>
      <point x="325" y="580"/>
      <point x="335" y="575" type="curve"/>
      <point x="357" y="568"/>
      <point x="364" y="529"/>
      <point x="390" y="529" type="curve" smooth="yes"/>
      <point x="401" y="529"/>
      <point x="413" y="530"/>
      <point x="427" y="537" type="curve" smooth="yes"/>
      <point x="437" y="542"/>
      <point x="446" y="558"/>
      <point x="446" y="575" type="curve" smooth="yes"/>
      <point x="446" y="616"/>
      <point x="412" y="638"/>
      <point x="378" y="659" type="curve"/>
      <point x="355" y="675"/>
      <point x="301" y="682"/>
      <point x="273" y="682" type="curve" smooth="yes"/>
      <point x="252" y="682"/>
      <point x="173" y="667"/>
      <point x="145" y="654" type="curve"/>
      <point x="108" y="635"/>
      <point x="67" y="580"/>
      <point x="67" y="534" type="curve" smooth="yes"/>
    </contour>
    <contour>
      <point x="372" y="211"/>
      <point x="336" y="175"/>
      <point x="302" y="162" type="curve"/>
      <point x="196" y="209" type="line" smooth="yes"/>
      <point x="179" y="217"/>
      <point x="157" y="234"/>
      <point x="157" y="281" type="curve" smooth="yes"/>
      <point x="157" y="314"/>
      <point x="206" y="349"/>
      <point x="242" y="359" type="curve"/>
      <point x="273" y="341"/>
      <point x="319" y="331"/>
      <point x="349" y="305" type="curve"/>
      <point x="355" y="301"/>
      <point x="372" y="278"/>
      <point x="372" y="247" type="curve" smooth="yes"/>
    </contour>
  </outline>
</glyph>
<glyph name="registered" format="1">
  <advance width="734"/>
  <unicode hex="00AE"/>
  <outline>
    <contour>
      <point x="682" y="422"/>
      <point x="639" y="499"/>
      <point x="628" y="519" type="curve" smooth="yes"/>
      <point x="617" y="540"/>
      <point x="561" y="584"/>
      <point x="538" y="597" type="curve"/>
      <point x="517" y="610"/>
      <point x="455" y="636"/>
      <point x="401" y="636" type="curve" smooth="yes"/>
      <point x="356" y="636"/>
      <point x="265" y="629"/>
      <point x="221" y="605" type="curve" smooth="yes"/>
      <point x="137" y="559"/>
      <point x="52" y="454"/>
      <point x="52" y="314" type="curve" smooth="yes"/>
      <point x="52" y="205"/>
      <point x="90" y="160"/>
      <point x="122" y="112" type="curve" smooth="yes"/>
      <point x="172" y="37"/>
      <point x="268" y="0"/>
      <point x="369" y="0" type="curve" smooth="yes"/>
      <point x="459" y="-1"/>
      <point x="527" y="37"/>
      <point x="602" y="101" type="curve" smooth="yes"/>
      <point x="658" y="148"/>
      <point x="682" y="254"/>
      <point x="682" y="333" type="curve" smooth="yes"/>
    </contour>
    <contour>
      <point x="170" y="490"/>
      <point x="239" y="566"/>
      <point x="416" y="566" type="curve" smooth="yes"/>
      <point x="500" y="566"/>
      <point x="603" y="467"/>
      <point x="603" y="354" type="curve" smooth="yes"/>
      <point x="603" y="157"/>
      <point x="517" y="73"/>
      <point x="344" y="73" type="curve" smooth="yes"/>
      <point x="225" y="73"/>
      <point x="129" y="172"/>
      <point x="129" y="303" type="curve" smooth="yes"/>
      <point x="129" y="330"/>
      <point x="132" y="359"/>
      <point x="140" y="389" type="curve" smooth="yes"/>
    </contour>
    <contour>
      <point x="477" y="215"/>
      <point x="451" y="245"/>
      <point x="427" y="285" type="curve"/>
      <point x="450" y="292"/>
      <point x="470" y="306"/>
      <point x="483" y="316" type="curve"/>
      <point x="500" y="331"/>
      <point x="512" y="355"/>
      <point x="512" y="378" type="curve" smooth="yes"/>
      <point x="512" y="448"/>
      <point x="450" y="490"/>
      <point x="346" y="490" type="curve" smooth="yes"/>
      <point x="316" y="490"/>
      <point x="292" y="488"/>
      <point x="261" y="482" type="curve" smooth="yes"/>
      <point x="251" y="480"/>
      <point x="238" y="470"/>
      <point x="238" y="454" type="curve" smooth="yes"/>
      <point x="238" y="426"/>
      <point x="243" y="400"/>
      <point x="243" y="373" type="curve" smooth="yes"/>
      <point x="243" y="354"/>
      <point x="242" y="335"/>
      <point x="240" y="314" type="curve" smooth="yes"/>
      <point x="238" y="292"/>
      <point x="237" y="269"/>
      <point x="237" y="246" type="curve" smooth="yes"/>
      <point x="237" y="212"/>
      <point x="238" y="181"/>
      <point x="250" y="157" type="curve"/>
      <point x="256" y="148"/>
      <point x="266" y="143"/>
      <point x="277" y="143" type="curve" smooth="yes"/>
      <point x="296" y="143"/>
      <point x="315" y="155"/>
      <point x="315" y="173" type="curve" smooth="yes"/>
      <point x="315" y="205"/>
      <point x="310" y="231"/>
      <point x="310" y="258" type="curve"/>
      <point x="328" y="260"/>
      <point x="346" y="262"/>
      <point x="361" y="266" type="curve"/>
      <point x="364" y="262"/>
      <point x="366" y="256"/>
      <point x="373" y="244" type="curve"/>
      <point x="389" y="214"/>
      <point x="409" y="177"/>
      <point x="436" y="158" type="curve"/>
      <point x="449" y="148"/>
      <point x="463" y="143"/>
      <point x="475" y="143" type="curve" smooth="yes"/>
      <point x="490" y="143"/>
      <point x="511" y="151"/>
      <point x="511" y="168" type="curve" smooth="yes"/>
      <point x="511" y="174"/>
      <point x="509" y="178"/>
      <point x="502" y="186" type="curve" smooth="yes"/>
    </contour>
    <contour>
      <point x="321" y="427"/>
      <point x="333" y="428"/>
      <point x="346" y="428" type="curve" smooth="yes"/>
      <point x="404" y="428"/>
      <point x="440" y="409"/>
      <point x="440" y="380" type="curve" smooth="yes"/>
      <point x="440" y="353"/>
      <point x="393" y="338"/>
      <point x="368" y="331" type="curve"/>
      <point x="346" y="326"/>
      <point x="326" y="323"/>
      <point x="310" y="323" type="curve"/>
      <point x="310" y="359"/>
      <point x="312" y="382"/>
      <point x="312" y="405" type="curve" smooth="yes"/>
      <point x="312" y="411"/>
      <point x="311" y="418"/>
      <point x="310" y="425" type="curve"/>
    </contour>
  </outline>
</glyph>
<glyph name="degree" format="1">
  <advance width="295"/>
  <unicode hex="00B0"/>
  <outline>
    <contour>
      <point x="264" y="568"/>
      <point x="245" y="598"/>
      <point x="211" y="624" type="curve"/>
      <point x="202" y="628"/>
      <point x="180" y="637"/>
      <point x="160" y="637" type="curve" smooth="yes"/>
      <point x="144" y="637"/>
      <point x="110" y="634"/>
      <point x="94" y="626" type="curve"/>
      <point x="63" y="608"/>
      <point x="31" y="572"/>
      <point x="31" y="521" type="curve" smooth="yes"/>
      <point x="31" y="481"/>
      <point x="45" y="469"/>
      <point x="58" y="451" type="curve"/>
      <point x="76" y="423"/>
      <point x="111" y="409"/>
      <point x="148" y="409" type="curve" smooth="yes"/>
      <point x="182" y="409"/>
      <point x="206" y="423"/>
      <point x="234" y="446" type="curve" smooth="yes"/>
      <point x="255" y="463"/>
      <point x="264" y="499"/>
      <point x="264" y="528" type="curve" smooth="yes"/>
    </contour>
    <contour>
      <point x="94" y="554"/>
      <point x="121" y="574"/>
      <point x="158" y="574" type="curve" smooth="yes"/>
      <point x="176" y="574"/>
      <point x="199" y="555"/>
      <point x="199" y="531" type="curve" smooth="yes"/>
      <point x="199" y="488"/>
      <point x="180" y="472"/>
      <point x="142" y="472" type="curve" smooth="yes"/>
      <point x="117" y="472"/>
      <point x="94" y="491"/>
      <point x="94" y="519" type="curve" smooth="yes"/>
    </contour>
  </outline>
</glyph>
<glyph name="threesuperior" format="1">
  <advance width="328"/>
  <unicode hex="00B3"/>
  <outline>
    <contour>
      <point x="239" y="537"/>
      <point x="268" y="571"/>
      <point x="268" y="600" type="curve" smooth="yes"/>
      <point x="268" y="624"/>
      <point x="247" y="636"/>
      <point x="204" y="636" type="curve" smooth="yes"/>
      <point x="196" y="636"/>
      <point x="189" y="635"/>
      <point x="181" y="635" type="curve" smooth="yes"/>
      <point x="149" y="635"/>
      <point x="120" y="638"/>
      <point x="90" y="638" type="curve" smooth="yes"/>
      <point x="83" y="638"/>
      <point x="75" y="637"/>
      <point x="67" y="634" type="curve" smooth="yes"/>
      <point x="50" y="628"/>
      <point x="50" y="611"/>
      <point x="50" y="601" type="curve" smooth="yes"/>
      <point x="50" y="580"/>
      <point x="76" y="570"/>
      <point x="103" y="570" type="curve" smooth="yes"/>
      <point x="128" y="570"/>
      <point x="150" y="572"/>
      <point x="175" y="572" type="curve"/>
      <point x="171" y="565"/>
      <point x="158" y="546"/>
      <point x="148" y="538" type="curve" smooth="yes"/>
      <point x="131" y="524"/>
      <point x="112" y="517"/>
      <point x="112" y="495" type="curve" smooth="yes"/>
      <point x="112" y="468"/>
      <point x="144" y="462"/>
      <point x="169" y="456" type="curve"/>
      <point x="179" y="454"/>
      <point x="189" y="452"/>
      <point x="195" y="449" type="curve"/>
      <point x="207" y="444"/>
      <point x="229" y="426"/>
      <point x="229" y="413" type="curve" smooth="yes"/>
      <point x="229" y="387"/>
      <point x="220" y="352"/>
      <point x="148" y="352" type="curve" smooth="yes"/>
      <point x="123" y="352"/>
      <point x="112" y="366"/>
      <point x="101" y="382" type="curve"/>
      <point x="90" y="395"/>
      <point x="78" y="411"/>
      <point x="54" y="411" type="curve" smooth="yes"/>
      <point x="34" y="411"/>
      <point x="20" y="396"/>
      <point x="20" y="378" type="curve" smooth="yes"/>
      <point x="20" y="358"/>
      <point x="33" y="340"/>
      <point x="45" y="329" type="curve" smooth="yes"/>
      <point x="69" y="306"/>
      <point x="101" y="283"/>
      <point x="148" y="283" type="curve" smooth="yes"/>
      <point x="215" y="283"/>
      <point x="269" y="310"/>
      <point x="292" y="355" type="curve"/>
      <point x="299" y="371"/>
      <point x="303" y="388"/>
      <point x="303" y="404" type="curve" smooth="yes"/>
      <point x="303" y="452"/>
      <point x="265" y="495"/>
      <point x="211" y="513" type="curve"/>
    </contour>
  </outline>
</glyph>
<glyph name="acute" format="1">
  <advance width="517"/>
  <unicode hex="00B4"/>
  <outline>
    <contour>
      <point x="272" y="693"/>
      <point x="253" y="683"/>
      <point x="238" y="650" type="curve" smooth="yes"/>
      <point x="219" y="611"/>
      <point x="205" y="605"/>
      <point x="192" y="592" type="curve"/>
      <point x="177" y="580"/>
      <point x="171" y="575"/>
      <point x="171" y="566" type="curve" smooth="yes"/>
      <point x="171" y="555"/>
      <point x="177" y="546"/>
      <point x="192" y="546" type="curve" smooth="yes"/>
      <point x="204" y="546"/>
      <point x="244" y="553"/>
      <point x="266" y="567" type="curve"/>
      <point x="290" y="581"/>
      <point x="346" y="619"/>
      <point x="346" y="661" type="curve" smooth="yes"/>
      <point x="346" y="680"/>
      <point x="327" y="693"/>
      <point x="299" y="693" type="curve" smooth="yes"/>
    </contour>
  </outline>
</glyph>
<glyph name="onequarter" format="1">
  <advance width="770"/>
  <unicode hex="00BC"/>
  <outline>
    <contour>
      <point x="636" y="628"/>
      <point x="621" y="645"/>
      <point x="599" y="645" type="curve" smooth="yes"/>
      <point x="572" y="645"/>
      <point x="565" y="637"/>
      <point x="535" y="594" type="curve" smooth="yes"/>
      <point x="417" y="432"/>
      <point x="251" y="211"/>
      <point x="113" y="54" type="curve"/>
      <point x="108" y="47"/>
      <point x="104" y="37"/>
      <point x="104" y="29" type="curve" smooth="yes"/>
      <point x="104" y="-5"/>
      <point x="127" y="-8"/>
      <point x="145" y="-8" type="curve" smooth="yes"/>
      <point x="166" y="-8"/>
      <point x="186" y="11"/>
      <point x="216" y="52" type="curve" smooth="yes"/>
      <point x="326" y="203"/>
      <point x="561" y="495"/>
      <point x="626" y="584" type="curve"/>
      <point x="630" y="592"/>
      <point x="636" y="606"/>
      <point x="636" y="612" type="curve" smooth="yes"/>
    </contour>
    <contour>
      <point x="220" y="355"/>
      <point x="211" y="354"/>
      <point x="202" y="354" type="curve"/>
      <point x="201" y="372"/>
      <point x="200" y="390"/>
      <point x="200" y="409" type="curve" smooth="yes"/>
      <point x="200" y="461"/>
      <point x="202" y="517"/>
      <point x="205" y="567" type="curve" smooth="yes"/>
      <point x="206" y="583"/>
      <point x="206" y="598"/>
      <point x="207" y="613" type="curve"/>
      <point x="207" y="634"/>
      <point x="180" y="643"/>
      <point x="161" y="643" type="curve" smooth="yes"/>
      <point x="142" y="643"/>
      <point x="127" y="627"/>
      <point x="109" y="619" type="curve"/>
      <point x="81" y="604"/>
      <point x="56" y="589"/>
      <point x="56" y="571" type="curve" smooth="yes"/>
      <point x="56" y="553"/>
      <point x="67" y="539"/>
      <point x="82" y="539" type="curve" smooth="yes"/>
      <point x="98" y="539"/>
      <point x="113" y="548"/>
      <point x="129" y="554" type="curve"/>
      <point x="129" y="520"/>
      <point x="127" y="485"/>
      <point x="125" y="449" type="curve" smooth="yes"/>
      <point x="124" y="417"/>
      <point x="122" y="384"/>
      <point x="122" y="351" type="curve"/>
      <point x="109" y="349"/>
      <point x="95" y="354"/>
      <point x="80" y="354" type="curve" smooth="yes"/>
      <point x="71" y="354"/>
      <point x="45" y="354"/>
      <point x="45" y="319" type="curve" smooth="yes"/>
      <point x="45" y="301"/>
      <point x="60" y="285"/>
      <point x="78" y="285" type="curve" smooth="yes"/>
      <point x="100" y="285"/>
      <point x="121" y="289"/>
      <point x="150" y="289" type="curve" smooth="yes"/>
      <point x="169" y="289"/>
      <point x="189" y="284"/>
      <point x="214" y="284" type="curve" smooth="yes"/>
      <point x="248" y="284"/>
      <point x="265" y="296"/>
      <point x="265" y="321" type="curve" smooth="yes"/>
      <point x="265" y="341"/>
      <point x="253" y="355"/>
      <point x="234" y="355" type="curve" smooth="yes"/>
    </contour>
    <contour>
      <point x="684" y="161"/>
      <point x="678" y="160"/>
      <point x="672" y="160" type="curve"/>
      <point x="673" y="207"/>
      <point x="679" y="248"/>
      <point x="679" y="290" type="curve" smooth="yes"/>
      <point x="679" y="310"/>
      <point x="680" y="328"/>
      <point x="669" y="338" type="curve"/>
      <point x="662" y="346"/>
      <point x="652" y="348"/>
      <point x="640" y="348" type="curve" smooth="yes"/>
      <point x="627" y="348"/>
      <point x="606" y="342"/>
      <point x="606" y="301" type="curve" smooth="yes"/>
      <point x="606" y="269"/>
      <point x="606" y="239"/>
      <point x="607" y="209" type="curve" smooth="yes"/>
      <point x="607" y="193"/>
      <point x="607" y="173"/>
      <point x="607" y="156" type="curve"/>
      <point x="573" y="155"/>
      <point x="542" y="149"/>
      <point x="509" y="149" type="curve"/>
      <point x="527" y="209"/>
      <point x="555" y="268"/>
      <point x="555" y="330" type="curve" smooth="yes"/>
      <point x="555" y="345"/>
      <point x="542" y="355"/>
      <point x="522" y="355" type="curve" smooth="yes"/>
      <point x="504" y="355"/>
      <point x="490" y="346"/>
      <point x="488" y="331" type="curve"/>
      <point x="481" y="301"/>
      <point x="476" y="276"/>
      <point x="463" y="236" type="curve" smooth="yes"/>
      <point x="451" y="196"/>
      <point x="430" y="160"/>
      <point x="430" y="119" type="curve" smooth="yes"/>
      <point x="430" y="105"/>
      <point x="438" y="81"/>
      <point x="498" y="81" type="curve" smooth="yes"/>
      <point x="517" y="81"/>
      <point x="536" y="84"/>
      <point x="554" y="85" type="curve"/>
      <point x="571" y="87"/>
      <point x="587" y="89"/>
      <point x="602" y="89" type="curve"/>
      <point x="600" y="67"/>
      <point x="600" y="48"/>
      <point x="600" y="29" type="curve" smooth="yes"/>
      <point x="600" y="7"/>
      <point x="621" y="-5"/>
      <point x="641" y="-5" type="curve" smooth="yes"/>
      <point x="661" y="-5"/>
      <point x="673" y="5"/>
      <point x="673" y="25" type="curve" smooth="yes"/>
      <point x="673" y="56"/>
      <point x="671" y="73"/>
      <point x="671" y="91" type="curve"/>
      <point x="690" y="90"/>
      <point x="706" y="87"/>
      <point x="721" y="87" type="curve" smooth="yes"/>
      <point x="731" y="87"/>
      <point x="743" y="97"/>
      <point x="743" y="125" type="curve" smooth="yes"/>
      <point x="743" y="146"/>
      <point x="719" y="161"/>
      <point x="697" y="161" type="curve" smooth="yes"/>
    </contour>
  </outline>
</glyph>
<glyph name="onehalf" format="1">
  <advance width="736"/>
  <unicode hex="00BD"/>
  <outline>
    <contour>
      <point x="636" y="628"/>
      <point x="621" y="645"/>
      <point x="599" y="645" type="curve" smooth="yes"/>
      <point x="572" y="645"/>
      <point x="566" y="637"/>
      <point x="535" y="594" type="curve" smooth="yes"/>
      <point x="417" y="432"/>
      <point x="251" y="211"/>
      <point x="113" y="54" type="curve"/>
      <point x="108" y="47"/>
      <point x="104" y="37"/>
      <point x="104" y="29" type="curve" smooth="yes"/>
      <point x="104" y="-5"/>
      <point x="127" y="-8"/>
      <point x="145" y="-8" type="curve" smooth="yes"/>
      <point x="166" y="-8"/>
      <point x="186" y="11"/>
      <point x="217" y="52" type="curve" smooth="yes"/>
      <point x="326" y="203"/>
      <point x="561" y="495"/>
      <point x="626" y="584" type="curve"/>
      <point x="630" y="592"/>
      <point x="636" y="606"/>
      <point x="636" y="612" type="curve" smooth="yes"/>
    </contour>
    <contour>
      <point x="220" y="355"/>
      <point x="211" y="354"/>
      <point x="202" y="354" type="curve"/>
      <point x="201" y="372"/>
      <point x="200" y="390"/>
      <point x="200" y="409" type="curve" smooth="yes"/>
      <point x="200" y="461"/>
      <point x="202" y="517"/>
      <point x="205" y="567" type="curve" smooth="yes"/>
      <point x="206" y="583"/>
      <point x="206" y="598"/>
      <point x="207" y="613" type="curve"/>
      <point x="207" y="634"/>
      <point x="180" y="643"/>
      <point x="161" y="643" type="curve" smooth="yes"/>
      <point x="142" y="643"/>
      <point x="127" y="627"/>
      <point x="109" y="619" type="curve"/>
      <point x="81" y="604"/>
      <point x="56" y="589"/>
      <point x="56" y="571" type="curve" smooth="yes"/>
      <point x="56" y="553"/>
      <point x="67" y="539"/>
      <point x="82" y="539" type="curve" smooth="yes"/>
      <point x="98" y="539"/>
      <point x="113" y="548"/>
      <point x="129" y="554" type="curve"/>
      <point x="129" y="520"/>
      <point x="127" y="485"/>
      <point x="125" y="449" type="curve" smooth="yes"/>
      <point x="124" y="417"/>
      <point x="122" y="384"/>
      <point x="122" y="351" type="curve"/>
      <point x="109" y="349"/>
      <point x="95" y="354"/>
      <point x="80" y="354" type="curve" smooth="yes"/>
      <point x="71" y="354"/>
      <point x="45" y="354"/>
      <point x="45" y="319" type="curve" smooth="yes"/>
      <point x="45" y="301"/>
      <point x="60" y="285"/>
      <point x="78" y="285" type="curve" smooth="yes"/>
      <point x="100" y="285"/>
      <point x="121" y="289"/>
      <point x="150" y="289" type="curve" smooth="yes"/>
      <point x="169" y="289"/>
      <point x="189" y="284"/>
      <point x="214" y="284" type="curve" smooth="yes"/>
      <point x="248" y="284"/>
      <point x="265" y="296"/>
      <point x="265" y="321" type="curve" smooth="yes"/>
      <point x="265" y="341"/>
      <point x="253" y="355"/>
      <point x="234" y="355" type="curve" smooth="yes"/>
    </contour>
    <contour>
      <point x="616" y="69"/>
      <point x="581" y="65"/>
      <point x="548" y="67" type="curve"/>
      <point x="605" y="113"/>
      <point x="679" y="184"/>
      <point x="679" y="263" type="curve" smooth="yes"/>
      <point x="679" y="314"/>
      <point x="620" y="354"/>
      <point x="570" y="354" type="curve" smooth="yes"/>
      <point x="498" y="354"/>
      <point x="445" y="314"/>
      <point x="445" y="259" type="curve" smooth="yes"/>
      <point x="445" y="229"/>
      <point x="459" y="212"/>
      <point x="481" y="212" type="curve" smooth="yes"/>
      <point x="503" y="212"/>
      <point x="510" y="227"/>
      <point x="510" y="238" type="curve" smooth="yes"/>
      <point x="510" y="262"/>
      <point x="517" y="287"/>
      <point x="567" y="287" type="curve" smooth="yes"/>
      <point x="586" y="287"/>
      <point x="606" y="274"/>
      <point x="606" y="255" type="curve" smooth="yes"/>
      <point x="606" y="223"/>
      <point x="563" y="178"/>
      <point x="530" y="141" type="curve" smooth="yes"/>
      <point x="494" y="102"/>
      <point x="444" y="66"/>
      <point x="444" y="34" type="curve" smooth="yes"/>
      <point x="444" y="-3"/>
      <point x="482" y="-3"/>
      <point x="498" y="-3" type="curve" smooth="yes"/>
      <point x="522" y="-3"/>
      <point x="542" y="0"/>
      <point x="562" y="0" type="curve" smooth="yes"/>
      <point x="599" y="0"/>
      <point x="628" y="-5"/>
      <point x="657" y="-5" type="curve" smooth="yes"/>
      <point x="676" y="-5"/>
      <point x="696" y="3"/>
      <point x="696" y="23" type="curve" smooth="yes"/>
      <point x="696" y="53"/>
      <point x="685" y="70"/>
      <point x="653" y="70" type="curve" smooth="yes"/>
    </contour>
  </outline>
</glyph>
<glyph name="threequarters" format="1">
  <advance width="783"/>
  <unicode hex="00BE"/>
  <outline>
    <contour>
      <point x="649" y="628"/>
      <point x="634" y="645"/>
      <point x="612" y="645" type="curve" smooth="yes"/>
      <point x="584" y="645"/>
      <point x="578" y="637"/>
      <point x="548" y="594" type="curve" smooth="yes"/>
      <point x="429" y="432"/>
      <point x="264" y="211"/>
      <point x="126" y="54" type="curve"/>
      <point x="121" y="47"/>
      <point x="117" y="37"/>
      <point x="117" y="29" type="curve" smooth="yes"/>
      <point x="117" y="-5"/>
      <point x="139" y="-8"/>
      <point x="157" y="-8" type="curve" smooth="yes"/>
      <point x="179" y="-8"/>
      <point x="199" y="11"/>
      <point x="229" y="52" type="curve" smooth="yes"/>
      <point x="337" y="203"/>
      <point x="573" y="495"/>
      <point x="638" y="584" type="curve"/>
      <point x="642" y="592"/>
      <point x="649" y="606"/>
      <point x="649" y="612" type="curve" smooth="yes"/>
    </contour>
    <contour>
      <point x="697" y="161"/>
      <point x="690" y="160"/>
      <point x="685" y="160" type="curve"/>
      <point x="686" y="207"/>
      <point x="691" y="248"/>
      <point x="691" y="290" type="curve" smooth="yes"/>
      <point x="691" y="310"/>
      <point x="693" y="328"/>
      <point x="681" y="338" type="curve"/>
      <point x="675" y="346"/>
      <point x="665" y="348"/>
      <point x="652" y="348" type="curve" smooth="yes"/>
      <point x="640" y="348"/>
      <point x="618" y="342"/>
      <point x="618" y="301" type="curve" smooth="yes"/>
      <point x="618" y="269"/>
      <point x="618" y="239"/>
      <point x="619" y="209" type="curve" smooth="yes"/>
      <point x="619" y="193"/>
      <point x="619" y="173"/>
      <point x="620" y="156" type="curve"/>
      <point x="586" y="155"/>
      <point x="554" y="149"/>
      <point x="522" y="149" type="curve"/>
      <point x="540" y="209"/>
      <point x="568" y="268"/>
      <point x="568" y="330" type="curve" smooth="yes"/>
      <point x="568" y="345"/>
      <point x="554" y="355"/>
      <point x="535" y="355" type="curve" smooth="yes"/>
      <point x="517" y="355"/>
      <point x="503" y="346"/>
      <point x="500" y="331" type="curve" smooth="yes"/>
      <point x="494" y="301"/>
      <point x="489" y="276"/>
      <point x="476" y="236" type="curve" smooth="yes"/>
      <point x="463" y="196"/>
      <point x="443" y="160"/>
      <point x="443" y="119" type="curve" smooth="yes"/>
      <point x="443" y="105"/>
      <point x="451" y="81"/>
      <point x="510" y="81" type="curve" smooth="yes"/>
      <point x="530" y="81"/>
      <point x="549" y="84"/>
      <point x="567" y="85" type="curve"/>
      <point x="584" y="87"/>
      <point x="599" y="89"/>
      <point x="615" y="89" type="curve"/>
      <point x="613" y="67"/>
      <point x="613" y="48"/>
      <point x="613" y="29" type="curve" smooth="yes"/>
      <point x="613" y="7"/>
      <point x="634" y="-5"/>
      <point x="653" y="-5" type="curve" smooth="yes"/>
      <point x="673" y="-5"/>
      <point x="686" y="5"/>
      <point x="686" y="25" type="curve" smooth="yes"/>
      <point x="686" y="56"/>
      <point x="684" y="73"/>
      <point x="684" y="91" type="curve"/>
      <point x="703" y="90"/>
      <point x="718" y="87"/>
      <point x="733" y="87" type="curve" smooth="yes"/>
      <point x="743" y="87"/>
      <point x="756" y="97"/>
      <point x="756" y="125" type="curve" smooth="yes"/>
      <point x="756" y="146"/>
      <point x="732" y="161"/>
      <point x="710" y="161" type="curve" smooth="yes"/>
    </contour>
    <contour>
      <point x="256" y="537"/>
      <point x="284" y="571"/>
      <point x="284" y="600" type="curve" smooth="yes"/>
      <point x="284" y="624"/>
      <point x="263" y="636"/>
      <point x="220" y="636" type="curve" smooth="yes"/>
      <point x="212" y="636"/>
      <point x="205" y="635"/>
      <point x="197" y="635" type="curve" smooth="yes"/>
      <point x="166" y="635"/>
      <point x="136" y="638"/>
      <point x="106" y="638" type="curve" smooth="yes"/>
      <point x="99" y="638"/>
      <point x="91" y="637"/>
      <point x="84" y="634" type="curve"/>
      <point x="67" y="628"/>
      <point x="67" y="611"/>
      <point x="67" y="601" type="curve" smooth="yes"/>
      <point x="67" y="580"/>
      <point x="92" y="570"/>
      <point x="119" y="570" type="curve" smooth="yes"/>
      <point x="144" y="570"/>
      <point x="166" y="572"/>
      <point x="191" y="572" type="curve"/>
      <point x="187" y="565"/>
      <point x="175" y="546"/>
      <point x="165" y="538" type="curve" smooth="yes"/>
      <point x="148" y="524"/>
      <point x="129" y="517"/>
      <point x="129" y="495" type="curve" smooth="yes"/>
      <point x="129" y="468"/>
      <point x="160" y="462"/>
      <point x="185" y="456" type="curve"/>
      <point x="195" y="454"/>
      <point x="205" y="452"/>
      <point x="211" y="449" type="curve"/>
      <point x="223" y="444"/>
      <point x="245" y="426"/>
      <point x="245" y="413" type="curve" smooth="yes"/>
      <point x="245" y="387"/>
      <point x="237" y="352"/>
      <point x="165" y="352" type="curve" smooth="yes"/>
      <point x="139" y="352"/>
      <point x="129" y="366"/>
      <point x="117" y="382" type="curve"/>
      <point x="106" y="395"/>
      <point x="94" y="411"/>
      <point x="70" y="411" type="curve" smooth="yes"/>
      <point x="50" y="411"/>
      <point x="36" y="396"/>
      <point x="36" y="378" type="curve" smooth="yes"/>
      <point x="36" y="358"/>
      <point x="49" y="340"/>
      <point x="61" y="329" type="curve" smooth="yes"/>
      <point x="85" y="306"/>
      <point x="117" y="283"/>
      <point x="164" y="283" type="curve" smooth="yes"/>
      <point x="231" y="283"/>
      <point x="285" y="310"/>
      <point x="308" y="355" type="curve"/>
      <point x="315" y="371"/>
      <point x="319" y="388"/>
      <point x="319" y="404" type="curve" smooth="yes"/>
      <point x="319" y="452"/>
      <point x="282" y="495"/>
      <point x="227" y="513" type="curve"/>
    </contour>
  </outline>
</glyph>
<glyph name="Iacute" format="1">
  <advance width="373"/>
  <unicode hex="00CD"/>
  <outline>
    <contour>
      <point x="253" y="553" type="line"/>
      <point x="307" y="553"/>
      <point x="323" y="562"/>
      <point x="323" y="608" type="curve" smooth="yes"/>
      <point x="323" y="631"/>
      <point x="254" y="630"/>
      <point x="184" y="630" type="curve" smooth="yes"/>
      <point x="108" y="630"/>
      <point x="45" y="625"/>
      <point x="45" y="586" type="curve" smooth="yes"/>
      <point x="45" y="552"/>
      <point x="54" y="545"/>
      <point x="82" y="545" type="curve" smooth="yes"/>
      <point x="90" y="545"/>
      <point x="101" y="545"/>
      <point x="135" y="547" type="curve"/>
      <point x="133" y="492" type="line" smooth="yes"/>
      <point x="131" y="442"/>
      <point x="130" y="387"/>
      <point x="130" y="374" type="curve" smooth="yes"/>
      <point x="130" y="319"/>
      <point x="132" y="262"/>
      <point x="136" y="198" type="curve" smooth="yes"/>
      <point x="141" y="80" type="line"/>
      <point x="119" y="81"/>
      <point x="112" y="82"/>
      <point x="108" y="82" type="curve"/>
      <point x="76" y="84"/>
      <point x="45" y="85"/>
      <point x="45" y="54" type="curve" smooth="yes"/>
      <point x="45" y="9"/>
      <point x="73" y="0"/>
      <point x="193" y="0" type="curve" smooth="yes"/>
      <point x="302" y="0"/>
      <point x="332" y="8"/>
      <point x="332" y="38" type="curve" smooth="yes"/>
      <point x="332" y="71"/>
      <point x="311" y="83"/>
      <point x="284" y="83" type="curve" smooth="yes"/>
      <point x="274" y="83"/>
      <point x="267" y="81"/>
      <point x="245" y="78" type="curve"/>
      <point x="245" y="193"/>
      <point x="230" y="309"/>
      <point x="230" y="429" type="curve" smooth="yes"/>
      <point x="230" y="470"/>
      <point x="231" y="509"/>
      <point x="233" y="552" type="curve"/>
    </contour>
    <contour>
      <point x="209" y="864"/>
      <point x="190" y="854"/>
      <point x="174" y="821" type="curve" smooth="yes"/>
      <point x="156" y="782"/>
      <point x="142" y="776"/>
      <point x="129" y="763" type="curve"/>
      <point x="114" y="751"/>
      <point x="108" y="746"/>
      <point x="108" y="737" type="curve" smooth="yes"/>
      <point x="108" y="726"/>
      <point x="114" y="717"/>
      <point x="129" y="717" type="curve" smooth="yes"/>
      <point x="141" y="717"/>
      <point x="181" y="724"/>
      <point x="203" y="738" type="curve"/>
      <point x="227" y="752"/>
      <point x="282" y="790"/>
      <point x="282" y="832" type="curve" smooth="yes"/>
      <point x="282" y="851"/>
      <point x="264" y="864"/>
      <point x="236" y="864" type="curve" smooth="yes"/>
    </contour>
  </outline>
</glyph>
<glyph name="Icircumflex" format="1">
  <advance width="373"/>
  <unicode hex="00CE"/>
  <outline>
    <contour>
      <point x="253" y="553" type="line"/>
      <point x="307" y="553"/>
      <point x="323" y="562"/>
      <point x="323" y="608" type="curve" smooth="yes"/>
      <point x="323" y="631"/>
      <point x="254" y="630"/>
      <point x="184" y="630" type="curve" smooth="yes"/>
      <point x="108" y="630"/>
      <point x="45" y="625"/>
      <point x="45" y="586" type="curve" smooth="yes"/>
      <point x="45" y="552"/>
      <point x="54" y="545"/>
      <point x="82" y="545" type="curve" smooth="yes"/>
      <point x="90" y="545"/>
      <point x="101" y="545"/>
      <point x="135" y="547" type="curve"/>
      <point x="133" y="492" type="line" smooth="yes"/>
      <point x="131" y="442"/>
      <point x="130" y="387"/>
      <point x="130" y="374" type="curve" smooth="yes"/>
      <point x="130" y="319"/>
      <point x="132" y="262"/>
      <point x="136" y="198" type="curve" smooth="yes"/>
      <point x="141" y="80" type="line"/>
      <point x="119" y="81"/>
      <point x="112" y="82"/>
      <point x="108" y="82" type="curve"/>
      <point x="76" y="84"/>
      <point x="45" y="85"/>
      <point x="45" y="54" type="curve" smooth="yes"/>
      <point x="45" y="9"/>
      <point x="73" y="0"/>
      <point x="193" y="0" type="curve" smooth="yes"/>
      <point x="302" y="0"/>
      <point x="332" y="8"/>
      <point x="332" y="38" type="curve" smooth="yes"/>
      <point x="332" y="71"/>
      <point x="311" y="83"/>
      <point x="284" y="83" type="curve" smooth="yes"/>
      <point x="274" y="83"/>
      <point x="267" y="81"/>
      <point x="245" y="78" type="curve"/>
      <point x="245" y="193"/>
      <point x="230" y="309"/>
      <point x="230" y="429" type="curve" smooth="yes"/>
      <point x="230" y="470"/>
      <point x="231" y="509"/>
      <point x="233" y="552" type="curve"/>
    </contour>
    <contour>
      <point x="152" y="860"/>
      <point x="139" y="843"/>
      <point x="132" y="834" type="curve" smooth="yes"/>
      <point x="125" y="825"/>
      <point x="112" y="808"/>
      <point x="83" y="784" type="curve" smooth="yes"/>
      <point x="65" y="769"/>
      <point x="43" y="744"/>
      <point x="43" y="733" type="curve" smooth="yes"/>
      <point x="43" y="723"/>
      <point x="49" y="706"/>
      <point x="73" y="706" type="curve" smooth="yes"/>
      <point x="114" y="706"/>
      <point x="167" y="757"/>
      <point x="190" y="790" type="curve"/>
      <point x="218" y="751"/>
      <point x="256" y="706"/>
      <point x="306" y="706" type="curve" smooth="yes"/>
      <point x="324" y="706"/>
      <point x="336" y="723"/>
      <point x="336" y="733" type="curve" smooth="yes"/>
      <point x="336" y="741"/>
      <point x="333" y="751"/>
      <point x="314" y="765" type="curve" smooth="yes"/>
      <point x="291" y="781"/>
      <point x="261" y="810"/>
      <point x="247" y="830" type="curve" smooth="yes"/>
      <point x="234" y="850"/>
      <point x="220" y="860"/>
      <point x="188" y="860" type="curve" smooth="yes"/>
    </contour>
  </outline>
</glyph>
<glyph name="Ograve" format="1">
  <advance width="725"/>
  <unicode hex="00D2"/>
  <outline>
    <contour>
      <point x="300" y="636"/>
      <point x="238" y="611"/>
      <point x="190" y="582" type="curve"/>
      <point x="106" y="527"/>
      <point x="52" y="426"/>
      <point x="52" y="287" type="curve" smooth="yes"/>
      <point x="52" y="236"/>
      <point x="69" y="181"/>
      <point x="100" y="132" type="curve" smooth="yes"/>
      <point x="158" y="39"/>
      <point x="256" y="0"/>
      <point x="375" y="0" type="curve" smooth="yes"/>
      <point x="455" y="0"/>
      <point x="591" y="66"/>
      <point x="632" y="139" type="curve"/>
      <point x="640" y="180"/>
      <point x="673" y="220"/>
      <point x="673" y="274" type="curve" smooth="yes"/>
      <point x="673" y="412"/>
      <point x="645" y="494"/>
      <point x="559" y="571" type="curve" smooth="yes"/>
      <point x="511" y="615"/>
      <point x="434" y="636"/>
      <point x="347" y="636" type="curve" smooth="yes"/>
    </contour>
    <contour>
      <point x="156" y="407"/>
      <point x="226" y="536"/>
      <point x="355" y="536" type="curve" smooth="yes"/>
      <point x="405" y="536"/>
      <point x="457" y="526"/>
      <point x="490" y="499" type="curve" smooth="yes"/>
      <point x="549" y="452"/>
      <point x="568" y="400"/>
      <point x="568" y="300" type="curve" smooth="yes"/>
      <point x="568" y="170"/>
      <point x="480" y="94"/>
      <point x="347" y="94" type="curve" smooth="yes"/>
      <point x="319" y="94"/>
      <point x="301" y="102"/>
      <point x="256" y="119" type="curve"/>
      <point x="198" y="166"/>
      <point x="155" y="206"/>
      <point x="156" y="287" type="curve" smooth="yes"/>
    </contour>
    <contour>
      <point x="286" y="864"/>
      <point x="267" y="851"/>
      <point x="267" y="832" type="curve" smooth="yes"/>
      <point x="267" y="790"/>
      <point x="323" y="752"/>
      <point x="346" y="738" type="curve" smooth="yes"/>
      <point x="368" y="724"/>
      <point x="408" y="717"/>
      <point x="421" y="717" type="curve" smooth="yes"/>
      <point x="435" y="717"/>
      <point x="441" y="726"/>
      <point x="441" y="737" type="curve" smooth="yes"/>
      <point x="441" y="746"/>
      <point x="435" y="751"/>
      <point x="421" y="763" type="curve"/>
      <point x="407" y="776"/>
      <point x="394" y="782"/>
      <point x="375" y="821" type="curve" smooth="yes"/>
      <point x="359" y="854"/>
      <point x="341" y="864"/>
      <point x="314" y="864" type="curve" smooth="yes"/>
    </contour>
  </outline>
</glyph>
<glyph name="Ocircumflex" format="1">
  <advance width="725"/>
  <unicode hex="00D4"/>
  <outline>
    <contour>
      <point x="300" y="636"/>
      <point x="238" y="611"/>
      <point x="190" y="582" type="curve"/>
      <point x="106" y="527"/>
      <point x="52" y="426"/>
      <point x="52" y="287" type="curve" smooth="yes"/>
      <point x="52" y="236"/>
      <point x="69" y="181"/>
      <point x="100" y="132" type="curve" smooth="yes"/>
      <point x="158" y="39"/>
      <point x="256" y="0"/>
      <point x="375" y="0" type="curve" smooth="yes"/>
      <point x="455" y="0"/>
      <point x="591" y="66"/>
      <point x="632" y="139" type="curve"/>
      <point x="640" y="180"/>
      <point x="673" y="220"/>
      <point x="673" y="274" type="curve" smooth="yes"/>
      <point x="673" y="412"/>
      <point x="645" y="494"/>
      <point x="559" y="571" type="curve" smooth="yes"/>
      <point x="511" y="615"/>
      <point x="434" y="636"/>
      <point x="347" y="636" type="curve" smooth="yes"/>
    </contour>
    <contour>
      <point x="156" y="407"/>
      <point x="226" y="536"/>
      <point x="355" y="536" type="curve" smooth="yes"/>
      <point x="405" y="536"/>
      <point x="457" y="526"/>
      <point x="490" y="499" type="curve" smooth="yes"/>
      <point x="549" y="452"/>
      <point x="568" y="400"/>
      <point x="568" y="300" type="curve" smooth="yes"/>
      <point x="568" y="170"/>
      <point x="480" y="94"/>
      <point x="347" y="94" type="curve" smooth="yes"/>
      <point x="319" y="94"/>
      <point x="301" y="102"/>
      <point x="256" y="119" type="curve"/>
      <point x="198" y="166"/>
      <point x="155" y="206"/>
      <point x="156" y="287" type="curve" smooth="yes"/>
    </contour>
    <contour>
      <point x="335" y="860"/>
      <point x="322" y="843"/>
      <point x="315" y="834" type="curve" smooth="yes"/>
      <point x="308" y="825"/>
      <point x="295" y="808"/>
      <point x="266" y="784" type="curve" smooth="yes"/>
      <point x="248" y="769"/>
      <point x="226" y="744"/>
      <point x="226" y="733" type="curve" smooth="yes"/>
      <point x="226" y="723"/>
      <point x="232" y="706"/>
      <point x="256" y="706" type="curve" smooth="yes"/>
      <point x="297" y="706"/>
      <point x="350" y="757"/>
      <point x="373" y="790" type="curve"/>
      <point x="401" y="751"/>
      <point x="439" y="706"/>
      <point x="489" y="706" type="curve" smooth="yes"/>
      <point x="507" y="706"/>
      <point x="519" y="723"/>
      <point x="519" y="733" type="curve" smooth="yes"/>
      <point x="519" y="741"/>
      <point x="516" y="751"/>
      <point x="497" y="765" type="curve" smooth="yes"/>
      <point x="474" y="781"/>
      <point x="444" y="810"/>
      <point x="430" y="830" type="curve" smooth="yes"/>
      <point x="417" y="850"/>
      <point x="403" y="860"/>
      <point x="371" y="860" type="curve" smooth="yes"/>
    </contour>
  </outline>
</glyph>
<glyph name="Otilde" format="1">
  <advance width="725"/>
  <unicode hex="00D5"/>
  <outline>
    <contour>
      <point x="434" y="636"/>
      <point x="511" y="615"/>
      <point x="559" y="571" type="curve" smooth="yes"/>
      <point x="645" y="494"/>
      <point x="673" y="412"/>
      <point x="673" y="274" type="curve" smooth="yes"/>
      <point x="673" y="220"/>
      <point x="640" y="180"/>
      <point x="632" y="139" type="curve"/>
      <point x="591" y="66"/>
      <point x="455" y="0"/>
      <point x="375" y="0" type="curve" smooth="yes"/>
      <point x="256" y="0"/>
      <point x="158" y="39"/>
      <point x="100" y="132" type="curve" smooth="yes"/>
      <point x="69" y="181"/>
      <point x="52" y="236"/>
      <point x="52" y="287" type="curve" smooth="yes"/>
      <point x="52" y="426"/>
      <point x="106" y="527"/>
      <point x="190" y="582" type="curve"/>
      <point x="238" y="611"/>
      <point x="300" y="636"/>
      <point x="347" y="636" type="curve" smooth="yes"/>
    </contour>
    <contour>
      <point x="155" y="206"/>
      <point x="198" y="166"/>
      <point x="256" y="119" type="curve"/>
      <point x="301" y="102"/>
      <point x="319" y="94"/>
      <point x="347" y="94" type="curve" smooth="yes"/>
      <point x="480" y="94"/>
      <point x="568" y="170"/>
      <point x="568" y="300" type="curve" smooth="yes"/>
      <point x="568" y="400"/>
      <point x="549" y="452"/>
      <point x="490" y="499" type="curve" smooth="yes"/>
      <point x="457" y="526"/>
      <point x="405" y="536"/>
      <point x="355" y="536" type="curve" smooth="yes"/>
      <point x="226" y="536"/>
      <point x="156" y="407"/>
      <point x="156" y="287" type="curve" smooth="yes"/>
    </contour>
    <contour>
      <point x="202" y="726"/>
      <point x="223" y="716"/>
      <point x="234" y="716" type="curve" smooth="yes"/>
      <point x="250" y="716"/>
      <point x="264" y="723"/>
      <point x="275" y="739" type="curve" smooth="yes"/>
      <point x="287" y="757"/>
      <point x="305" y="763"/>
      <point x="321" y="763" type="curve" smooth="yes"/>
      <point x="354" y="763"/>
      <point x="367" y="718"/>
      <point x="434" y="718" type="curve" smooth="yes"/>
      <point x="480" y="718"/>
      <point x="531" y="761"/>
      <point x="531" y="802" type="curve" smooth="yes"/>
      <point x="531" y="823"/>
      <point x="512" y="832"/>
      <point x="497" y="832" type="curve" smooth="yes"/>
      <point x="481" y="832"/>
      <point x="473" y="824"/>
      <point x="466" y="814" type="curve"/>
      <point x="459" y="803"/>
      <point x="453" y="790"/>
      <point x="436" y="790" type="curve"/>
      <point x="423" y="789"/>
      <point x="408" y="796"/>
      <point x="390" y="809" type="curve" smooth="yes"/>
      <point x="368" y="824"/>
      <point x="342" y="833"/>
      <point x="317" y="833" type="curve" smooth="yes"/>
      <point x="269" y="833"/>
      <point x="202" y="798"/>
      <point x="202" y="745" type="curve" smooth="yes"/>
    </contour>
  </outline>
</glyph>
<glyph name="Uacute" format="1">
  <advance width="663"/>
  <unicode hex="00DA"/>
  <outline>
    <contour>
      <point x="177" y="617"/>
      <point x="153" y="633"/>
      <point x="114" y="633" type="curve" smooth="yes"/>
      <point x="91" y="633"/>
      <point x="65" y="611"/>
      <point x="65" y="589" type="curve" smooth="yes"/>
      <point x="65" y="454"/>
      <point x="66" y="355"/>
      <point x="85" y="258" type="curve" smooth="yes"/>
      <point x="112" y="121"/>
      <point x="185" y="-2"/>
      <point x="346" y="-2" type="curve" smooth="yes"/>
      <point x="499" y="-2"/>
      <point x="600" y="154"/>
      <point x="600" y="288" type="curve" smooth="yes"/>
      <point x="600" y="353"/>
      <point x="593" y="418"/>
      <point x="593" y="490" type="curve" smooth="yes"/>
      <point x="593" y="517"/>
      <point x="598" y="552"/>
      <point x="598" y="589" type="curve" smooth="yes"/>
      <point x="598" y="611"/>
      <point x="573" y="630"/>
      <point x="562" y="630" type="curve" smooth="yes"/>
      <point x="544" y="630"/>
      <point x="482" y="629"/>
      <point x="482" y="595" type="curve" smooth="yes"/>
      <point x="482" y="510"/>
      <point x="495" y="427"/>
      <point x="495" y="339" type="curve" smooth="yes"/>
      <point x="495" y="271"/>
      <point x="482" y="221"/>
      <point x="465" y="186" type="curve" smooth="yes"/>
      <point x="443" y="139"/>
      <point x="398" y="97"/>
      <point x="339" y="97" type="curve" smooth="yes"/>
      <point x="304" y="97"/>
      <point x="272" y="112"/>
      <point x="248" y="140" type="curve" smooth="yes"/>
      <point x="220" y="174"/>
      <point x="201" y="220"/>
      <point x="188" y="279" type="curve" smooth="yes"/>
      <point x="176" y="334"/>
      <point x="174" y="388"/>
      <point x="174" y="438" type="curve" smooth="yes"/>
      <point x="174" y="483"/>
      <point x="177" y="527"/>
      <point x="177" y="580" type="curve" smooth="yes"/>
    </contour>
    <contour>
      <point x="359" y="864"/>
      <point x="340" y="854"/>
      <point x="324" y="821" type="curve" smooth="yes"/>
      <point x="306" y="782"/>
      <point x="292" y="776"/>
      <point x="279" y="763" type="curve"/>
      <point x="264" y="751"/>
      <point x="258" y="746"/>
      <point x="258" y="737" type="curve" smooth="yes"/>
      <point x="258" y="726"/>
      <point x="264" y="717"/>
      <point x="279" y="717" type="curve" smooth="yes"/>
      <point x="291" y="717"/>
      <point x="331" y="724"/>
      <point x="353" y="738" type="curve"/>
      <point x="377" y="752"/>
      <point x="432" y="790"/>
      <point x="432" y="832" type="curve" smooth="yes"/>
      <point x="432" y="851"/>
      <point x="414" y="864"/>
      <point x="386" y="864" type="curve" smooth="yes"/>
    </contour>
  </outline>
</glyph>
<glyph name="Thorn" format="1">
  <advance width="571"/>
  <unicode hex="00DE"/>
  <outline>
    <contour>
      <point x="351" y="443"/>
      <point x="381" y="440"/>
      <point x="418" y="407" type="curve"/>
      <point x="427" y="398"/>
      <point x="441" y="366"/>
      <point x="441" y="346" type="curve" smooth="yes"/>
      <point x="441" y="291"/>
      <point x="412" y="230"/>
      <point x="301" y="230" type="curve" smooth="yes"/>
      <point x="265" y="230"/>
      <point x="243" y="228"/>
      <point x="180" y="241" type="curve"/>
      <point x="180" y="296"/>
      <point x="178" y="371"/>
      <point x="178" y="433" type="curve"/>
      <point x="213" y="441"/>
      <point x="244" y="443"/>
      <point x="292" y="443" type="curve" smooth="yes"/>
    </contour>
    <contour>
      <point x="439" y="141"/>
      <point x="544" y="225"/>
      <point x="544" y="359" type="curve" smooth="yes"/>
      <point x="544" y="388"/>
      <point x="514" y="439"/>
      <point x="498" y="464" type="curve"/>
      <point x="441" y="510"/>
      <point x="393" y="532"/>
      <point x="275" y="532" type="curve" smooth="yes"/>
      <point x="239" y="532"/>
      <point x="211" y="527"/>
      <point x="177" y="524" type="curve"/>
      <point x="177" y="536"/>
      <point x="181" y="560"/>
      <point x="181" y="579" type="curve" smooth="yes"/>
      <point x="181" y="629"/>
      <point x="153" y="636"/>
      <point x="122" y="636" type="curve" smooth="yes"/>
      <point x="75" y="636"/>
      <point x="76" y="589"/>
      <point x="76" y="574" type="curve"/>
      <point x="80" y="499"/>
      <point x="81" y="343"/>
      <point x="81" y="283" type="curve" smooth="yes"/>
      <point x="81" y="133"/>
      <point x="72" y="157"/>
      <point x="72" y="45" type="curve" smooth="yes"/>
      <point x="72" y="14"/>
      <point x="91" y="-2"/>
      <point x="133" y="-2" type="curve" smooth="yes"/>
      <point x="156" y="-2"/>
      <point x="180" y="16"/>
      <point x="180" y="53" type="curve" smooth="yes"/>
      <point x="180" y="108"/>
      <point x="179" y="139"/>
      <point x="179" y="154" type="curve"/>
      <point x="234" y="147"/>
      <point x="257" y="141"/>
      <point x="311" y="141" type="curve" smooth="yes"/>
    </contour>
  </outline>
</glyph>
<glyph name="egrave" format="1">
  <advance width="477"/>
  <unicode hex="00E8"/>
  <outline>
    <contour>
      <point x="45" y="151"/>
      <point x="65" y="97"/>
      <point x="97" y="60" type="curve"/>
      <point x="136" y="18"/>
      <point x="199" y="-5"/>
      <point x="261" y="-5" type="curve" smooth="yes"/>
      <point x="296" y="-5"/>
      <point x="417" y="13"/>
      <point x="417" y="67" type="curve" smooth="yes"/>
      <point x="417" y="90"/>
      <point x="404" y="108"/>
      <point x="378" y="108" type="curve" smooth="yes"/>
      <point x="364" y="108"/>
      <point x="351" y="104"/>
      <point x="337" y="99" type="curve" smooth="yes"/>
      <point x="319" y="92"/>
      <point x="293" y="87"/>
      <point x="270" y="87" type="curve" smooth="yes"/>
      <point x="231" y="87"/>
      <point x="202" y="89"/>
      <point x="173" y="116" type="curve" smooth="yes"/>
      <point x="158" y="130"/>
      <point x="147" y="159"/>
      <point x="144" y="184" type="curve"/>
      <point x="186" y="174"/>
      <point x="234" y="168"/>
      <point x="264" y="168" type="curve" smooth="yes"/>
      <point x="295" y="168"/>
      <point x="364" y="171"/>
      <point x="390" y="198" type="curve" smooth="yes"/>
      <point x="411" y="220"/>
      <point x="434" y="245"/>
      <point x="434" y="285" type="curve" smooth="yes"/>
      <point x="434" y="304"/>
      <point x="432" y="338"/>
      <point x="397" y="387" type="curve" smooth="yes"/>
      <point x="373" y="421"/>
      <point x="301" y="432"/>
      <point x="258" y="432" type="curve" smooth="yes"/>
      <point x="211" y="432"/>
      <point x="129" y="405"/>
      <point x="96" y="359" type="curve" smooth="yes"/>
      <point x="67" y="319"/>
      <point x="45" y="265"/>
      <point x="45" y="212" type="curve" smooth="yes"/>
    </contour>
    <contour>
      <point x="300" y="347"/>
      <point x="344" y="321"/>
      <point x="344" y="292" type="curve" smooth="yes"/>
      <point x="344" y="264"/>
      <point x="312" y="245"/>
      <point x="254" y="245" type="curve" smooth="yes"/>
      <point x="220" y="245"/>
      <point x="169" y="247"/>
      <point x="150" y="253" type="curve"/>
      <point x="153" y="281"/>
      <point x="162" y="292"/>
      <point x="183" y="315" type="curve" smooth="yes"/>
      <point x="202" y="336"/>
      <point x="235" y="347"/>
      <point x="263" y="347" type="curve" smooth="yes"/>
    </contour>
    <contour>
      <point x="166" y="634"/>
      <point x="147" y="621"/>
      <point x="147" y="602" type="curve" smooth="yes"/>
      <point x="147" y="560"/>
      <point x="203" y="522"/>
      <point x="226" y="508" type="curve" smooth="yes"/>
      <point x="248" y="494"/>
      <point x="288" y="487"/>
      <point x="301" y="487" type="curve" smooth="yes"/>
      <point x="315" y="487"/>
      <point x="321" y="496"/>
      <point x="321" y="507" type="curve" smooth="yes"/>
      <point x="321" y="516"/>
      <point x="315" y="521"/>
      <point x="301" y="533" type="curve"/>
      <point x="287" y="546"/>
      <point x="274" y="552"/>
      <point x="255" y="591" type="curve" smooth="yes"/>
      <point x="239" y="624"/>
      <point x="221" y="634"/>
      <point x="194" y="634" type="curve" smooth="yes"/>
    </contour>
  </outline>
</glyph>
<glyph name="igrave" format="1">
  <advance width="256"/>
  <unicode hex="00EC"/>
  <outline>
    <contour>
      <point x="184" y="415"/>
      <point x="173" y="434"/>
      <point x="132" y="434" type="curve" smooth="yes"/>
      <point x="108" y="434"/>
      <point x="76" y="416"/>
      <point x="76" y="390" type="curve" smooth="yes"/>
      <point x="76" y="348"/>
      <point x="78" y="308"/>
      <point x="80" y="263" type="curve" smooth="yes"/>
      <point x="83" y="202"/>
      <point x="85" y="131"/>
      <point x="85" y="79" type="curve" smooth="yes"/>
      <point x="85" y="58"/>
      <point x="88" y="38"/>
      <point x="91" y="22" type="curve"/>
      <point x="97" y="6"/>
      <point x="130" y="-4"/>
      <point x="153" y="-4" type="curve" smooth="yes"/>
      <point x="167" y="-4"/>
      <point x="192" y="13"/>
      <point x="193" y="27" type="curve"/>
      <point x="188" y="76"/>
      <point x="184" y="112"/>
      <point x="184" y="170" type="curve" smooth="yes"/>
      <point x="184" y="199" type="line" smooth="yes"/>
      <point x="184" y="209"/>
      <point x="184" y="318"/>
      <point x="184" y="380" type="curve" smooth="yes"/>
    </contour>
    <contour>
      <point x="27" y="693"/>
      <point x="8" y="680"/>
      <point x="8" y="661" type="curve" smooth="yes"/>
      <point x="8" y="619"/>
      <point x="64" y="581"/>
      <point x="87" y="567" type="curve" smooth="yes"/>
      <point x="109" y="553"/>
      <point x="149" y="546"/>
      <point x="162" y="546" type="curve" smooth="yes"/>
      <point x="176" y="546"/>
      <point x="182" y="555"/>
      <point x="182" y="566" type="curve" smooth="yes"/>
      <point x="182" y="575"/>
      <point x="176" y="580"/>
      <point x="162" y="592" type="curve"/>
      <point x="148" y="605"/>
      <point x="135" y="611"/>
      <point x="116" y="650" type="curve" smooth="yes"/>
      <point x="100" y="683"/>
      <point x="82" y="693"/>
      <point x="55" y="693" type="curve" smooth="yes"/>
    </contour>
  </outline>
</glyph>
<glyph name="icircumflex" format="1">
  <advance width="256"/>
  <unicode hex="00EE"/>
  <outline>
    <contour>
      <point x="184" y="415"/>
      <point x="173" y="434"/>
      <point x="132" y="434" type="curve" smooth="yes"/>
      <point x="108" y="434"/>
      <point x="76" y="416"/>
      <point x="76" y="390" type="curve" smooth="yes"/>
      <point x="76" y="348"/>
      <point x="78" y="308"/>
      <point x="80" y="263" type="curve" smooth="yes"/>
      <point x="83" y="202"/>
      <point x="85" y="131"/>
      <point x="85" y="79" type="curve" smooth="yes"/>
      <point x="85" y="58"/>
      <point x="88" y="38"/>
      <point x="91" y="22" type="curve"/>
      <point x="97" y="6"/>
      <point x="130" y="-4"/>
      <point x="153" y="-4" type="curve" smooth="yes"/>
      <point x="167" y="-4"/>
      <point x="192" y="13"/>
      <point x="193" y="27" type="curve"/>
      <point x="188" y="76"/>
      <point x="184" y="112"/>
      <point x="184" y="170" type="curve" smooth="yes"/>
      <point x="184" y="199" type="line" smooth="yes"/>
      <point x="184" y="209"/>
      <point x="184" y="318"/>
      <point x="184" y="380" type="curve" smooth="yes"/>
    </contour>
    <contour>
      <point x="90" y="689"/>
      <point x="77" y="672"/>
      <point x="70" y="663" type="curve" smooth="yes"/>
      <point x="63" y="654"/>
      <point x="50" y="637"/>
      <point x="21" y="613" type="curve" smooth="yes"/>
      <point x="3" y="598"/>
      <point x="-19" y="573"/>
      <point x="-19" y="562" type="curve" smooth="yes"/>
      <point x="-19" y="552"/>
      <point x="-13" y="535"/>
      <point x="11" y="535" type="curve" smooth="yes"/>
      <point x="52" y="535"/>
      <point x="105" y="586"/>
      <point x="128" y="619" type="curve"/>
      <point x="156" y="580"/>
      <point x="194" y="535"/>
      <point x="244" y="535" type="curve" smooth="yes"/>
      <point x="262" y="535"/>
      <point x="274" y="552"/>
      <point x="274" y="562" type="curve" smooth="yes"/>
      <point x="274" y="570"/>
      <point x="271" y="580"/>
      <point x="252" y="594" type="curve" smooth="yes"/>
      <point x="229" y="610"/>
      <point x="199" y="639"/>
      <point x="185" y="659" type="curve" smooth="yes"/>
      <point x="172" y="679"/>
      <point x="158" y="689"/>
      <point x="126" y="689" type="curve" smooth="yes"/>
    </contour>
  </outline>
</glyph>
<glyph name="idieresis" format="1">
  <advance width="256"/>
  <unicode hex="00EF"/>
  <outline>
    <contour>
      <point x="184" y="415"/>
      <point x="173" y="434"/>
      <point x="132" y="434" type="curve" smooth="yes"/>
      <point x="108" y="434"/>
      <point x="76" y="416"/>
      <point x="76" y="390" type="curve" smooth="yes"/>
      <point x="76" y="348"/>
      <point x="78" y="308"/>
      <point x="80" y="263" type="curve" smooth="yes"/>
      <point x="83" y="202"/>
      <point x="85" y="131"/>
      <point x="85" y="79" type="curve" smooth="yes"/>
      <point x="85" y="58"/>
      <point x="88" y="38"/>
      <point x="91" y="22" type="curve"/>
      <point x="97" y="6"/>
      <point x="130" y="-4"/>
      <point x="153" y="-4" type="curve" smooth="yes"/>
      <point x="167" y="-4"/>
      <point x="192" y="13"/>
      <point x="193" y="27" type="curve"/>
      <point x="188" y="76"/>
      <point x="184" y="112"/>
      <point x="184" y="170" type="curve" smooth="yes"/>
      <point x="184" y="199" type="line" smooth="yes"/>
      <point x="184" y="209"/>
      <point x="184" y="318"/>
      <point x="184" y="380" type="curve" smooth="yes"/>
    </contour>
    <contour>
      <point x="-6" y="663"/>
      <point x="-7" y="625"/>
      <point x="-7" y="605" type="curve" smooth="yes"/>
      <point x="-7" y="592"/>
      <point x="-1" y="566"/>
      <point x="36" y="566" type="curve" smooth="yes"/>
      <point x="68" y="566"/>
      <point x="94" y="581"/>
      <point x="94" y="607" type="curve" smooth="yes"/>
      <point x="94" y="646"/>
      <point x="57" y="660"/>
      <point x="25" y="661" type="curve" smooth="yes"/>
    </contour>
    <contour>
      <point x="162" y="663"/>
      <point x="161" y="625"/>
      <point x="161" y="605" type="curve" smooth="yes"/>
      <point x="161" y="592"/>
      <point x="167" y="566"/>
      <point x="204" y="566" type="curve" smooth="yes"/>
      <point x="237" y="566"/>
      <point x="262" y="581"/>
      <point x="262" y="607" type="curve" smooth="yes"/>
      <point x="262" y="646"/>
      <point x="225" y="660"/>
      <point x="194" y="661" type="curve" smooth="yes"/>
    </contour>
  </outline>
</glyph>
<glyph name="ocircumflex" format="1">
  <advance width="512"/>
  <unicode hex="00F4"/>
  <outline>
    <contour>
      <point x="404" y="400"/>
      <point x="341" y="433"/>
      <point x="248" y="433" type="curve" smooth="yes"/>
      <point x="202" y="433"/>
      <point x="131" y="409"/>
      <point x="107" y="377" type="curve"/>
      <point x="73" y="335"/>
      <point x="45" y="269"/>
      <point x="45" y="214" type="curve" smooth="yes"/>
      <point x="45" y="192"/>
      <point x="66" y="124"/>
      <point x="72" y="105" type="curve"/>
      <point x="98" y="49"/>
      <point x="178" y="-4"/>
      <point x="246" y="-4" type="curve" smooth="yes"/>
      <point x="349" y="-4"/>
      <point x="411" y="51"/>
      <point x="450" y="122" type="curve"/>
      <point x="454" y="139"/>
      <point x="467" y="192"/>
      <point x="467" y="233" type="curve" smooth="yes"/>
      <point x="467" y="260"/>
      <point x="460" y="301"/>
      <point x="449" y="321" type="curve" smooth="yes"/>
    </contour>
    <contour>
      <point x="344" y="119"/>
      <point x="313" y="81"/>
      <point x="247" y="81" type="curve" smooth="yes"/>
      <point x="203" y="81"/>
      <point x="167" y="121"/>
      <point x="162" y="132" type="curve"/>
      <point x="157" y="142"/>
      <point x="147" y="192"/>
      <point x="147" y="205" type="curve" smooth="yes"/>
      <point x="147" y="267"/>
      <point x="172" y="352"/>
      <point x="255" y="352" type="curve" smooth="yes"/>
      <point x="299" y="352"/>
      <point x="326" y="332"/>
      <point x="326" y="332" type="curve"/>
      <point x="353" y="305"/>
      <point x="367" y="265"/>
      <point x="367" y="227" type="curve" smooth="yes"/>
      <point x="367" y="192"/>
      <point x="365" y="168"/>
      <point x="362" y="160" type="curve"/>
    </contour>
    <contour>
      <point x="221" y="689"/>
      <point x="208" y="672"/>
      <point x="201" y="663" type="curve" smooth="yes"/>
      <point x="194" y="654"/>
      <point x="181" y="637"/>
      <point x="152" y="613" type="curve" smooth="yes"/>
      <point x="134" y="598"/>
      <point x="112" y="573"/>
      <point x="112" y="562" type="curve" smooth="yes"/>
      <point x="112" y="552"/>
      <point x="118" y="535"/>
      <point x="142" y="535" type="curve" smooth="yes"/>
      <point x="183" y="535"/>
      <point x="236" y="586"/>
      <point x="259" y="619" type="curve"/>
      <point x="287" y="580"/>
      <point x="325" y="535"/>
      <point x="375" y="535" type="curve" smooth="yes"/>
      <point x="393" y="535"/>
      <point x="405" y="552"/>
      <point x="405" y="562" type="curve" smooth="yes"/>
      <point x="405" y="570"/>
      <point x="402" y="580"/>
      <point x="383" y="594" type="curve" smooth="yes"/>
      <point x="360" y="610"/>
      <point x="330" y="639"/>
      <point x="316" y="659" type="curve" smooth="yes"/>
      <point x="303" y="679"/>
      <point x="289" y="689"/>
      <point x="257" y="689" type="curve" smooth="yes"/>
    </contour>
  </outline>
</glyph>
<glyph name="otilde" format="1">
  <advance width="512"/>
  <unicode hex="00F5"/>
  <outline>
    <contour>
      <point x="460" y="301"/>
      <point x="467" y="260"/>
      <point x="467" y="233" type="curve" smooth="yes"/>
      <point x="467" y="192"/>
      <point x="454" y="139"/>
      <point x="450" y="122" type="curve"/>
      <point x="411" y="51"/>
      <point x="349" y="-4"/>
      <point x="246" y="-4" type="curve" smooth="yes"/>
      <point x="178" y="-4"/>
      <point x="98" y="49"/>
      <point x="72" y="105" type="curve"/>
      <point x="66" y="124"/>
      <point x="45" y="192"/>
      <point x="45" y="214" type="curve" smooth="yes"/>
      <point x="45" y="269"/>
      <point x="73" y="335"/>
      <point x="107" y="377" type="curve"/>
      <point x="131" y="409"/>
      <point x="202" y="433"/>
      <point x="248" y="433" type="curve" smooth="yes"/>
      <point x="341" y="433"/>
      <point x="404" y="400"/>
      <point x="449" y="321" type="curve" smooth="yes"/>
    </contour>
    <contour>
      <point x="365" y="168"/>
      <point x="367" y="192"/>
      <point x="367" y="227" type="curve" smooth="yes"/>
      <point x="367" y="265"/>
      <point x="353" y="305"/>
      <point x="326" y="332" type="curve"/>
      <point x="326" y="332"/>
      <point x="299" y="352"/>
      <point x="255" y="352" type="curve" smooth="yes"/>
      <point x="172" y="352"/>
      <point x="147" y="267"/>
      <point x="147" y="205" type="curve" smooth="yes"/>
      <point x="147" y="192"/>
      <point x="157" y="142"/>
      <point x="162" y="132" type="curve"/>
      <point x="167" y="121"/>
      <point x="203" y="81"/>
      <point x="247" y="81" type="curve" smooth="yes"/>
      <point x="313" y="81"/>
      <point x="344" y="119"/>
      <point x="362" y="160" type="curve"/>
    </contour>
    <contour>
      <point x="96" y="555"/>
      <point x="117" y="545"/>
      <point x="128" y="545" type="curve" smooth="yes"/>
      <point x="144" y="545"/>
      <point x="158" y="552"/>
      <point x="169" y="568" type="curve" smooth="yes"/>
      <point x="181" y="586"/>
      <point x="199" y="592"/>
      <point x="215" y="592" type="curve" smooth="yes"/>
      <point x="248" y="592"/>
      <point x="261" y="547"/>
      <point x="328" y="547" type="curve" smooth="yes"/>
      <point x="374" y="547"/>
      <point x="425" y="590"/>
      <point x="425" y="631" type="curve" smooth="yes"/>
      <point x="425" y="652"/>
      <point x="406" y="661"/>
      <point x="391" y="661" type="curve" smooth="yes"/>
      <point x="375" y="661"/>
      <point x="367" y="653"/>
      <point x="360" y="643" type="curve"/>
      <point x="353" y="632"/>
      <point x="347" y="619"/>
      <point x="330" y="619" type="curve"/>
      <point x="317" y="618"/>
      <point x="302" y="625"/>
      <point x="284" y="638" type="curve" smooth="yes"/>
      <point x="262" y="653"/>
      <point x="236" y="662"/>
      <point x="211" y="662" type="curve" smooth="yes"/>
      <point x="163" y="662"/>
      <point x="96" y="627"/>
      <point x="96" y="574" type="curve" smooth="yes"/>
    </contour>
  </outline>
</glyph>
<glyph name="oslash" format="1">
  <advance width="512"/>
  <unicode hex="00F8"/>
  <outline>
    <contour>
      <point x="436" y="342"/>
      <point x="422" y="361"/>
      <point x="406" y="376" type="curve"/>
      <point x="426" y="401"/>
      <point x="447" y="423"/>
      <point x="447" y="432" type="curve" smooth="yes"/>
      <point x="447" y="448"/>
      <point x="431" y="459"/>
      <point x="415" y="459" type="curve" smooth="yes"/>
      <point x="404" y="459"/>
      <point x="393" y="456"/>
      <point x="385" y="445" type="curve"/>
      <point x="376" y="434"/>
      <point x="368" y="422"/>
      <point x="359" y="409" type="curve"/>
      <point x="328" y="424"/>
      <point x="291" y="431"/>
      <point x="248" y="431" type="curve" smooth="yes"/>
      <point x="202" y="431"/>
      <point x="131" y="408"/>
      <point x="107" y="375" type="curve"/>
      <point x="73" y="333"/>
      <point x="45" y="269"/>
      <point x="45" y="214" type="curve" smooth="yes"/>
      <point x="45" y="192"/>
      <point x="66" y="126"/>
      <point x="72" y="107" type="curve"/>
      <point x="78" y="93"/>
      <point x="89" y="78"/>
      <point x="102" y="66" type="curve"/>
      <point x="92" y="53"/>
      <point x="83" y="40"/>
      <point x="70" y="22" type="curve"/>
      <point x="67" y="17"/>
      <point x="66" y="13"/>
      <point x="66" y="6" type="curve" smooth="yes"/>
      <point x="66" y="-12"/>
      <point x="85" y="-25"/>
      <point x="102" y="-25" type="curve" smooth="yes"/>
      <point x="108" y="-25"/>
      <point x="116" y="-21"/>
      <point x="120" y="-15" type="curve" smooth="yes"/>
      <point x="149" y="27" type="line"/>
      <point x="180" y="9"/>
      <point x="214" y="-2"/>
      <point x="246" y="-2" type="curve" smooth="yes"/>
      <point x="326" y="-2"/>
      <point x="411" y="53"/>
      <point x="450" y="124" type="curve"/>
      <point x="454" y="140"/>
      <point x="467" y="192"/>
      <point x="467" y="233" type="curve" smooth="yes"/>
      <point x="467" y="260"/>
      <point x="460" y="299"/>
      <point x="449" y="319" type="curve" smooth="yes"/>
    </contour>
    <contour>
      <point x="344" y="121"/>
      <point x="285" y="82"/>
      <point x="247" y="82" type="curve" smooth="yes"/>
      <point x="232" y="82"/>
      <point x="215" y="89"/>
      <point x="201" y="98" type="curve"/>
      <point x="260" y="179"/>
      <point x="303" y="233"/>
      <point x="350" y="297" type="curve"/>
      <point x="361" y="275"/>
      <point x="367" y="251"/>
      <point x="367" y="227" type="curve" smooth="yes"/>
      <point x="367" y="192"/>
      <point x="365" y="170"/>
      <point x="362" y="162" type="curve"/>
    </contour>
    <contour>
      <point x="229" y="228"/>
      <point x="184" y="169"/>
      <point x="160" y="140" type="curve"/>
      <point x="155" y="157"/>
      <point x="147" y="193"/>
      <point x="147" y="205" type="curve" smooth="yes"/>
      <point x="147" y="267"/>
      <point x="172" y="350"/>
      <point x="255" y="350" type="curve" smooth="yes"/>
      <point x="278" y="350"/>
      <point x="297" y="345"/>
      <point x="309" y="339" type="curve"/>
    </contour>
  </outline>
</glyph>
<glyph name="amacron" format="1">
  <advance width="521"/>
  <unicode hex="0101"/>
  <outline>
    <contour>
      <point x="508" y="62"/>
      <point x="501" y="76"/>
      <point x="485" y="76" type="curve" smooth="yes"/>
      <point x="473" y="76"/>
      <point x="467" y="75"/>
      <point x="457" y="75" type="curve" smooth="yes"/>
      <point x="442" y="75"/>
      <point x="427" y="87"/>
      <point x="427" y="104" type="curve" smooth="yes"/>
      <point x="427" y="128"/>
      <point x="431" y="147"/>
      <point x="431" y="166" type="curve" smooth="yes"/>
      <point x="431" y="201"/>
      <point x="435" y="225"/>
      <point x="435" y="253" type="curve" smooth="yes"/>
      <point x="435" y="309"/>
      <point x="410" y="356"/>
      <point x="372" y="389" type="curve"/>
      <point x="336" y="418"/>
      <point x="274" y="432"/>
      <point x="239" y="432" type="curve" smooth="yes"/>
      <point x="185" y="432"/>
      <point x="78" y="403"/>
      <point x="78" y="340" type="curve" smooth="yes"/>
      <point x="78" y="328"/>
      <point x="90" y="305"/>
      <point x="103" y="305" type="curve" smooth="yes"/>
      <point x="121" y="305"/>
      <point x="141" y="312"/>
      <point x="156" y="320" type="curve" smooth="yes"/>
      <point x="175" y="331"/>
      <point x="201" y="346"/>
      <point x="227" y="346" type="curve" smooth="yes"/>
      <point x="301" y="346"/>
      <point x="337" y="325"/>
      <point x="337" y="251" type="curve" smooth="yes"/>
      <point x="337" y="235" type="line"/>
      <point x="317" y="246"/>
      <point x="271" y="260"/>
      <point x="242" y="260" type="curve" smooth="yes"/>
      <point x="189" y="260"/>
      <point x="138" y="246"/>
      <point x="99" y="220" type="curve" smooth="yes"/>
      <point x="67" y="198"/>
      <point x="43" y="166"/>
      <point x="43" y="127" type="curve" smooth="yes"/>
      <point x="43" y="36"/>
      <point x="108" y="-5"/>
      <point x="185" y="-5" type="curve" smooth="yes"/>
      <point x="227" y="-5"/>
      <point x="301" y="7"/>
      <point x="339" y="41" type="curve"/>
      <point x="365" y="5"/>
      <point x="393" y="-4"/>
      <point x="441" y="-4" type="curve" smooth="yes"/>
      <point x="463" y="-4"/>
      <point x="508" y="15"/>
      <point x="508" y="48" type="curve" smooth="yes"/>
    </contour>
    <contour>
      <point x="166" y="74"/>
      <point x="137" y="92"/>
      <point x="137" y="119" type="curve" smooth="yes"/>
      <point x="137" y="175"/>
      <point x="200" y="187"/>
      <point x="242" y="187" type="curve" smooth="yes"/>
      <point x="270" y="187"/>
      <point x="301" y="176"/>
      <point x="333" y="161" type="curve"/>
      <point x="332" y="137"/>
      <point x="331" y="129"/>
      <point x="328" y="116" type="curve"/>
      <point x="274" y="84"/>
      <point x="244" y="74"/>
      <point x="186" y="74" type="curve" smooth="yes"/>
    </contour>
    <contour>
      <point x="329" y="509" type="line" smooth="yes"/>
      <point x="376" y="509"/>
      <point x="390" y="516"/>
      <point x="390" y="558" type="curve" smooth="yes"/>
      <point x="390" y="577"/>
      <point x="297" y="576"/>
      <point x="237" y="576" type="curve" smooth="yes"/>
      <point x="170" y="576"/>
      <point x="117" y="572"/>
      <point x="117" y="538" type="curve" smooth="yes"/>
      <point x="117" y="508"/>
      <point x="123" y="503"/>
      <point x="147" y="503" type="curve" smooth="yes"/>
      <point x="155" y="503"/>
      <point x="187" y="506"/>
      <point x="217" y="506" type="curve" smooth="yes"/>
    </contour>
  </outline>
</glyph>
<glyph name="Aogonek" format="1">
  <advance width="640"/>
  <unicode hex="0104"/>
  <outline>
    <contour>
      <point x="531" y="12" type="line"/>
      <point x="515" y="2"/>
      <point x="497" y="-16"/>
      <point x="484" y="-31" type="curve" smooth="yes"/>
      <point x="467" y="-50"/>
      <point x="448" y="-80"/>
      <point x="448" y="-135" type="curve" smooth="yes"/>
      <point x="448" y="-184"/>
      <point x="487" y="-212"/>
      <point x="541" y="-212" type="curve" smooth="yes"/>
      <point x="583" y="-212"/>
      <point x="613" y="-193"/>
      <point x="613" y="-167" type="curve" smooth="yes"/>
      <point x="613" y="-145"/>
      <point x="607" y="-138"/>
      <point x="592" y="-138" type="curve" smooth="yes"/>
      <point x="583" y="-138"/>
      <point x="574" y="-146"/>
      <point x="553" y="-146" type="curve" smooth="yes"/>
      <point x="535" y="-146"/>
      <point x="518" y="-140"/>
      <point x="518" y="-120" type="curve" smooth="yes"/>
      <point x="518" y="-104"/>
      <point x="522" y="-93"/>
      <point x="532" y="-78" type="curve" smooth="yes"/>
      <point x="541" y="-64"/>
      <point x="591" y="-5"/>
      <point x="607" y="6" type="curve" smooth="yes"/>
      <point x="617" y="13"/>
      <point x="624" y="26"/>
      <point x="624" y="44" type="curve" smooth="yes"/>
      <point x="624" y="52"/>
      <point x="616" y="67"/>
      <point x="608" y="80" type="curve" smooth="yes"/>
      <point x="562" y="157"/>
      <point x="526" y="260"/>
      <point x="493" y="342" type="curve" smooth="yes"/>
      <point x="457" y="435"/>
      <point x="423" y="526"/>
      <point x="372" y="606" type="curve" smooth="yes"/>
      <point x="355" y="634"/>
      <point x="354" y="639"/>
      <point x="316" y="639" type="curve" smooth="yes"/>
      <point x="292" y="639"/>
      <point x="273" y="625"/>
      <point x="265" y="610" type="curve" smooth="yes"/>
      <point x="176" y="450"/>
      <point x="153" y="372"/>
      <point x="92" y="226" type="curve"/>
      <point x="60" y="157"/>
      <point x="28" y="89"/>
      <point x="16" y="32" type="curve"/>
      <point x="16" y="8"/>
      <point x="49" y="-4"/>
      <point x="75" y="-4" type="curve" smooth="yes"/>
      <point x="92" y="-4"/>
      <point x="104" y="1"/>
      <point x="110" y="11" type="curve" smooth="yes"/>
      <point x="140" y="60"/>
      <point x="148" y="130"/>
      <point x="183" y="173" type="curve"/>
      <point x="247" y="172"/>
      <point x="290" y="166"/>
      <point x="351" y="166" type="curve" smooth="yes"/>
      <point x="382" y="166"/>
      <point x="412" y="169"/>
      <point x="454" y="175" type="curve"/>
      <point x="485" y="129"/>
      <point x="491" y="64"/>
      <point x="528" y="15" type="curve"/>
    </contour>
    <contour>
      <point x="393" y="249"/>
      <point x="359" y="250"/>
      <point x="319" y="250" type="curve" smooth="yes"/>
      <point x="280" y="250"/>
      <point x="244" y="253"/>
      <point x="204" y="258" type="curve"/>
      <point x="224" y="313"/>
      <point x="240" y="354"/>
      <point x="261" y="394" type="curve" smooth="yes"/>
      <point x="280" y="433"/>
      <point x="300" y="475"/>
      <point x="317" y="518" type="curve"/>
      <point x="342" y="475"/>
      <point x="362" y="424"/>
      <point x="379" y="375" type="curve" smooth="yes"/>
      <point x="392" y="338"/>
      <point x="407" y="294"/>
      <point x="425" y="257" type="curve"/>
    </contour>
  </outline>
</glyph>
<glyph name="Cacute" format="1">
  <advance width="643"/>
  <unicode hex="0106"/>
  <outline>
    <contour>
      <point x="512" y="613"/>
      <point x="471" y="638"/>
      <point x="378" y="638" type="curve" smooth="yes"/>
      <point x="320" y="638"/>
      <point x="208" y="622"/>
      <point x="156" y="574" type="curve" smooth="yes"/>
      <point x="82" y="508"/>
      <point x="50" y="392"/>
      <point x="50" y="283" type="curve" smooth="yes"/>
      <point x="50" y="236"/>
      <point x="81" y="148"/>
      <point x="107" y="111" type="curve"/>
      <point x="157" y="49"/>
      <point x="262" y="-2"/>
      <point x="355" y="-2" type="curve" smooth="yes"/>
      <point x="448" y="-2"/>
      <point x="527" y="12"/>
      <point x="586" y="78" type="curve" smooth="yes"/>
      <point x="602" y="97"/>
      <point x="607" y="111"/>
      <point x="607" y="130" type="curve" smooth="yes"/>
      <point x="607" y="149"/>
      <point x="583" y="172"/>
      <point x="562" y="172" type="curve" smooth="yes"/>
      <point x="548" y="172"/>
      <point x="532" y="169"/>
      <point x="517" y="153" type="curve"/>
      <point x="518" y="153" type="line"/>
      <point x="476" y="104"/>
      <point x="414" y="91"/>
      <point x="373" y="91" type="curve" smooth="yes"/>
      <point x="233" y="91"/>
      <point x="157" y="190"/>
      <point x="157" y="304" type="curve" smooth="yes"/>
      <point x="157" y="368"/>
      <point x="179" y="446"/>
      <point x="206" y="479" type="curve" smooth="yes"/>
      <point x="239" y="518"/>
      <point x="326" y="545"/>
      <point x="378" y="545" type="curve" smooth="yes"/>
      <point x="454" y="545"/>
      <point x="478" y="503"/>
      <point x="489" y="486" type="curve"/>
      <point x="499" y="469"/>
      <point x="513" y="461"/>
      <point x="541" y="461" type="curve" smooth="yes"/>
      <point x="563" y="461"/>
      <point x="587" y="491"/>
      <point x="587" y="505" type="curve" smooth="yes"/>
      <point x="587" y="518"/>
      <point x="581" y="530"/>
      <point x="560" y="555" type="curve" smooth="yes"/>
    </contour>
    <contour>
      <point x="377" y="864"/>
      <point x="358" y="854"/>
      <point x="342" y="821" type="curve" smooth="yes"/>
      <point x="324" y="782"/>
      <point x="310" y="776"/>
      <point x="297" y="763" type="curve"/>
      <point x="282" y="751"/>
      <point x="276" y="746"/>
      <point x="276" y="737" type="curve" smooth="yes"/>
      <point x="276" y="726"/>
      <point x="282" y="717"/>
      <point x="297" y="717" type="curve" smooth="yes"/>
      <point x="309" y="717"/>
      <point x="349" y="724"/>
      <point x="371" y="738" type="curve"/>
      <point x="395" y="752"/>
      <point x="450" y="790"/>
      <point x="450" y="832" type="curve" smooth="yes"/>
      <point x="450" y="851"/>
      <point x="432" y="864"/>
      <point x="404" y="864" type="curve" smooth="yes"/>
    </contour>
  </outline>
</glyph>
<glyph name="Cdotaccent" format="1">
  <advance width="643"/>
  <unicode hex="010A"/>
  <outline>
    <contour>
      <point x="512" y="613"/>
      <point x="471" y="638"/>
      <point x="378" y="638" type="curve" smooth="yes"/>
      <point x="320" y="638"/>
      <point x="208" y="622"/>
      <point x="156" y="574" type="curve" smooth="yes"/>
      <point x="82" y="508"/>
      <point x="50" y="392"/>
      <point x="50" y="283" type="curve" smooth="yes"/>
      <point x="50" y="236"/>
      <point x="81" y="148"/>
      <point x="107" y="111" type="curve"/>
      <point x="157" y="49"/>
      <point x="262" y="-2"/>
      <point x="355" y="-2" type="curve" smooth="yes"/>
      <point x="448" y="-2"/>
      <point x="527" y="12"/>
      <point x="586" y="78" type="curve" smooth="yes"/>
      <point x="602" y="97"/>
      <point x="607" y="111"/>
      <point x="607" y="130" type="curve" smooth="yes"/>
      <point x="607" y="149"/>
      <point x="583" y="172"/>
      <point x="562" y="172" type="curve" smooth="yes"/>
      <point x="548" y="172"/>
      <point x="532" y="169"/>
      <point x="517" y="153" type="curve"/>
      <point x="518" y="153" type="line"/>
      <point x="476" y="104"/>
      <point x="414" y="91"/>
      <point x="373" y="91" type="curve" smooth="yes"/>
      <point x="233" y="91"/>
      <point x="157" y="190"/>
      <point x="157" y="304" type="curve" smooth="yes"/>
      <point x="157" y="368"/>
      <point x="179" y="446"/>
      <point x="206" y="479" type="curve" smooth="yes"/>
      <point x="239" y="518"/>
      <point x="326" y="545"/>
      <point x="378" y="545" type="curve" smooth="yes"/>
      <point x="454" y="545"/>
      <point x="478" y="503"/>
      <point x="489" y="486" type="curve"/>
      <point x="499" y="469"/>
      <point x="513" y="461"/>
      <point x="541" y="461" type="curve" smooth="yes"/>
      <point x="563" y="461"/>
      <point x="587" y="491"/>
      <point x="587" y="505" type="curve" smooth="yes"/>
      <point x="587" y="518"/>
      <point x="581" y="530"/>
      <point x="560" y="555" type="curve" smooth="yes"/>
    </contour>
    <contour>
      <point x="408" y="818"/>
      <point x="393" y="837"/>
      <point x="357" y="837" type="curve" smooth="yes"/>
      <point x="326" y="837"/>
      <point x="295" y="820"/>
      <point x="295" y="777" type="curve" smooth="yes"/>
      <point x="295" y="749"/>
      <point x="319" y="732"/>
      <point x="347" y="732" type="curve" smooth="yes"/>
      <point x="372" y="732"/>
      <point x="408" y="750"/>
      <point x="408" y="787" type="curve" smooth="yes"/>
    </contour>
  </outline>
</glyph>
<glyph name="Ccaron" format="1">
  <advance width="643"/>
  <unicode hex="010C"/>
  <outline>
    <contour>
      <point x="512" y="613"/>
      <point x="471" y="638"/>
      <point x="378" y="638" type="curve" smooth="yes"/>
      <point x="320" y="638"/>
      <point x="208" y="622"/>
      <point x="156" y="574" type="curve" smooth="yes"/>
      <point x="82" y="508"/>
      <point x="50" y="392"/>
      <point x="50" y="283" type="curve" smooth="yes"/>
      <point x="50" y="236"/>
      <point x="81" y="148"/>
      <point x="107" y="111" type="curve"/>
      <point x="157" y="49"/>
      <point x="262" y="-2"/>
      <point x="355" y="-2" type="curve" smooth="yes"/>
      <point x="448" y="-2"/>
      <point x="527" y="12"/>
      <point x="586" y="78" type="curve" smooth="yes"/>
      <point x="602" y="97"/>
      <point x="607" y="111"/>
      <point x="607" y="130" type="curve" smooth="yes"/>
      <point x="607" y="149"/>
      <point x="583" y="172"/>
      <point x="562" y="172" type="curve" smooth="yes"/>
      <point x="548" y="172"/>
      <point x="532" y="169"/>
      <point x="517" y="153" type="curve"/>
      <point x="518" y="153" type="line"/>
      <point x="476" y="104"/>
      <point x="414" y="91"/>
      <point x="373" y="91" type="curve" smooth="yes"/>
      <point x="233" y="91"/>
      <point x="157" y="190"/>
      <point x="157" y="304" type="curve" smooth="yes"/>
      <point x="157" y="368"/>
      <point x="179" y="446"/>
      <point x="206" y="479" type="curve" smooth="yes"/>
      <point x="239" y="518"/>
      <point x="326" y="545"/>
      <point x="378" y="545" type="curve" smooth="yes"/>
      <point x="454" y="545"/>
      <point x="478" y="503"/>
      <point x="489" y="486" type="curve"/>
      <point x="499" y="469"/>
      <point x="513" y="461"/>
      <point x="541" y="461" type="curve" smooth="yes"/>
      <point x="563" y="461"/>
      <point x="587" y="491"/>
      <point x="587" y="505" type="curve" smooth="yes"/>
      <point x="587" y="518"/>
      <point x="581" y="530"/>
      <point x="560" y="555" type="curve" smooth="yes"/>
    </contour>
    <contour>
      <point x="381" y="713"/>
      <point x="399" y="724"/>
      <point x="406" y="733" type="curve" smooth="yes"/>
      <point x="413" y="742"/>
      <point x="430" y="762"/>
      <point x="458" y="789" type="curve" smooth="yes"/>
      <point x="475" y="805"/>
      <point x="498" y="829"/>
      <point x="498" y="840" type="curve" smooth="yes"/>
      <point x="498" y="850"/>
      <point x="471" y="867"/>
      <point x="448" y="867" type="curve" smooth="yes"/>
      <point x="420" y="867"/>
      <point x="396" y="822"/>
      <point x="351" y="784" type="curve"/>
      <point x="313" y="818"/>
      <point x="294" y="867"/>
      <point x="244" y="867" type="curve" smooth="yes"/>
      <point x="226" y="867"/>
      <point x="205" y="850"/>
      <point x="205" y="840" type="curve" smooth="yes"/>
      <point x="205" y="832"/>
      <point x="212" y="825"/>
      <point x="227" y="808" type="curve" smooth="yes"/>
      <point x="249" y="784"/>
      <point x="278" y="753"/>
      <point x="291" y="741" type="curve"/>
      <point x="308" y="724"/>
      <point x="321" y="713"/>
      <point x="353" y="713" type="curve" smooth="yes"/>
    </contour>
  </outline>
</glyph>
<glyph name="emacron" format="1">
  <advance width="477"/>
  <unicode hex="0113"/>
  <outline>
    <contour>
      <point x="45" y="151"/>
      <point x="65" y="97"/>
      <point x="97" y="60" type="curve"/>
      <point x="136" y="18"/>
      <point x="199" y="-5"/>
      <point x="261" y="-5" type="curve" smooth="yes"/>
      <point x="296" y="-5"/>
      <point x="417" y="13"/>
      <point x="417" y="67" type="curve" smooth="yes"/>
      <point x="417" y="90"/>
      <point x="404" y="108"/>
      <point x="378" y="108" type="curve" smooth="yes"/>
      <point x="364" y="108"/>
      <point x="351" y="104"/>
      <point x="337" y="99" type="curve" smooth="yes"/>
      <point x="319" y="92"/>
      <point x="293" y="87"/>
      <point x="270" y="87" type="curve" smooth="yes"/>
      <point x="231" y="87"/>
      <point x="202" y="89"/>
      <point x="173" y="116" type="curve" smooth="yes"/>
      <point x="158" y="130"/>
      <point x="147" y="159"/>
      <point x="144" y="184" type="curve"/>
      <point x="186" y="174"/>
      <point x="234" y="168"/>
      <point x="264" y="168" type="curve" smooth="yes"/>
      <point x="295" y="168"/>
      <point x="364" y="171"/>
      <point x="390" y="198" type="curve" smooth="yes"/>
      <point x="411" y="220"/>
      <point x="434" y="245"/>
      <point x="434" y="285" type="curve" smooth="yes"/>
      <point x="434" y="304"/>
      <point x="432" y="338"/>
      <point x="397" y="387" type="curve" smooth="yes"/>
      <point x="373" y="421"/>
      <point x="301" y="432"/>
      <point x="258" y="432" type="curve" smooth="yes"/>
      <point x="211" y="432"/>
      <point x="129" y="405"/>
      <point x="96" y="359" type="curve" smooth="yes"/>
      <point x="67" y="319"/>
      <point x="45" y="265"/>
      <point x="45" y="212" type="curve" smooth="yes"/>
    </contour>
    <contour>
      <point x="300" y="347"/>
      <point x="344" y="321"/>
      <point x="344" y="292" type="curve" smooth="yes"/>
      <point x="344" y="264"/>
      <point x="312" y="245"/>
      <point x="254" y="245" type="curve" smooth="yes"/>
      <point x="220" y="245"/>
      <point x="169" y="247"/>
      <point x="150" y="253" type="curve"/>
      <point x="153" y="281"/>
      <point x="162" y="292"/>
      <point x="183" y="315" type="curve" smooth="yes"/>
      <point x="202" y="336"/>
      <point x="235" y="347"/>
      <point x="263" y="347" type="curve" smooth="yes"/>
    </contour>
    <contour>
      <point x="322" y="510" type="line" smooth="yes"/>
      <point x="369" y="510"/>
      <point x="383" y="517"/>
      <point x="383" y="559" type="curve" smooth="yes"/>
      <point x="383" y="578"/>
      <point x="290" y="577"/>
      <point x="230" y="577" type="curve" smooth="yes"/>
      <point x="163" y="577"/>
      <point x="110" y="573"/>
      <point x="110" y="539" type="curve" smooth="yes"/>
      <point x="110" y="509"/>
      <point x="116" y="504"/>
      <point x="140" y="504" type="curve" smooth="yes"/>
      <point x="148" y="504"/>
      <point x="180" y="507"/>
      <point x="210" y="507" type="curve" smooth="yes"/>
    </contour>
  </outline>
</glyph>
<glyph name="ebreve" format="1">
  <advance width="477"/>
  <unicode hex="0115"/>
  <outline>
    <contour>
      <point x="45" y="265"/>
      <point x="67" y="319"/>
      <point x="96" y="359" type="curve" smooth="yes"/>
      <point x="129" y="405"/>
      <point x="211" y="432"/>
      <point x="258" y="432" type="curve" smooth="yes"/>
      <point x="301" y="432"/>
      <point x="373" y="421"/>
      <point x="397" y="387" type="curve" smooth="yes"/>
      <point x="432" y="338"/>
      <point x="434" y="304"/>
      <point x="434" y="285" type="curve" smooth="yes"/>
      <point x="434" y="245"/>
      <point x="411" y="220"/>
      <point x="390" y="198" type="curve" smooth="yes"/>
      <point x="364" y="171"/>
      <point x="295" y="168"/>
      <point x="264" y="168" type="curve" smooth="yes"/>
      <point x="234" y="168"/>
      <point x="186" y="174"/>
      <point x="144" y="184" type="curve"/>
      <point x="147" y="159"/>
      <point x="158" y="130"/>
      <point x="173" y="116" type="curve" smooth="yes"/>
      <point x="202" y="89"/>
      <point x="231" y="87"/>
      <point x="270" y="87" type="curve" smooth="yes"/>
      <point x="293" y="87"/>
      <point x="319" y="92"/>
      <point x="337" y="99" type="curve" smooth="yes"/>
      <point x="351" y="104"/>
      <point x="364" y="108"/>
      <point x="378" y="108" type="curve" smooth="yes"/>
      <point x="404" y="108"/>
      <point x="417" y="90"/>
      <point x="417" y="67" type="curve" smooth="yes"/>
      <point x="417" y="13"/>
      <point x="296" y="-5"/>
      <point x="261" y="-5" type="curve" smooth="yes"/>
      <point x="199" y="-5"/>
      <point x="136" y="18"/>
      <point x="97" y="60" type="curve"/>
      <point x="65" y="97"/>
      <point x="45" y="151"/>
      <point x="45" y="212" type="curve" smooth="yes"/>
    </contour>
    <contour>
      <point x="235" y="347"/>
      <point x="202" y="336"/>
      <point x="183" y="315" type="curve" smooth="yes"/>
      <point x="162" y="292"/>
      <point x="153" y="281"/>
      <point x="150" y="253" type="curve"/>
      <point x="169" y="247"/>
      <point x="220" y="245"/>
      <point x="254" y="245" type="curve" smooth="yes"/>
      <point x="312" y="245"/>
      <point x="344" y="264"/>
      <point x="344" y="292" type="curve" smooth="yes"/>
      <point x="344" y="321"/>
      <point x="300" y="347"/>
      <point x="263" y="347" type="curve" smooth="yes"/>
    </contour>
    <contour>
      <point x="143" y="520"/>
      <point x="186" y="487"/>
      <point x="247" y="487" type="curve" smooth="yes"/>
      <point x="335" y="487"/>
      <point x="365" y="543"/>
      <point x="379" y="573" type="curve" smooth="yes"/>
      <point x="383" y="581"/>
      <point x="385" y="591"/>
      <point x="385" y="596" type="curve" smooth="yes"/>
      <point x="385" y="609"/>
      <point x="365" y="618"/>
      <point x="356" y="618" type="curve" smooth="yes"/>
      <point x="343" y="618"/>
      <point x="334" y="614"/>
      <point x="322" y="599" type="curve"/>
      <point x="301" y="575"/>
      <point x="279" y="560"/>
      <point x="245" y="560" type="curve" smooth="yes"/>
      <point x="206" y="560"/>
      <point x="185" y="582"/>
      <point x="172" y="596" type="curve"/>
      <point x="161" y="606"/>
      <point x="151" y="614"/>
      <point x="140" y="614" type="curve" smooth="yes"/>
      <point x="123" y="614"/>
      <point x="106" y="603"/>
      <point x="106" y="595" type="curve" smooth="yes"/>
      <point x="106" y="587"/>
      <point x="111" y="574"/>
      <point x="114" y="569" type="curve" smooth="yes"/>
    </contour>
  </outline>
</glyph>
<glyph name="Edotaccent" format="1">
  <advance width="552"/>
  <unicode hex="0116"/>
  <outline>
    <contour>
      <point x="462" y="136"/>
      <point x="442" y="130"/>
      <point x="418" y="121" type="curve"/>
      <point x="382" y="110"/>
      <point x="335" y="94"/>
      <point x="259" y="94" type="curve" smooth="yes"/>
      <point x="174" y="94"/>
      <point x="165" y="138"/>
      <point x="165" y="165" type="curve" smooth="yes"/>
      <point x="165" y="197"/>
      <point x="166" y="237"/>
      <point x="168" y="278" type="curve"/>
      <point x="183" y="277"/>
      <point x="200" y="276"/>
      <point x="215" y="276" type="curve" smooth="yes"/>
      <point x="281" y="276"/>
      <point x="355" y="282"/>
      <point x="402" y="291" type="curve" smooth="yes"/>
      <point x="442" y="299"/>
      <point x="454" y="315"/>
      <point x="454" y="343" type="curve" smooth="yes"/>
      <point x="454" y="361"/>
      <point x="439" y="373"/>
      <point x="409" y="373" type="curve" smooth="yes"/>
      <point x="382" y="373"/>
      <point x="350" y="371"/>
      <point x="318" y="368" type="curve" smooth="yes"/>
      <point x="271" y="364"/>
      <point x="221" y="358"/>
      <point x="172" y="364" type="curve"/>
      <point x="172" y="402"/>
      <point x="177" y="450"/>
      <point x="186" y="516" type="curve"/>
      <point x="189" y="532"/>
      <point x="204" y="537"/>
      <point x="240" y="540" type="curve"/>
      <point x="256" y="542"/>
      <point x="274" y="543"/>
      <point x="289" y="543" type="curve" smooth="yes"/>
      <point x="347" y="543"/>
      <point x="405" y="535"/>
      <point x="465" y="535" type="curve" smooth="yes"/>
      <point x="505" y="535"/>
      <point x="519" y="573"/>
      <point x="519" y="593" type="curve" smooth="yes"/>
      <point x="519" y="620"/>
      <point x="493" y="626"/>
      <point x="460" y="632" type="curve"/>
      <point x="436" y="635"/>
      <point x="405" y="635"/>
      <point x="382" y="635" type="curve" smooth="yes"/>
      <point x="359" y="635"/>
      <point x="328" y="634"/>
      <point x="295" y="634" type="curve" smooth="yes"/>
      <point x="260" y="633"/>
      <point x="223" y="632"/>
      <point x="194" y="632" type="curve" smooth="yes"/>
      <point x="153" y="632"/>
      <point x="98" y="611"/>
      <point x="88" y="541" type="curve" smooth="yes"/>
      <point x="67" y="390"/>
      <point x="61" y="310"/>
      <point x="61" y="213" type="curve" smooth="yes"/>
      <point x="61" y="112"/>
      <point x="61" y="-1"/>
      <point x="252" y="-1" type="curve" smooth="yes"/>
      <point x="351" y="-1"/>
      <point x="436" y="18"/>
      <point x="489" y="43" type="curve" smooth="yes"/>
      <point x="511" y="54"/>
      <point x="520" y="60"/>
      <point x="520" y="90" type="curve" smooth="yes"/>
      <point x="520" y="109"/>
      <point x="510" y="136"/>
      <point x="482" y="136" type="curve" smooth="yes"/>
    </contour>
    <contour>
      <point x="362" y="818"/>
      <point x="347" y="837"/>
      <point x="311" y="837" type="curve" smooth="yes"/>
      <point x="280" y="837"/>
      <point x="249" y="820"/>
      <point x="249" y="777" type="curve" smooth="yes"/>
      <point x="249" y="749"/>
      <point x="273" y="732"/>
      <point x="301" y="732" type="curve" smooth="yes"/>
      <point x="326" y="732"/>
      <point x="362" y="750"/>
      <point x="362" y="787" type="curve" smooth="yes"/>
    </contour>
  </outline>
</glyph>
<glyph name="ecaron" format="1">
  <advance width="477"/>
  <unicode hex="011B"/>
  <outline>
    <contour>
      <point x="45" y="151"/>
      <point x="65" y="97"/>
      <point x="97" y="60" type="curve"/>
      <point x="136" y="18"/>
      <point x="199" y="-5"/>
      <point x="261" y="-5" type="curve" smooth="yes"/>
      <point x="296" y="-5"/>
      <point x="417" y="13"/>
      <point x="417" y="67" type="curve" smooth="yes"/>
      <point x="417" y="90"/>
      <point x="404" y="108"/>
      <point x="378" y="108" type="curve" smooth="yes"/>
      <point x="364" y="108"/>
      <point x="351" y="104"/>
      <point x="337" y="99" type="curve" smooth="yes"/>
      <point x="319" y="92"/>
      <point x="293" y="87"/>
      <point x="270" y="87" type="curve" smooth="yes"/>
      <point x="231" y="87"/>
      <point x="202" y="89"/>
      <point x="173" y="116" type="curve" smooth="yes"/>
      <point x="158" y="130"/>
      <point x="147" y="159"/>
      <point x="144" y="184" type="curve"/>
      <point x="186" y="174"/>
      <point x="234" y="168"/>
      <point x="264" y="168" type="curve" smooth="yes"/>
      <point x="295" y="168"/>
      <point x="364" y="171"/>
      <point x="390" y="198" type="curve" smooth="yes"/>
      <point x="411" y="220"/>
      <point x="434" y="245"/>
      <point x="434" y="285" type="curve" smooth="yes"/>
      <point x="434" y="304"/>
      <point x="432" y="338"/>
      <point x="397" y="387" type="curve" smooth="yes"/>
      <point x="373" y="421"/>
      <point x="301" y="432"/>
      <point x="258" y="432" type="curve" smooth="yes"/>
      <point x="211" y="432"/>
      <point x="129" y="405"/>
      <point x="96" y="359" type="curve" smooth="yes"/>
      <point x="67" y="319"/>
      <point x="45" y="265"/>
      <point x="45" y="212" type="curve" smooth="yes"/>
    </contour>
    <contour>
      <point x="300" y="347"/>
      <point x="344" y="321"/>
      <point x="344" y="292" type="curve" smooth="yes"/>
      <point x="344" y="264"/>
      <point x="312" y="245"/>
      <point x="254" y="245" type="curve" smooth="yes"/>
      <point x="220" y="245"/>
      <point x="169" y="247"/>
      <point x="150" y="253" type="curve"/>
      <point x="153" y="281"/>
      <point x="162" y="292"/>
      <point x="183" y="315" type="curve" smooth="yes"/>
      <point x="202" y="336"/>
      <point x="235" y="347"/>
      <point x="263" y="347" type="curve" smooth="yes"/>
    </contour>
    <contour>
      <point x="282" y="486"/>
      <point x="300" y="497"/>
      <point x="307" y="506" type="curve" smooth="yes"/>
      <point x="314" y="515"/>
      <point x="331" y="535"/>
      <point x="359" y="562" type="curve" smooth="yes"/>
      <point x="376" y="578"/>
      <point x="399" y="602"/>
      <point x="399" y="613" type="curve" smooth="yes"/>
      <point x="399" y="623"/>
      <point x="372" y="640"/>
      <point x="349" y="640" type="curve" smooth="yes"/>
      <point x="321" y="640"/>
      <point x="297" y="595"/>
      <point x="252" y="557" type="curve"/>
      <point x="214" y="591"/>
      <point x="195" y="640"/>
      <point x="145" y="640" type="curve" smooth="yes"/>
      <point x="127" y="640"/>
      <point x="106" y="623"/>
      <point x="106" y="613" type="curve" smooth="yes"/>
      <point x="106" y="605"/>
      <point x="113" y="598"/>
      <point x="128" y="581" type="curve" smooth="yes"/>
      <point x="150" y="557"/>
      <point x="179" y="526"/>
      <point x="192" y="514" type="curve"/>
      <point x="209" y="497"/>
      <point x="222" y="486"/>
      <point x="254" y="486" type="curve" smooth="yes"/>
    </contour>
  </outline>
</glyph>
<glyph name="Gcircumflex" format="1">
  <advance width="681"/>
  <unicode hex="011C"/>
  <outline>
    <contour>
      <point x="537" y="477"/>
      <point x="551" y="474"/>
      <point x="557" y="474" type="curve" smooth="yes"/>
      <point x="575" y="474"/>
      <point x="599" y="496"/>
      <point x="599" y="518" type="curve" smooth="yes"/>
      <point x="599" y="527"/>
      <point x="595" y="538"/>
      <point x="587" y="550" type="curve" smooth="yes"/>
      <point x="550" y="603"/>
      <point x="476" y="633"/>
      <point x="383" y="633" type="curve" smooth="yes"/>
      <point x="326" y="633"/>
      <point x="242" y="615"/>
      <point x="200" y="587" type="curve" smooth="yes"/>
      <point x="105" y="525"/>
      <point x="50" y="404"/>
      <point x="50" y="293" type="curve" smooth="yes"/>
      <point x="50" y="216"/>
      <point x="86" y="130"/>
      <point x="149" y="72" type="curve" smooth="yes"/>
      <point x="199" y="26"/>
      <point x="277" y="0"/>
      <point x="355" y="0" type="curve" smooth="yes"/>
      <point x="446" y="0"/>
      <point x="532" y="26"/>
      <point x="573" y="81" type="curve" smooth="yes"/>
      <point x="616" y="139"/>
      <point x="638" y="216"/>
      <point x="638" y="265" type="curve" smooth="yes"/>
      <point x="638" y="323"/>
      <point x="605" y="351"/>
      <point x="560" y="351" type="curve" smooth="yes"/>
      <point x="508" y="351"/>
      <point x="454" y="359"/>
      <point x="396" y="359" type="curve" smooth="yes"/>
      <point x="362" y="359"/>
      <point x="337" y="346"/>
      <point x="337" y="312" type="curve" smooth="yes"/>
      <point x="337" y="290"/>
      <point x="361" y="273"/>
      <point x="400" y="273" type="curve" smooth="yes"/>
      <point x="423" y="273"/>
      <point x="445" y="274"/>
      <point x="472" y="274" type="curve" smooth="yes"/>
      <point x="507" y="274"/>
      <point x="534" y="271"/>
      <point x="534" y="256" type="curve" smooth="yes"/>
      <point x="534" y="220"/>
      <point x="527" y="176"/>
      <point x="500" y="142" type="curve"/>
      <point x="473" y="111"/>
      <point x="425" y="86"/>
      <point x="355" y="86" type="curve" smooth="yes"/>
      <point x="257" y="86"/>
      <point x="155" y="162"/>
      <point x="155" y="294" type="curve" smooth="yes"/>
      <point x="155" y="379"/>
      <point x="183" y="454"/>
      <point x="244" y="499" type="curve" smooth="yes"/>
      <point x="283" y="527"/>
      <point x="329" y="541"/>
      <point x="385" y="541" type="curve" smooth="yes"/>
      <point x="445" y="541"/>
      <point x="483" y="516"/>
      <point x="531" y="481" type="curve"/>
    </contour>
    <contour>
      <point x="320" y="838"/>
      <point x="307" y="821"/>
      <point x="300" y="812" type="curve" smooth="yes"/>
      <point x="293" y="803"/>
      <point x="280" y="786"/>
      <point x="251" y="762" type="curve" smooth="yes"/>
      <point x="233" y="747"/>
      <point x="211" y="722"/>
      <point x="211" y="711" type="curve" smooth="yes"/>
      <point x="211" y="701"/>
      <point x="217" y="684"/>
      <point x="241" y="684" type="curve" smooth="yes"/>
      <point x="282" y="684"/>
      <point x="335" y="735"/>
      <point x="358" y="768" type="curve"/>
      <point x="386" y="729"/>
      <point x="424" y="684"/>
      <point x="474" y="684" type="curve" smooth="yes"/>
      <point x="492" y="684"/>
      <point x="504" y="701"/>
      <point x="504" y="711" type="curve" smooth="yes"/>
      <point x="504" y="719"/>
      <point x="501" y="729"/>
      <point x="482" y="743" type="curve" smooth="yes"/>
      <point x="459" y="759"/>
      <point x="429" y="788"/>
      <point x="415" y="808" type="curve" smooth="yes"/>
      <point x="402" y="828"/>
      <point x="388" y="838"/>
      <point x="356" y="838" type="curve" smooth="yes"/>
    </contour>
  </outline>
</glyph>
<glyph name="Gcommaaccent" format="1">
  <advance width="681"/>
  <unicode hex="0122"/>
  <outline>
    <contour>
      <point x="537" y="477"/>
      <point x="551" y="474"/>
      <point x="557" y="474" type="curve" smooth="yes"/>
      <point x="575" y="474"/>
      <point x="599" y="496"/>
      <point x="599" y="518" type="curve" smooth="yes"/>
      <point x="599" y="527"/>
      <point x="595" y="538"/>
      <point x="587" y="550" type="curve" smooth="yes"/>
      <point x="550" y="603"/>
      <point x="476" y="633"/>
      <point x="383" y="633" type="curve" smooth="yes"/>
      <point x="326" y="633"/>
      <point x="242" y="615"/>
      <point x="200" y="587" type="curve" smooth="yes"/>
      <point x="105" y="525"/>
      <point x="50" y="404"/>
      <point x="50" y="293" type="curve" smooth="yes"/>
      <point x="50" y="216"/>
      <point x="86" y="130"/>
      <point x="149" y="72" type="curve" smooth="yes"/>
      <point x="199" y="26"/>
      <point x="277" y="0"/>
      <point x="355" y="0" type="curve" smooth="yes"/>
      <point x="446" y="0"/>
      <point x="532" y="26"/>
      <point x="573" y="81" type="curve" smooth="yes"/>
      <point x="616" y="139"/>
      <point x="638" y="216"/>
      <point x="638" y="265" type="curve" smooth="yes"/>
      <point x="638" y="323"/>
      <point x="605" y="351"/>
      <point x="560" y="351" type="curve" smooth="yes"/>
      <point x="508" y="351"/>
      <point x="454" y="359"/>
      <point x="396" y="359" type="curve" smooth="yes"/>
      <point x="362" y="359"/>
      <point x="337" y="346"/>
      <point x="337" y="312" type="curve" smooth="yes"/>
      <point x="337" y="290"/>
      <point x="361" y="273"/>
      <point x="400" y="273" type="curve" smooth="yes"/>
      <point x="423" y="273"/>
      <point x="445" y="274"/>
      <point x="472" y="274" type="curve" smooth="yes"/>
      <point x="507" y="274"/>
      <point x="534" y="271"/>
      <point x="534" y="256" type="curve" smooth="yes"/>
      <point x="534" y="220"/>
      <point x="527" y="176"/>
      <point x="500" y="142" type="curve"/>
      <point x="473" y="111"/>
      <point x="425" y="86"/>
      <point x="355" y="86" type="curve" smooth="yes"/>
      <point x="257" y="86"/>
      <point x="155" y="162"/>
      <point x="155" y="294" type="curve" smooth="yes"/>
      <point x="155" y="379"/>
      <point x="183" y="454"/>
      <point x="244" y="499" type="curve" smooth="yes"/>
      <point x="283" y="527"/>
      <point x="329" y="541"/>
      <point x="385" y="541" type="curve" smooth="yes"/>
      <point x="445" y="541"/>
      <point x="483" y="516"/>
      <point x="531" y="481" type="curve"/>
    </contour>
    <contour>
      <point x="348" y="-161"/>
      <point x="341" y="-170"/>
      <point x="331" y="-179" type="curve" smooth="yes"/>
      <point x="318" y="-190"/>
      <point x="293" y="-206"/>
      <point x="293" y="-216" type="curve" smooth="yes"/>
      <point x="293" y="-236"/>
      <point x="297" y="-239"/>
      <point x="323" y="-239" type="curve" smooth="yes"/>
      <point x="339" y="-239"/>
      <point x="360" y="-221"/>
      <point x="378" y="-204" type="curve"/>
      <point x="401" y="-185"/>
      <point x="426" y="-144"/>
      <point x="426" y="-103" type="curve" smooth="yes"/>
      <point x="426" y="-72"/>
      <point x="411" y="-46"/>
      <point x="380" y="-46" type="curve" smooth="yes"/>
      <point x="364" y="-46"/>
      <point x="344" y="-50"/>
      <point x="332" y="-57" type="curve"/>
      <point x="316" y="-62"/>
      <point x="308" y="-79"/>
      <point x="308" y="-96" type="curve" smooth="yes"/>
      <point x="308" y="-128"/>
      <point x="327" y="-140"/>
      <point x="336" y="-145" type="curve"/>
      <point x="342" y="-149"/>
      <point x="355" y="-149"/>
      <point x="355" y="-149" type="curve"/>
    </contour>
  </outline>
</glyph>
<glyph name="Hcircumflex" format="1">
  <advance width="692"/>
  <unicode hex="0124"/>
  <outline>
    <contour>
      <point x="461" y="350"/>
      <point x="394" y="348"/>
      <point x="330" y="348" type="curve" smooth="yes"/>
      <point x="256" y="348"/>
      <point x="219" y="350"/>
      <point x="179" y="359" type="curve"/>
      <point x="179" y="435"/>
      <point x="184" y="510"/>
      <point x="184" y="596" type="curve" smooth="yes"/>
      <point x="184" y="618"/>
      <point x="169" y="633"/>
      <point x="128" y="633" type="curve" smooth="yes"/>
      <point x="111" y="633"/>
      <point x="76" y="628"/>
      <point x="76" y="579" type="curve" smooth="yes"/>
      <point x="76" y="512"/>
      <point x="72" y="446"/>
      <point x="72" y="372" type="curve" smooth="yes"/>
      <point x="72" y="314"/>
      <point x="76" y="256"/>
      <point x="76" y="187" type="curve" smooth="yes"/>
      <point x="76" y="157"/>
      <point x="78" y="128"/>
      <point x="78" y="69" type="curve" smooth="yes"/>
      <point x="78" y="26"/>
      <point x="88" y="-2"/>
      <point x="140" y="-2" type="curve" smooth="yes"/>
      <point x="158" y="-2"/>
      <point x="190" y="18"/>
      <point x="190" y="40" type="curve" smooth="yes"/>
      <point x="190" y="79"/>
      <point x="179" y="119"/>
      <point x="180" y="160" type="curve" smooth="yes"/>
      <point x="180" y="195"/>
      <point x="181" y="234"/>
      <point x="181" y="270" type="curve"/>
      <point x="206" y="265"/>
      <point x="236" y="265"/>
      <point x="351" y="265" type="curve" smooth="yes"/>
      <point x="401" y="265"/>
      <point x="466" y="265"/>
      <point x="513" y="269" type="curve"/>
      <point x="515" y="215"/>
      <point x="517" y="159"/>
      <point x="513" y="104" type="curve" smooth="yes"/>
      <point x="512" y="88"/>
      <point x="511" y="67"/>
      <point x="511" y="46" type="curve" smooth="yes"/>
      <point x="511" y="11"/>
      <point x="539" y="-1"/>
      <point x="581" y="-1" type="curve" smooth="yes"/>
      <point x="607" y="-1"/>
      <point x="620" y="28"/>
      <point x="620" y="50" type="curve" smooth="yes"/>
      <point x="620" y="97"/>
      <point x="616" y="144"/>
      <point x="616" y="196" type="curve" smooth="yes"/>
      <point x="616" y="234"/>
      <point x="614" y="272"/>
      <point x="614" y="331" type="curve" smooth="yes"/>
      <point x="614" y="408"/>
      <point x="617" y="484"/>
      <point x="616" y="575" type="curve"/>
      <point x="616" y="614"/>
      <point x="607" y="635"/>
      <point x="562" y="635" type="curve" smooth="yes"/>
      <point x="529" y="635"/>
      <point x="508" y="616"/>
      <point x="508" y="584" type="curve" smooth="yes"/>
      <point x="508" y="538"/>
      <point x="509" y="509"/>
      <point x="510" y="501" type="curve"/>
      <point x="514" y="454"/>
      <point x="511" y="407"/>
      <point x="513" y="358" type="curve"/>
    </contour>
    <contour>
      <point x="311" y="849"/>
      <point x="298" y="832"/>
      <point x="291" y="823" type="curve" smooth="yes"/>
      <point x="284" y="814"/>
      <point x="271" y="797"/>
      <point x="242" y="773" type="curve" smooth="yes"/>
      <point x="224" y="758"/>
      <point x="202" y="733"/>
      <point x="202" y="722" type="curve" smooth="yes"/>
      <point x="202" y="712"/>
      <point x="208" y="695"/>
      <point x="232" y="695" type="curve" smooth="yes"/>
      <point x="273" y="695"/>
      <point x="326" y="746"/>
      <point x="349" y="779" type="curve"/>
      <point x="377" y="740"/>
      <point x="415" y="695"/>
      <point x="465" y="695" type="curve" smooth="yes"/>
      <point x="483" y="695"/>
      <point x="495" y="712"/>
      <point x="495" y="722" type="curve" smooth="yes"/>
      <point x="495" y="730"/>
      <point x="492" y="740"/>
      <point x="473" y="754" type="curve" smooth="yes"/>
      <point x="450" y="770"/>
      <point x="420" y="799"/>
      <point x="406" y="819" type="curve" smooth="yes"/>
      <point x="393" y="839"/>
      <point x="379" y="849"/>
      <point x="347" y="849" type="curve" smooth="yes"/>
    </contour>
  </outline>
</glyph>
<glyph name="Itilde" format="1">
  <advance width="373"/>
  <unicode hex="0128"/>
  <outline>
    <contour>
      <point x="233" y="552" type="line"/>
      <point x="231" y="509"/>
      <point x="230" y="470"/>
      <point x="230" y="429" type="curve" smooth="yes"/>
      <point x="230" y="309"/>
      <point x="245" y="193"/>
      <point x="245" y="78" type="curve"/>
      <point x="267" y="81"/>
      <point x="274" y="83"/>
      <point x="284" y="83" type="curve" smooth="yes"/>
      <point x="311" y="83"/>
      <point x="332" y="71"/>
      <point x="332" y="38" type="curve" smooth="yes"/>
      <point x="332" y="8"/>
      <point x="302" y="0"/>
      <point x="193" y="0" type="curve" smooth="yes"/>
      <point x="73" y="0"/>
      <point x="45" y="9"/>
      <point x="45" y="54" type="curve" smooth="yes"/>
      <point x="45" y="85"/>
      <point x="76" y="84"/>
      <point x="108" y="82" type="curve"/>
      <point x="112" y="82"/>
      <point x="119" y="81"/>
      <point x="141" y="80" type="curve"/>
      <point x="136" y="198" type="line" smooth="yes"/>
      <point x="132" y="262"/>
      <point x="130" y="319"/>
      <point x="130" y="374" type="curve" smooth="yes"/>
      <point x="130" y="387"/>
      <point x="131" y="442"/>
      <point x="133" y="492" type="curve" smooth="yes"/>
      <point x="135" y="547" type="line"/>
      <point x="101" y="545"/>
      <point x="90" y="545"/>
      <point x="82" y="545" type="curve" smooth="yes"/>
      <point x="54" y="545"/>
      <point x="45" y="552"/>
      <point x="45" y="586" type="curve" smooth="yes"/>
      <point x="45" y="625"/>
      <point x="108" y="630"/>
      <point x="184" y="630" type="curve" smooth="yes"/>
      <point x="254" y="630"/>
      <point x="323" y="631"/>
      <point x="323" y="608" type="curve" smooth="yes"/>
      <point x="323" y="562"/>
      <point x="307" y="553"/>
      <point x="253" y="553" type="curve"/>
    </contour>
    <contour>
      <point x="21" y="726"/>
      <point x="42" y="716"/>
      <point x="53" y="716" type="curve" smooth="yes"/>
      <point x="69" y="716"/>
      <point x="83" y="723"/>
      <point x="94" y="739" type="curve" smooth="yes"/>
      <point x="106" y="757"/>
      <point x="124" y="763"/>
      <point x="140" y="763" type="curve" smooth="yes"/>
      <point x="173" y="763"/>
      <point x="186" y="718"/>
      <point x="253" y="718" type="curve" smooth="yes"/>
      <point x="299" y="718"/>
      <point x="350" y="761"/>
      <point x="350" y="802" type="curve" smooth="yes"/>
      <point x="350" y="823"/>
      <point x="331" y="832"/>
      <point x="316" y="832" type="curve" smooth="yes"/>
      <point x="300" y="832"/>
      <point x="292" y="824"/>
      <point x="285" y="814" type="curve"/>
      <point x="278" y="803"/>
      <point x="272" y="790"/>
      <point x="255" y="790" type="curve"/>
      <point x="242" y="789"/>
      <point x="227" y="796"/>
      <point x="209" y="809" type="curve" smooth="yes"/>
      <point x="187" y="824"/>
      <point x="161" y="833"/>
      <point x="136" y="833" type="curve" smooth="yes"/>
      <point x="88" y="833"/>
      <point x="21" y="798"/>
      <point x="21" y="745" type="curve" smooth="yes"/>
    </contour>
  </outline>
</glyph>
<glyph name="itilde" format="1">
  <advance width="256"/>
  <unicode hex="0129"/>
  <outline>
    <contour>
      <point x="184" y="318"/>
      <point x="184" y="209"/>
      <point x="184" y="199" type="curve" smooth="yes"/>
      <point x="184" y="170" type="line" smooth="yes"/>
      <point x="184" y="112"/>
      <point x="188" y="76"/>
      <point x="193" y="27" type="curve"/>
      <point x="192" y="13"/>
      <point x="167" y="-4"/>
      <point x="153" y="-4" type="curve" smooth="yes"/>
      <point x="130" y="-4"/>
      <point x="97" y="6"/>
      <point x="91" y="22" type="curve"/>
      <point x="88" y="38"/>
      <point x="85" y="58"/>
      <point x="85" y="79" type="curve" smooth="yes"/>
      <point x="85" y="131"/>
      <point x="83" y="202"/>
      <point x="80" y="263" type="curve" smooth="yes"/>
      <point x="78" y="308"/>
      <point x="76" y="348"/>
      <point x="76" y="390" type="curve" smooth="yes"/>
      <point x="76" y="416"/>
      <point x="108" y="434"/>
      <point x="132" y="434" type="curve" smooth="yes"/>
      <point x="173" y="434"/>
      <point x="184" y="415"/>
      <point x="184" y="380" type="curve" smooth="yes"/>
    </contour>
    <contour>
      <point x="-37" y="555"/>
      <point x="-16" y="545"/>
      <point x="-5" y="545" type="curve" smooth="yes"/>
      <point x="11" y="545"/>
      <point x="25" y="552"/>
      <point x="36" y="568" type="curve" smooth="yes"/>
      <point x="48" y="586"/>
      <point x="66" y="592"/>
      <point x="82" y="592" type="curve" smooth="yes"/>
      <point x="115" y="592"/>
      <point x="128" y="547"/>
      <point x="195" y="547" type="curve" smooth="yes"/>
      <point x="241" y="547"/>
      <point x="292" y="590"/>
      <point x="292" y="631" type="curve" smooth="yes"/>
      <point x="292" y="652"/>
      <point x="273" y="661"/>
      <point x="258" y="661" type="curve" smooth="yes"/>
      <point x="242" y="661"/>
      <point x="234" y="653"/>
      <point x="227" y="643" type="curve"/>
      <point x="220" y="632"/>
      <point x="214" y="619"/>
      <point x="197" y="619" type="curve"/>
      <point x="184" y="618"/>
      <point x="169" y="625"/>
      <point x="151" y="638" type="curve" smooth="yes"/>
      <point x="129" y="653"/>
      <point x="103" y="662"/>
      <point x="78" y="662" type="curve" smooth="yes"/>
      <point x="30" y="662"/>
      <point x="-37" y="627"/>
      <point x="-37" y="574" type="curve" smooth="yes"/>
    </contour>
  </outline>
</glyph>
<glyph name="Imacron" format="1">
  <advance width="373"/>
  <unicode hex="012A"/>
  <outline>
    <contour>
      <point x="253" y="553" type="line"/>
      <point x="307" y="553"/>
      <point x="323" y="562"/>
      <point x="323" y="608" type="curve" smooth="yes"/>
      <point x="323" y="631"/>
      <point x="254" y="630"/>
      <point x="184" y="630" type="curve" smooth="yes"/>
      <point x="108" y="630"/>
      <point x="45" y="625"/>
      <point x="45" y="586" type="curve" smooth="yes"/>
      <point x="45" y="552"/>
      <point x="54" y="545"/>
      <point x="82" y="545" type="curve" smooth="yes"/>
      <point x="90" y="545"/>
      <point x="101" y="545"/>
      <point x="135" y="547" type="curve"/>
      <point x="133" y="492" type="line" smooth="yes"/>
      <point x="131" y="442"/>
      <point x="130" y="387"/>
      <point x="130" y="374" type="curve" smooth="yes"/>
      <point x="130" y="319"/>
      <point x="132" y="262"/>
      <point x="136" y="198" type="curve" smooth="yes"/>
      <point x="141" y="80" type="line"/>
      <point x="119" y="81"/>
      <point x="112" y="82"/>
      <point x="108" y="82" type="curve"/>
      <point x="76" y="84"/>
      <point x="45" y="85"/>
      <point x="45" y="54" type="curve" smooth="yes"/>
      <point x="45" y="9"/>
      <point x="73" y="0"/>
      <point x="193" y="0" type="curve" smooth="yes"/>
      <point x="302" y="0"/>
      <point x="332" y="8"/>
      <point x="332" y="38" type="curve" smooth="yes"/>
      <point x="332" y="71"/>
      <point x="311" y="83"/>
      <point x="284" y="83" type="curve" smooth="yes"/>
      <point x="274" y="83"/>
      <point x="267" y="81"/>
      <point x="245" y="78" type="curve"/>
      <point x="245" y="193"/>
      <point x="230" y="309"/>
      <point x="230" y="429" type="curve" smooth="yes"/>
      <point x="230" y="470"/>
      <point x="231" y="509"/>
      <point x="233" y="552" type="curve"/>
    </contour>
    <contour>
      <point x="260" y="720" type="line" smooth="yes"/>
      <point x="308" y="720"/>
      <point x="321" y="727"/>
      <point x="321" y="769" type="curve" smooth="yes"/>
      <point x="321" y="788"/>
      <point x="229" y="787"/>
      <point x="168" y="787" type="curve" smooth="yes"/>
      <point x="102" y="787"/>
      <point x="49" y="783"/>
      <point x="49" y="749" type="curve" smooth="yes"/>
      <point x="49" y="719"/>
      <point x="55" y="714"/>
      <point x="78" y="714" type="curve" smooth="yes"/>
      <point x="87" y="714"/>
      <point x="119" y="717"/>
      <point x="149" y="717" type="curve" smooth="yes"/>
    </contour>
  </outline>
</glyph>
<glyph name="ibreve" format="1">
  <advance width="256"/>
  <unicode hex="012D"/>
  <outline>
    <contour>
      <point x="184" y="318"/>
      <point x="184" y="209"/>
      <point x="184" y="199" type="curve" smooth="yes"/>
      <point x="184" y="170" type="line" smooth="yes"/>
      <point x="184" y="112"/>
      <point x="188" y="76"/>
      <point x="193" y="27" type="curve"/>
      <point x="192" y="13"/>
      <point x="167" y="-4"/>
      <point x="153" y="-4" type="curve" smooth="yes"/>
      <point x="130" y="-4"/>
      <point x="97" y="6"/>
      <point x="91" y="22" type="curve"/>
      <point x="88" y="38"/>
      <point x="85" y="58"/>
      <point x="85" y="79" type="curve" smooth="yes"/>
      <point x="85" y="131"/>
      <point x="83" y="202"/>
      <point x="80" y="263" type="curve" smooth="yes"/>
      <point x="78" y="308"/>
      <point x="76" y="348"/>
      <point x="76" y="390" type="curve" smooth="yes"/>
      <point x="76" y="416"/>
      <point x="108" y="434"/>
      <point x="132" y="434" type="curve" smooth="yes"/>
      <point x="173" y="434"/>
      <point x="184" y="415"/>
      <point x="184" y="380" type="curve" smooth="yes"/>
    </contour>
    <contour>
      <point x="26" y="576"/>
      <point x="69" y="543"/>
      <point x="130" y="543" type="curve" smooth="yes"/>
      <point x="218" y="543"/>
      <point x="248" y="599"/>
      <point x="262" y="629" type="curve" smooth="yes"/>
      <point x="266" y="637"/>
      <point x="268" y="647"/>
      <point x="268" y="652" type="curve" smooth="yes"/>
      <point x="268" y="665"/>
      <point x="248" y="674"/>
      <point x="239" y="674" type="curve" smooth="yes"/>
      <point x="226" y="674"/>
      <point x="217" y="670"/>
      <point x="205" y="655" type="curve"/>
      <point x="184" y="631"/>
      <point x="162" y="616"/>
      <point x="128" y="616" type="curve" smooth="yes"/>
      <point x="89" y="616"/>
      <point x="68" y="638"/>
      <point x="55" y="652" type="curve"/>
      <point x="44" y="662"/>
      <point x="34" y="670"/>
      <point x="23" y="670" type="curve" smooth="yes"/>
      <point x="6" y="670"/>
      <point x="-11" y="659"/>
      <point x="-11" y="651" type="curve" smooth="yes"/>
      <point x="-11" y="643"/>
      <point x="-6" y="630"/>
      <point x="-3" y="625" type="curve" smooth="yes"/>
    </contour>
  </outline>
</glyph>
<glyph name="Iogonek" format="1">
  <advance width="373"/>
  <unicode hex="012E"/>
  <outline>
    <contour>
      <point x="253" y="553" type="line"/>
      <point x="307" y="553"/>
      <point x="323" y="562"/>
      <point x="323" y="608" type="curve" smooth="yes"/>
      <point x="323" y="631"/>
      <point x="254" y="630"/>
      <point x="184" y="630" type="curve" smooth="yes"/>
      <point x="108" y="630"/>
      <point x="45" y="625"/>
      <point x="45" y="586" type="curve" smooth="yes"/>
      <point x="45" y="552"/>
      <point x="54" y="545"/>
      <point x="82" y="545" type="curve" smooth="yes"/>
      <point x="90" y="545"/>
      <point x="101" y="545"/>
      <point x="135" y="547" type="curve"/>
      <point x="133" y="492" type="line" smooth="yes"/>
      <point x="131" y="442"/>
      <point x="130" y="387"/>
      <point x="130" y="374" type="curve" smooth="yes"/>
      <point x="130" y="319"/>
      <point x="132" y="262"/>
      <point x="136" y="198" type="curve" smooth="yes"/>
      <point x="141" y="80" type="line"/>
      <point x="119" y="81"/>
      <point x="112" y="82"/>
      <point x="108" y="82" type="curve"/>
      <point x="76" y="84"/>
      <point x="45" y="85"/>
      <point x="45" y="54" type="curve" smooth="yes"/>
      <point x="45" y="9"/>
      <point x="73" y="0"/>
      <point x="193" y="0" type="curve"/>
      <point x="151" y="-32"/>
      <point x="126" y="-74"/>
      <point x="126" y="-135" type="curve" smooth="yes"/>
      <point x="126" y="-184"/>
      <point x="165" y="-212"/>
      <point x="219" y="-212" type="curve" smooth="yes"/>
      <point x="261" y="-212"/>
      <point x="291" y="-193"/>
      <point x="291" y="-167" type="curve" smooth="yes"/>
      <point x="291" y="-145"/>
      <point x="284" y="-138"/>
      <point x="270" y="-138" type="curve" smooth="yes"/>
      <point x="261" y="-138"/>
      <point x="252" y="-146"/>
      <point x="231" y="-146" type="curve" smooth="yes"/>
      <point x="212" y="-146"/>
      <point x="196" y="-140"/>
      <point x="196" y="-120" type="curve" smooth="yes"/>
      <point x="196" y="-79"/>
      <point x="229" y="-16"/>
      <point x="277" y="-2" type="curve" smooth="yes"/>
      <point x="315" y="9"/>
      <point x="332" y="17"/>
      <point x="332" y="38" type="curve" smooth="yes"/>
      <point x="332" y="71"/>
      <point x="311" y="83"/>
      <point x="284" y="83" type="curve" smooth="yes"/>
      <point x="274" y="83"/>
      <point x="267" y="81"/>
      <point x="245" y="78" type="curve"/>
      <point x="245" y="193"/>
      <point x="230" y="309"/>
      <point x="230" y="429" type="curve" smooth="yes"/>
      <point x="230" y="470"/>
      <point x="231" y="509"/>
      <point x="233" y="552" type="curve"/>
    </contour>
  </outline>
</glyph>
